/* XPM */
static char *_f4166d9362a445ed2e2d16d728ad5d1d7ie3xCrm21HicWx[] = {
/* columns rows colors chars-per-pixel */
"64 64 130 2 ",
"   c #39362A",
".  c #3B382D",
"X  c #343936",
"o  c #3C3C34",
"O  c #3A3D38",
"+  c #463823",
"@  c #433D2F",
"#  c #413E33",
"$  c #3D413B",
"%  c #594327",
"&  c #5B462A",
"*  c #59482F",
"=  c #444137",
"-  c #43443C",
";  c #4D473A",
":  c #4C493E",
">  c #554936",
",  c #524B3D",
"<  c #634A2A",
"1  c #6D4F2C",
"2  c #76562E",
"3  c #7F5B30",
"4  c #424641",
"5  c #464B45",
"6  c #4D4B43",
"7  c #464A48",
"8  c #4A4F4A",
"9  c #534F46",
"0  c #4C514D",
"q  c #545147",
"w  c #51544D",
"e  c #4D5251",
"r  c #525652",
"t  c #555A55",
"y  c #585D57",
"u  c #575D5B",
"i  c #595F5B",
"p  c #5D635D",
"a  c #60655F",
"s  c #585F60",
"d  c #596060",
"f  c #616661",
"g  c #656A65",
"h  c #686D67",
"j  c #666D6E",
"k  c #6B6E69",
"l  c #6D726D",
"z  c #74756E",
"x  c #7E7B6E",
"c  c #717671",
"v  c #757A75",
"b  c #7A7972",
"n  c #757B78",
"m  c #787D79",
"M  c #797E7A",
"N  c #7A7F7B",
"B  c #7B7F7B",
"V  c #797E79",
"C  c #805C31",
"Z  c #815C31",
"A  c #815D31",
"S  c #825C31",
"D  c #825D31",
"F  c #825E31",
"G  c #825D32",
"H  c #825E32",
"J  c #825D31",
"K  c #807C6E",
"L  c #7B807B",
"P  c #7B817C",
"I  c #7C807C",
"U  c #7C817D",
"Y  c #7D827D",
"T  c #7D827E",
"R  c #7E837F",
"E  c #7E827E",
"W  c #C99820",
"Q  c #C99820",
"!  c #85837C",
"~  c #85837D",
"^  c #86837D",
"/  c #85847C",
"(  c #85847D",
")  c #86847C",
"_  c #86847D",
"`  c #767F81",
"'  c #7F8480",
"]  c #7D8481",
"[  c #7F898C",
"{  c #808580",
"}  c #878D87",
"|  c #838986",
" . c #97958E",
".. c #8A9699",
"X. c #959B96",
"o. c #969B96",
"O. c #959C95",
"+. c #969C95",
"@. c #969C96",
"#. c #979C96",
"$. c #979D96",
"%. c #969D97",
"&. c #979D97",
"*. c #9AA19A",
"=. c #9BA19B",
"-. c #9BA29B",
";. c #9CA29B",
":. c #9BA19C",
">. c #9BA29C",
",. c #9CA29C",
"<. c #9BA29B",
"1. c #A2A098",
"2. c #A6ACA6",
"3. c #A6ADA6",
"4. c #A6ADA7",
"5. c #A7ADA7",
"6. c #A7AEA7",
"7. c #A6ADA7",
"8. c #A7AEA8",
"9. c #A8AFA8",
"0. c #ABB2AB",
"q. c #ACB2AB",
"w. c #ACB2AC",
"e. c #ACB3AC",
"r. c #ADB3AC",
"t. c #ACB3AD",
"y. c #ADB3AD",
"u. c #ACB2AC",
"i. c #B3B0A7",
"p. c #BCB9B0",
/* pixels */
"W W W W W W W W W W W W W W W W W W W W W W W W W W W W W W W W W W W W W W W W W W W W W W W W W W W W W W W W W W W W W W W W ",
"W W W W W W W W W W W W W W W W W W W W W W W W W W W W W W W W W W W W W W W W W W W W W W W W W W W W W W W W W W W W W W W W ",
"W W W W W W W W W W W W W W W W W W W W W W W W W W W W W W W W W W W W W W W W W W W W W W W W W W W W W W W W W W W W W W W W ",
"W W W W W W W W W W W W W W W W W W W W W W W W W W W W W W W W W W W W W W W W W W W W W W W W W W W W W W W W W W W W W W W W ",
"W W W W W W W W W W W W W W W W W W W W W W W W W W W W W W W W W W W W W W Q W W W W W W W W W W W W W W W W W W W W W W W W W ",
"W W W W W W W W W W W W W W p.^ ^ ^ ^ ^ ^ ^ ^ ^ ^ ^ ( ^ ( ( ( ( ( ( ( ^ ( ( ^ ^ ( ( ( ( ( ( ( ^ i.W W W W W W W W W W W W W W W ",
"W W W W W W W W W W W W W W b } @.@.@.@.@.@.@.@.@.@.@.@.@.@.@.@.@.@.@.@.@.@.@.@.@.@.o.@.@.@.@.o.z W W W W W W W W W W W W W W W ",
"W W W W W W W W W W W W W W b ,.y.y.y.y.y.y.y.y.y.y.y.y.y.y.y.y.y.y.y.y.y.y.y.q.y.y.y.y.y.y.y.y.z W W W W W W W W W W W W W W W ",
"W W W W W W W W W W W W W W b -.y.6 > > > > > > > > > > > > > > > > > > > > > > > > > > > o 9.y.z W W W W W W W W W W W W W W W ",
"W W W W W W W W W W W W W W b -.y.> G G G G G G G G G G G G G G G G G G G G G G G G G G G + 6.y.z W W W W W W W W W W W W W W W ",
"W W W W W W W W W W W W W W b ,.y.> G G G G G G G G G G G G G G G G G G G G G G G G G G G + 6.y.z W W W W W W W W W W W W W W W ",
"W W W W W W W W W W W W W W b -.y.> G G G G < & & & & & & & & & & & & & & & & & & G G G G + 6.y.z W W W W W W W W W W W W W W W ",
"W W W W W W W W W W W W W W b -.y.> G G G G = a y t t t w f w g r a t r p 0 f t $ 2 G G G + 6.y.z W W W W W W W W W W W W W W W ",
"W W W W W W W W W W W W W W b -.y.> G G G G q i h f p f p h f h f f f p g f h f 4 2 G G G + 6.y.z W W W W W W W W W W W W W W W ",
"W W W W W W W W W W W W W W b -.y.> G G G G . v p h f p l t m i l p p h p c y l 5 2 G G G + 6.y.z W W W W W W W W W W W W W W W ",
"W W W W W W W W W W W W W W b -.y.> G G G G q r c p g l r T 0 P p g h y L r v i - 2 G G G + 6.y.z W W W W W W W W W W W W W W W ",
"W W W W W W W W W W W W W W b -.y.> G G G G # v i l g p T 5 T r c f p T 5 T y l w 2 G G G + 6.y.z W W W W W W W W W W W W W W W ",
"W W W W W W W W W W W W W W b -.y.> G G G G 6 i c f g c t T 0 v p g m 0 ' 0 v p O 2 G G G + 6.y.z W W W W W W W W W W W W W W W ",
"W W W W W W W W W W W W W W b -.y.> G G G G = h f g g p c p v p h h p m t m i l t 2 G G G + 6.0.z W W W W W W W W W W W W W W W ",
"W W W W W W W W W W W W W W b >.y.> G G G G = c f f f f f h f h p f h p c p l p 4 2 G G G + 6.q.z W W W W W W W W W W W W W W W ",
"W W W W W W W W W W W W W W b -.y.> G G G G q r c a p l i v p l p a h g g h f g 0 2 G G G + 6.y.z W W W W W W W W W W W W W W W ",
"W W W W W W W W W W W W W W x -.y.> G G G G   T i l l t T 0 L p g l i v p l f p 4 2 G G G + 6.y.z W W W W W W W W W W W W W W W ",
"W W W W W W W W W W W W W W K ;.y.> G G G G 9 8 m p f m 8 { 0 v p p T 0 m y l f 5 2 G G G + 6.y.z W W W W W W W W W W W W W W W ",
"W W W W W W W W W W W W W W x ,.y.> G G G G # m p h l y m 0 m i h v 0 { 0 v p g 8 2 G G G + 6.y.z W W W W W W W W W W W W W W W ",
"W W W W W W W W W W W W W W x -.q.> G G G G : a g p f l i c p l g p v r T r c p $ 2 G G G + 6.y.z W W W W W W W W W W W W W W W ",
"W W W W W W W W W W W W W W x -.y.> G G G G : f f f p g g g h p p g p c y m i h r 2 G G G + 6.0.z W W W W W W W W W W W W W W W ",
"W W W W W W W W W W W W W W b -.y.> G G G G # c p f l y v i l p p g f p l p l p $ 2 G G G + 6.0.z W W W W W W W W W W W W W W W ",
"W W W W W W W W W W W W W W b >.y.> G G G G q t l h y P 0 T i h g y l p h g a g r 2 G G G + 6.y.z W W W W W W W W W W W W W W W ",
"W W W W W W W W W W W W W W b -.y.> G G G G . v p g m 8 { 0 v p f c 0 m y c f f 4 2 G G G + 6.q.z W W W W W W W W W W W W W W W ",
"W W W W W W W W W W W W W W b ;.y.> G G G G q p h l i m 0 m i l l t T 5 T t l p 4 2 G G G + 6.y.z W W W W W W W W W W W W W W W ",
"W W W W W W W W W W W W W W b >.y.> G G G G : h g p l p c p l f f c r T 0 m i h r 2 G G G + 6.0.z W W W W W W W W W W W W W W W ",
"W W W W W W W W W W W W W W b ;.y.> G G G G : g f f f h g h p f g p c i m i c f O 2 G G G + 6.y.z W W W W W W W W W W W W W W W ",
"W W W W W W W W W W W W W W b -.y.> G G G G < % % % % % % % % % % % % % % % % % % 3 G G G + 6.y.z W W W W W W W W W W W W W W W ",
"W W W W W W W W W W W W W W b ;.y.> G G G G G G G G G G G G G G G G G G G G G G G G G G G + 8.y.z W W W W W W W W W W W W W W W ",
"W W W W W W W W W W W W W W b -.y.> G G G G G G G G G G G G G G G G G G G G G G 1 & & & 2 + 6.y.z W W W W W W W W W W W W W W W ",
"W W W W W W W W W W W W W W b -.y.> G G G G G G G G G G G G G G G G G G G G G G ; n n v * + 6.y.z W W W W W W W W W W W W W W W ",
"W W W W W W W W W W W W W W b -.y.> G G G G G G G G G G G G G G G G G G G G G G ; y f | * + 6.y.z W W W W W W W W W W W W W W W ",
"W W W W W W W W W W W W W W b -.y.> G G G G G G G G G G G G G G G G G G G G G G 8 [ ` t * + 6.y.z W W W W W W W W W W W W W W W ",
"W W W W W W W W W W W W W W b ,.y.> G G G G G G G G G G G G G G G G G G G G G < ] ....e * + 6.y.z W W W W W W W W W W W W W W W ",
"W W W W W W W W W W W W W W b ,.y.> G G G G G G G G G G G G G G G G G G G G G 2 j ....e * + 6.y.z W W W W W W W W W W W W W W W ",
"W W W W W W W W W W W W W W b ;.y.> G G G G G G G G G G G G G G G G G G G G G G @ r r v * + 6.0.z W W W W W W W W W W W W W W W ",
"W W W W W W W W W W W W W W b -.y.> G G G G G G G G G G G G G G G G G G G G G G , | | | * + 6.u.z W W W W W W W W W W W W W W W ",
"W W W W W W W W W W W W W W b ,.y.> G G G G G G G G G G G G G G G G G G G G G G , ' ' ' * + 6.u.z W W W W W W W W W W W W W W W ",
"W W W W W W W W W W W W W W b ,.y.> G G G G G G G G G G G G G G G G G G G G G G 1 & & & 2 + 6.y.z W W W W W W W W W W W W W W W ",
"W W W W W W W W W W W W W W b -.y.> G G G G G G G G G G G G G G G G G G G G G G G G G G G + 6.y.z W W W W W W W W W W W W W W W ",
"W W W W W W W W W W W W W W b -.y.> G G G G G G G G G G G G G G G G G G G G G G G G G G G + 6.y.z W W W W W W W W W W W W W W W ",
"W W W W W W W W W W W W W W b ,.y.> G G G G G G G G G G G G G G G G G G G G G G G G G G G + 6.y.z W W W W W W W W W W W W W W W ",
"W W W W W W W W W W W W W W b >.y.> G G G G G G G G G G G G G G G G G G G G G G G G G G G + 6.y.z W W W W W W W W W W W W W W W ",
"W W W W W W W W W W W W W W b ,.y.> G G G G G G G G G G G G G G G G G G G G G G G G G G G + 6.y.z W W W W W W W W W W W W W W W ",
"W W W W W W W W W W W W W W b ,.y.> G G G G G G G G G G G G G G G G G G G G G G G G G G G + 6.y.z W W W W W W W W W W W W W W W ",
"W W W W W W W W W W W W W W b -.y.> G G G G G G G G G G G G G G G G G G G G G G G G G G G + 6.y.z W W W W W W W W W W W W W W W ",
"W W W W W W W W W W W W W W b ,.y.> G G G G G G G G G G G G G G G G G G G G G G G G G G G + 6.y.z W W W W W W W W W W W W W W W ",
"W W W W W W W W W W W W W W b -.y.> H H H H H H H H H H H H H H H H H H H H H H H H H H H + 6.y.z W W W W W W W W W W W W W W W ",
"W W W W W W W W W W W W W W b -.y.7 d i d s i s p s i i i d i d i d s s i i d i i i s d d X 8.y.z W W W W W W W W W W W W W W W ",
"W W W W W W W W W W W W W W b >.u.u ......................................................0 6.0.z W W W W W W W W W W W W W W W ",
"W W W W W W W W W W W W W W b -.u.u ......................................................8 6.y.z W W W W W W W W W W W W W W W ",
"W W W W W W W W W W W W W W b -.u.i ......................................................0 6.0.z W W W W W W W W W W W W W W W ",
"W W W W W W W W W W W W W W b -.y.i ......................................................8 6.0.z W W W W W W W W W W W W W W W ",
"W W W W W W W W W W W W W W b -.y.i ......................................................8 6.q.z W W W W W W W W W W W W W W W ",
"W W W W W W W W W W W W W W b -.u.i ......................................................0 6.0.z W W W W W W W W W W W W W W W ",
"W W W W W W W W W W W W W W b -.y.i ......................................................0 6.0.z W W W W W W W W W W W W W W W ",
"W W W W W W W W W W W W W W b -.y.i ......................................................0 6.q.z W W W W W W W W W W W W W W W ",
"W W W W W W W W W W W W W W b ;.y.i ......................................................0 6.0.z W W W W W W W W W W W W W W W ",
"W W W W W W W W W W W W W W 1.k z f k k k k k k k k k k k k k k k k k k k k k k k k k k k f z z  .W W W W W W W W W W W W W W W "
};
