/* XPM */
static char *_17ee5b97ba34216a53697e7e9db7f2akkzofuSIbRk9eau0[] = {
/* columns rows colors chars-per-pixel */
"64 64 105 2 ",
"   c black",
".  c #2D1F03",
"X  c #343936",
"o  c #5B462C",
"O  c #59482F",
"+  c #4F473A",
"@  c #524B3D",
"#  c #6D4F2C",
"$  c #76562E",
"%  c #7F5B30",
"&  c #464C45",
"*  c #4B4C47",
"=  c #464A48",
"-  c #4A4F4A",
";  c #4C524D",
":  c #50554F",
">  c #4D5251",
",  c #515752",
"<  c #555B55",
"1  c #585D57",
"2  c #575D5D",
"3  c #595F5B",
"4  c #5D635D",
"5  c #60655F",
"6  c #585F60",
"7  c #596060",
"8  c #616661",
"9  c #656A65",
"0  c #686D67",
"q  c #6B6E69",
"w  c #6D726D",
"e  c #71716B",
"r  c #6B7A7B",
"t  c #717671",
"y  c #757A75",
"u  c #787C77",
"i  c #797E7A",
"p  c #845E32",
"a  c #855E32",
"s  c #845F32",
"d  c #855F32",
"f  c #855F31",
"g  c #825D31",
"h  c #7A807B",
"j  c #7B807B",
"k  c #7B807C",
"l  c #7B817C",
"z  c #7C807C",
"x  c #7C817C",
"c  c #7C817D",
"v  c #7D827D",
"b  c #7D827E",
"n  c #7E827E",
"m  c #7E837E",
"M  c #7E837F",
"N  c #C99820",
"B  c #767F81",
"V  c #7F8480",
"C  c #7F898C",
"Z  c #808580",
"A  c #838885",
"S  c #828985",
"D  c #838986",
"F  c #878D87",
"G  c #8A9598",
"H  c #8A9599",
"J  c #8B9599",
"K  c #8A9699",
"L  c #8B9699",
"P  c #8B969A",
"I  c #8B979A",
"U  c #959B96",
"Y  c #969B96",
"T  c #959C95",
"R  c #969C95",
"E  c #969C96",
"W  c #979C96",
"Q  c #979D96",
"!  c #969D97",
"~  c #979D97",
"^  c #8AA09D",
"/  c #9AA19A",
"(  c #9BA19B",
")  c #9BA29B",
"_  c #9CA29B",
"`  c #9BA19C",
"'  c #9BA29C",
"]  c #9CA19C",
"[  c #9CA29C",
"{  c #A5ACA6",
"}  c #A6ACA6",
"|  c #A6ADA6",
" . c #A6ADA7",
".. c #A7ADA7",
"X. c #A7AEA7",
"o. c #A7AEA8",
"O. c #A8AFA8",
"+. c #ABB2AB",
"@. c #ACB2AB",
"#. c #ABB2AC",
"$. c #ACB2AC",
"%. c #ACB3AC",
"&. c #ADB3AC",
"*. c #ACB3AD",
"=. c #ADB3AD",
/* pixels */
"N N N N N N N N N N N N N N N N N N N N N N N N N N N N N N N N N N N N N N N N N N N N N N N N N N N N N N N N N N N N N N N N ",
"N N N N N N N N N N N N N N N N N N N N N N N N N N N N N N N N N N N N N N N N N N N N N N N N N N N N N N N N N N N N N N N N ",
"N N N N N N N N N N N N N N N N N N N N N N N N N N N N N N N N N N N N N N N N N N N N N N N N N N N N N N N N N N N N N N N N ",
"N N N N N N N N N N N N N N N N N N N N N N N N N N N N N N N N N N N N N N N N N N N N N N N N N N N N N N N N N N N N N N N N ",
"N N N N N N N N N N N N N N N N N N N N N N N N N N N N N N N N N N N N N N N N N N N N N N N N N N N N N N N N N N N N N N N N ",
"N N N N N N N N N N N N N N                                                                       N N N N N N N N N N N N N N N ",
"N N N N N N N N N N N N N N   F E E E E E E E E E E E E E E E E E E E E E E E E E E Y E E E E Y   N N N N N N N N N N N N N N N ",
"N N N N N N N N N N N N N N   [ =.=.=.=.=.=.=.=.=.=.=.=.=.=.=.=.=.=.=.=.=.=.=.@.=.=.=.=.=.=.=.=.  N N N N N N N N N N N N N N N ",
"N N N N N N N N N N N N N N   ) =.. . . . . . . . . . . . . . . . . . . . . . . . . . . . . O.=.  N N N N N N N N N N N N N N N ",
"N N N N N N N N N N N N N N   ) =.. g g g g g g g g g g g g g g g g g g g g g g g g g g g . X.=.  N N N N N N N N N N N N N N N ",
"N N N N N N N N N N N N N N   [ =.. g g g g g g g g g g g g g g g g g g g g g g g g g g g . X.=.  N N N N N N N N N N N N N N N ",
"N N N N N N N N N N N N N N   ) =.. g g g g                                       g g g g . X.=.  N N N N N N N N N N N N N N N ",
"N N N N N N N N N N N N N N   ) =.. g g g g   5 1 < < < : 8 : 9 , 5 < , 4 ; 8 <   $ g g g . X.=.  N N N N N N N N N N N N N N N ",
"N N N N N N N N N N N N N N   ) =.. g g g g   3 0 8 4 8 4 0 8 0 8 8 8 4 9 8 0 8   $ g g g . X.=.  N N N N N N N N N N N N N N N ",
"N N N N N N N N N N N N N N   ) =.. g g g g   y 4 0 8 4 w < u 3 w 4 4 0 4 t 1 w   $ g g g . X.=.  N N N N N N N N N N N N N N N ",
"N N N N N N N N N N N N N N   ) =.. g g g g   , t 4 9 w , b ; k 4 9 0 1 h , y 3   $ g g g . X.=.  N N N N N N N N N N N N N N N ",
"N N N N N N N N N N N N N N   ) =.. g g g g   y 3 w 9 4 b & b , t 8 4 b & b 1 w   $ g g g . X.=.  N N N N N N N N N N N N N N N ",
"N N N N N N N N N N N N N N   ) =.. g g g g   3 t 8 9 t < b ; y 4 9 u ; V ; y 4   $ g g g . X.=.  N N N N N N N N N N N N N N N ",
"N N N N N N N N N N N N N N   ) =.. g g g g   0 8 9 9 4 t 4 y 4 0 0 4 u < u 3 w   $ g g g . X.+.  N N N N N N N N N N N N N N N ",
"N N N N N N N N N N N N N N   ' =.. g g g g   t 8 8 8 8 8 0 8 0 4 8 0 4 t 4 w 4   $ g g g . X.@.  N N N N N N N N N N N N N N N ",
"N N N N N N N N N N N N N N   ) =.. g g g g   , t 5 4 w 3 y 4 w 4 5 0 9 9 0 8 9   $ g g g . X.=.  N N N N N N N N N N N N N N N ",
"N N N N N N N N N N N N N N   ) =.. g g g g   b 3 w w < b ; h 4 9 w 3 y 4 w 8 4   $ g g g . X.=.  N N N N N N N N N N N N N N N ",
"N N N N N N N N N N N N N N   _ =.. g g g g   - u 4 8 u - Z ; y 4 4 b ; u 1 w 8   $ g g g . X.=.  N N N N N N N N N N N N N N N ",
"N N N N N N N N N N N N N N   [ =.. g g g g   u 4 0 w 1 u ; u 3 0 y ; Z ; y 4 9   $ g g g . X.=.  N N N N N N N N N N N N N N N ",
"N N N N N N N N N N N N N N   ) @.. g g g g   5 9 4 8 w 3 t 4 w 9 4 y , b , t 4   $ g g g . X.=.  N N N N N N N N N N N N N N N ",
"N N N N N N N N N N N N N N   ) =.. g g g g   8 8 8 4 9 9 9 0 4 4 9 4 t 1 u 3 0   $ g g g . X.+.  N N N N N N N N N N N N N N N ",
"N N N N N N N N N N N N N N   ) =.. g g g g   t 4 8 w 1 y 3 w 4 4 9 8 4 w 4 w 4   $ g g g . X.+.  N N N N N N N N N N N N N N N ",
"N N N N N N N N N N N N N N   ' =.. g g g g   < w 0 1 k ; b 3 0 9 1 w 4 0 9 5 9   $ g g g . X.=.  N N N N N N N N N N N N N N N ",
"N N N N N N N N N N N N N N   ) =.. g g g g   y 4 9 u - Z ; y 4 8 t ; u 1 t 8 8   $ g g g . X.@.  N N N N N N N N N N N N N N N ",
"N N N N N N N N N N N N N N   _ =.. g g g g   4 0 w 3 u ; u 3 w w < b & b < w 4   $ g g g . X.=.  N N N N N N N N N N N N N N N ",
"N N N N N N N N N N N N N N   ' =.. g g g g   0 9 4 w 4 t 4 w 8 8 t , b ; u 3 0   $ g g g . X.+.  N N N N N N N N N N N N N N N ",
"N N N N N N N N N N N N N N   _ =.. g g g g   9 8 8 8 0 9 0 4 8 9 4 t 3 u 3 t 8   $ g g g . X.=.  N N N N N N N N N N N N N N N ",
"N N N N N N N N N N N N N N   ) =.. g g g g                                       % g g g . X.=.  N N N N N N N N N N N N N N N ",
"N N N N N N N N N N N N N N   _ =.. g g g g g g g g g g g g g g g g g g g g g g g g g g g . X.=.  N N N N N N N N N N N N N N N ",
"N N N N N N N N N N N N N N   ) =.. g g g g g g g g g g g g g g g g g g g g g g # o o o $ . X.=.  N N N N N N N N N N N N N N N ",
"N N N N N N N N N N N N N N   ) =.. g g g g g g g g g g g g g g g g g g g g g g + S S S O . X.=.  N N N N N N N N N N N N N N N ",
"N N N N N N N N N N N N N N   ) =.. g g g g g g g g g g g g g g g g g g g g g g * * * S O . X.=.  N N N N N N N N N N N N N N N ",
"N N N N N N N N N N N N N N   ) =.. g g g g g g g g g g g g g g g g g g g g g * H C B * O . X.=.  N N N N N N N N N N N N N N N ",
"N N N N N N N N N N N N N N   [ =.. g g g g g g g g g g g g g g g g g g g g g * H H H > O . X.=.  N N N N N N N N N N N N N N N ",
"N N N N N N N N N N N N N N   [ =.. g g g g g g g g g g g g g g g g g g g g g * H H H > O . X.=.  N N N N N N N N N N N N N N N ",
"N N N N N N N N N N N N N N   _ =.. g g g g g g g g g g g g g g g g g g g g g g * , , S O . X.+.  N N N N N N N N N N N N N N N ",
"N N N N N N N N N N N N N N   ) =.. g g g g g g g g g g g g g g g g g g g g g g @ S S S O . X.#.  N N N N N N N N N N N N N N N ",
"N N N N N N N N N N N N N N   [ =.. g g g g g g g g g g g g g g g g g g g g g g @ S S S O . X.#.  N N N N N N N N N N N N N N N ",
"N N N N N N N N N N N N N N   [ =.. g g g g g g g g g g g g g g g g g g g g g g # o o o $ . X.=.  N N N N N N N N N N N N N N N ",
"N N N N N N N N N N N N N N   ) =.. g g g g g g g g g g g g g g g g g g g g g g g g g g g . X.=.  N N N N N N N N N N N N N N N ",
"N N N N N N N N N N N N N N   ) =.. g g g g g g g g g g g g g g g g g g g g g g g g g g g . X.=.  N N N N N N N N N N N N N N N ",
"N N N N N N N N N N N N N N   [ =.. g g g g g g g g g g g g g g g g g g g g g g g g g g g . X.=.  N N N N N N N N N N N N N N N ",
"N N N N N N N N N N N N N N   ' =.. g g g g g g g g g g g g g g g g g g g g g g g g g g g . X.=.  N N N N N N N N N N N N N N N ",
"N N N N N N N N N N N N N N   [ =.. g g g g g g g g g g g g g g g g g g g g g g g g g g g . X.=.  N N N N N N N N N N N N N N N ",
"N N N N N N N N N N N N N N   [ =.. g g g g g g g g g g g g g g g g g g g g g g g g g g g . X.=.  N N N N N N N N N N N N N N N ",
"N N N N N N N N N N N N N N   ) =.. g g g g g g g g g g g g g g g g g g g g g g g g g g g . X.=.  N N N N N N N N N N N N N N N ",
"N N N N N N N N N N N N N N   [ =.. g g g g g g g g g g g g g g g g g g g g g g g g g g g . X.=.  N N N N N N N N N N N N N N N ",
"N N N N N N N N N N N N N N   ) =.. d d d d d d d d d d d d d d d d d d d d d d d d d d d . X.=.  N N N N N N N N N N N N N N N ",
"N N N N N N N N N N N N N N   ) =.= 7 2 7 6 2 6 4 6 2 2 2 7 2 7 2 7 6 6 6 6 7 2 2 2 6 7 7 X X.=.  N N N N N N N N N N N N N N N ",
"N N N N N N N N N N N N N N   ' #.2 H H H H H H H H H H H H H H H H H H H H H H H H H H H ; X.+.  N N N N N N N N N N N N N N N ",
"N N N N N N N N N N N N N N   ) #.2 H H H H H H H H H H H H H H H H H H H H H H H H H H H - X.=.  N N N N N N N N N N N N N N N ",
"N N N N N N N N N N N N N N   ) #.2 H H H H H H H H H H H H H H H H H H H H H H H H H H H ; X.+.  N N N N N N N N N N N N N N N ",
"N N N N N N N N N N N N N N   ) =.2 H H H H H H H H H H H H H H H H H H H H H H H H H H H ; X.+.  N N N N N N N N N N N N N N N ",
"N N N N N N N N N N N N N N   ) =.2 H H H H H H H H H H H H H H H H H H H H H H H H H H H ; X.@.  N N N N N N N N N N N N N N N ",
"N N N N N N N N N N N N N N   ) #.2 H H H H H H H H H H H H H H H H H H H H H H H H H H H ; X.+.  N N N N N N N N N N N N N N N ",
"N N N N N N N N N N N N N N   ) =.2 H H H H H H H H H H H H H H H H H H H H H H H H H H H ; X.+.  N N N N N N N N N N N N N N N ",
"N N N N N N N N N N N N N N   ) =.2 H H H H H H H H H H H H H H H H H H H H H H H H H H H ; X.@.  N N N N N N N N N N N N N N N ",
"r r r r r r r r r r r r r r   _ =.2 H H H H H H H H H H H H H H H H H H H H H H H H H H H ; X.+.  r r r r r r r r r r r r r r r ",
"^ ^ ^ ^ ^ ^ ^ ^ ^ ^ ^ ^ ^ r   q e 9 q q q q q q q q q q q q q q q q q q q q q q q q q q q 9 e e   r ^ ^ ^ ^ ^ ^ ^ ^ ^ ^ ^ ^ ^ ^ "
};
