/* XPM */
static char *_c4d6d1d7073415d9ba4330bef994afaEPSk5Rab1Adu0VHz[] = {
/* columns rows colors chars-per-pixel */
"64 64 233 2 ",
"   c white",
".  c gray4",
"X  c #878D87",
"o  c #969C96",
"O  c #969B96",
"+  c black",
"@  c #999F99",
"#  c #AAB0AA",
"$  c #A9AFA8",
"%  c #C99820",
"&  c #0D0A02",
"*  c #9BA29B",
"=  c #ADB3AD",
"-  c #4B422B",
";  c #4B412A",
":  c #A9B0A9",
">  c #0F0C02",
",  c #2D1F03",
"<  c #664922",
"1  c #A7AEA7",
"2  c #080601",
"3  c #9CA29C",
"4  c #825D31",
"5  c #433019",
"6  c #262725",
"7  c #222422",
"8  c #212421",
"9  c #1F211F",
"0  c #262826",
"q  c #272927",
"w  c #202220",
"e  c #242724",
"r  c #1E201E",
"t  c #7D5A30",
"y  c #5E635E",
"u  c #5D625C",
"i  c #595E59",
"p  c #575D57",
"a  c #545953",
"s  c #636863",
"d  c #555A54",
"f  c #666B66",
"g  c #565B56",
"h  c #606560",
"j  c #555B55",
"k  c #5F655F",
"l  c #525853",
"z  c #76562E",
"x  c #5F6460",
"c  c #666B65",
"v  c #626762",
"b  c #5E645E",
"n  c #606660",
"m  c #646963",
"M  c #666A65",
"N  c #656A65",
"B  c #636963",
"V  c #646964",
"C  c #656A64",
"Z  c #717671",
"A  c #676C66",
"S  c #616661",
"D  c #6A6F6A",
"F  c #595F59",
"G  c #737772",
"H  c #5D635F",
"J  c #6B706B",
"K  c #6D736E",
"L  c #5B605A",
"P  c #5D635D",
"I  c #6D726D",
"U  c #7C817D",
"Y  c #4D534E",
"T  c #7A7F7B",
"R  c #686D67",
"E  c #595E58",
"W  c #797F7A",
"Q  c #757A75",
"!  c #595F5B",
"~  c #727772",
"^  c #5B615D",
"/  c #6C716C",
"(  c #4A5049",
")  c #797E7A",
"_  c #545A55",
"`  c #6F756F",
"'  c #5A5F59",
"]  c #6B716C",
"[  c #5E645F",
"{  c #6E736E",
"}  c #5C625C",
"|  c #747974",
" . c #6F746F",
".. c #737873",
"X. c #757A76",
"o. c #707570",
"O. c #626862",
"+. c #656B66",
"@. c #646A64",
"#. c #606662",
"$. c #696E69",
"%. c #ACB2AC",
"&. c #9BA29C",
"*. c #6E736D",
"=. c #676C67",
"-. c #686D68",
";. c #616761",
":. c #666B67",
">. c #ACB2AB",
",. c #5F6560",
"<. c #5F645F",
"1. c #5D625E",
"2. c #6B706A",
"3. c #636862",
"4. c #ADB3AC",
"5. c #656A66",
"6. c #666C67",
"7. c #696F6B",
"8. c #626863",
"9. c #6A706B",
"0. c #616762",
"q. c #646965",
"w. c #676D67",
"e. c #626761",
"r. c #696F6A",
"t. c #666C68",
"y. c #9CA29B",
"u. c #717570",
"i. c #6F746E",
"p. c #585D58",
"a. c #707571",
"s. c #5A605B",
"d. c #60655F",
"f. c #747873",
"g. c #5C615B",
"h. c #5C625E",
"j. c #535954",
"k. c #787D78",
"l. c #5A605C",
"z. c #545954",
"x. c #777B76",
"c. c #ABB2AB",
"v. c #5B605B",
"b. c #767B77",
"n. c #696E68",
"m. c #6F736E",
"M. c #5B605C",
"N. c #6A6F69",
"B. c #70756F",
"V. c #616660",
"C. c #666C66",
"Z. c #606661",
"A. c #646A65",
"S. c #6A6F6B",
"D. c #636964",
"F. c #636864",
"G. c #6E736F",
"H. c #444744",
"J. c #414541",
"K. c #464945",
"L. c #3E433E",
"P. c #4C4F4C",
"I. c #3C403D",
"U. c #515350",
"Y. c #79582F",
"T. c #1E160B",
"R. c #805B30",
"E. c #7F5B30",
"W. c #805C31",
"Q. c #6C4F2D",
"!. c #5D4930",
"~. c #75552E",
"^. c #504739",
"/. c #808681",
"(. c #5A492F",
"). c #4C4B45",
"_. c #535550",
"`. c #828985",
"'. c #59482F",
"]. c #585042",
"[. c #7B8486",
"{. c #737B7C",
"}. c #6C7373",
"|. c #585A56",
" X c #4B4C47",
".X c #8A9599",
"XX c #869195",
"oX c #838E91",
"OX c #4C504E",
"+X c #4D5251",
"@X c #66543C",
"#X c #6B7271",
"$X c #6E7777",
"%X c #676D6A",
"&X c #ACB3AC",
"*X c #4E4C43",
"=X c #646B66",
"-X c #524B3D",
";X c #ABB2AC",
":X c #574C3A",
">X c #7A7B73",
",X c #5F4B2F",
"<X c #6F512D",
"1X c #5F492D",
"2X c #77572E",
"3X c #31260F",
"4X c #7B5E39",
"5X c #7B5D39",
"6X c #7C5E39",
"7X c #2E230C",
"8X c #474B4A",
"9X c #5D6464",
"0X c #5B6162",
"qX c #5C6364",
"wX c #363B38",
"eX c #575D5D",
"rX c #899498",
"tX c #4C524D",
"yX c #8B9699",
"uX c #4A4F4A",
"iX c #4C514C",
"pX c #ACB3AD",
"aX c #6B7A7B",
"sX c #959B94",
"dX c #A5AAA4",
"fX c #595F5E",
"gX c #869092",
"hX c #505550",
"jX c #9FA59F",
"kX c #A3A9A2",
"lX c #8AA09D",
"zX c #6B6E69",
"xX c #71716B",
/* pixels */
"                            . X o o o o o o o o o o o o o o o o o o o o o o o o o o O o o o o O +                               ",
"+ + + + + + + + + + + + + + + @ # # # # # # # # # # # # # # # # # # # # # # # $ # # # # # # # # + + + + + + + + + + + + + + + + ",
"% % % % % % % % % % % % % % & * = - - - - - - - - - - - - - - - - - - - - - - ; - - - - - - : = + % % % % % % % % % % % % % % % ",
"% % % % % % % % % % % % % % > * = , < < < < < < < < < < < < < < < < < < < < < < < < < < < , 1 = + % % % % % % % % % % % % % % % ",
"% % % % % % % % % % % % % % 2 3 = , 4 4 4 4 4 4 4 4 4 4 4 4 4 4 4 4 4 4 4 4 4 4 4 4 4 4 4 , 1 = + % % % % % % % % % % % % % % % ",
"% % % % % % % % % % % % % % + 3 = , 4 4 4 4 5 5 5 5 5 5 5 5 5 5 5 5 5 5 5 5 5 5 5 4 4 4 4 , 1 = + % % % % % % % % % % % % % % % ",
"% % % % % % % % % % % % % % + * = , 4 4 4 4 + 6 7 8 8 8 9 0 9 q w 6 8 w e r 0 8 + t 4 4 4 , 1 = + % % % % % % % % % % % % % % % ",
"% % % % % % % % % % % % % % + * = , 4 4 4 4 + y u i p i a s d f g h i j k l s i + z 4 4 4 , 1 = + % % % % % % % % % % % % % % % ",
"% % % % % % % % % % % % % % + * = , 4 4 4 4 + x c v b h n m M N s h h k B V C s + z 4 4 4 , 1 = + % % % % % % % % % % % % % % % ",
"% % % % % % % % % % % % % % + * = , 4 4 4 4 + Z k A S k D F G H J b b c n K L J + z 4 4 4 , 1 = + % % % % % % % % % % % % % % % ",
"% % % % % % % % % % % % % % + * = , 4 4 4 4 + l Z P N I l U Y T P N R E W l Q ! + z 4 4 4 , 1 = + % % % % % % % % % % % % % % % ",
"% % % % % % % % % % % % % % + * = , 4 4 4 4 + ~ ^ / N b T ( ) _ ` S b T ( T ' ] + z 4 4 4 , 1 = + % % % % % % % % % % % % % % % ",
"% % % % % % % % % % % % % % + * = , 4 4 4 4 + [ I s N { } | _  .n V .._ X._ o.n + z 4 4 4 , 1 = + % % % % % % % % % % % % % % % ",
"% % % % % % % % % % % % % % + * = , 4 4 4 4 + V N V N O.D +.D B C A @./ n / #.$.+ z 4 4 4 , 1 %.+ % % % % % % % % % % % % % % % ",
"% % % % % % % % % % % % % % + &.= , 4 4 4 4 + *.S v v h =.m -.m ;.m m A =.A :.s + z 4 4 4 , 1 >.+ % % % % % % % % % % % % % % % ",
"% % % % % % % % % % % % % % + * = , 4 4 4 4 + ,.D h <.-.1. .<.2.P h R ;.D 3.f ;.+ z 4 4 4 , 1 4.+ % % % % % % % % % % % % % % % ",
"% % % % % % % % % % % % % % + * = , 4 4 4 4 + 5.6.c @.O.7.8.9.f S c 0./ ;.D S ;.+ z 4 4 4 , 1 = + % % % % % % % % % % % % % % % ",
"% % % % % % % % % % % % % % + * = , 4 4 4 4 + J q.w.$.e.J <.r.f v w.t.6.A N N b + z 4 4 4 , 1 = + % % % % % % % % % % % % % % % ",
"% % % % % % % % % % % % % % + y.= , 4 4 4 4 + g u.n V i.g ~ p.{ n B a.s./ d.$.v + z 4 4 4 , 1 = + % % % % % % % % % % % % % % % ",
"% % % % % % % % % % % % % % + 3 = , 4 4 4 4 + f.b c J g.G l ..h.=.Z j.k._  .n V + z 4 4 4 , 1 = + % % % % % % % % % % % % % % % ",
"% % % % % % % % % % % % % % + * >., 4 4 4 4 + d.N P S / l.o.b / V b ..z.T _  .b + z 4 4 4 , 1 = + % % % % % % % % % % % % % % % ",
"% % % % % % % % % % % % % % + * = , 4 4 4 4 + S S S P N N N R P P N P Z E x.! R + z 4 4 4 , 1 c.+ % % % % % % % % % % % % % % % ",
"% % % % % % % % % % % % % % + * = , 4 4 4 4 +  .P S J i ..l./ P P N S k J n J b + z 4 4 4 , 1 c.+ % % % % % % % % % % % % % % % ",
"% % % % % % % % % % % % % % + &.= , 4 4 4 4 + v.D A g.| _ b.H c B L J P n.B 3.B + z 4 4 4 , 1 = + % % % % % % % % % % % % % % % ",
"% % % % % % % % % % % % % % + * = , 4 4 4 4 + / v f m.i Z M.I n v N.g B.u I V.v + z 4 4 4 , 1 %.+ % % % % % % % % % % % % % % % ",
"% % % % % % % % % % % % % % + y.= , 4 4 4 4 + C.m D 5.M Z.=.A.=.-.n S.'  .n -.<.+ z 4 4 4 , 1 4.+ % % % % % % % % % % % % % % % ",
"% % % % % % % % % % % % % % + &.= , 4 4 4 4 + 3.f N D.D ,.D D.=.=.B 6.O.q.=.F.3.+ z 4 4 4 , 1 %.+ % % % % % % % % % % % % % % % ",
"% % % % % % % % % % % % % % + &.= , 4 4 4 4 + A s <.-.e./ e.C.S s $.<.G.<.J D.C + z 4 4 4 , 1 %.+ % % % % % % % % % % % % % % % ",
"% % % % % % % % % % % % % % + y.= , 4 4 4 4 + H.J.J.J.K.H.K.L.J.H.L.P.I.U.I.P.J.+ Y.4 4 4 , 1 = + % % % % % % % % % % % % % % % ",
"% % % % % % % % % % % % % % + * = , 4 4 4 4 T.T.T.T.T.T.T.T.T.T.T.T.T.T.T.T.T.T.T.R.4 4 4 , 1 = + % % % % % % % % % % % % % % % ",
"% % % % % % % % % % % % % % + y.= , 4 4 4 4 4 4 4 4 4 4 4 4 4 4 4 4 4 4 4 4 4 4 E.t t t W., 1 = + % % % % % % % % % % % % % % % ",
"% % % % % % % % % % % % % % + * = , 4 4 4 4 4 4 4 4 4 4 4 4 4 4 4 4 4 4 4 4 4 4 Q.!.!.!.~., 1 = + % % % % % % % % % % % % % % % ",
"% % % % % % % % % % % % % % + * = , 4 4 4 4 4 4 4 4 4 4 4 4 4 4 4 4 4 4 4 4 4 4 ^./././.(., 1 = + % % % % % % % % % % % % % % % ",
"% % % % % % % % % % % % % % + * = , 4 4 4 4 4 4 4 4 4 4 4 4 4 4 4 4 4 4 4 4 4 4 )._._.`.'., 1 = + % % % % % % % % % % % % % % % ",
"% % % % % % % % % % % % % % + * = , 4 4 4 4 4 4 4 4 4 4 4 4 4 4 4 4 4 4 4 4 4 ].[.{.}.|.'., 1 = + % % % % % % % % % % % % % % % ",
"% % % % % % % % % % % % % % + 3 = , 4 4 4 4 4 4 4 4 4 4 4 4 4 4 4 4 4 4 4 4 4  X.XXXoXOX'., 1 = + % % % % % % % % % % % % % % % ",
"% % % % % % % % % % % % % % + 3 = , 4 4 4 4 4 4 4 4 4 4 4 4 4 4 4 4 4 4 4 4 4  X.X.X.X+X'., 1 = + % % % % % % % % % % % % % % % ",
"% % % % % % % % % % % % % % + 3 = , 4 4 4 4 4 4 4 4 4 4 4 4 4 4 4 4 4 4 4 4 4 @X#X$X$X%X'., 1 &X+ % % % % % % % % % % % % % % % ",
"% % % % % % % % % % % % % % + y.= , 4 4 4 4 4 4 4 4 4 4 4 4 4 4 4 4 4 4 4 4 4 4 *X=X=X`.'., 1 c.+ % % % % % % % % % % % % % % % ",
"% % % % % % % % % % % % % % + * = , 4 4 4 4 4 4 4 4 4 4 4 4 4 4 4 4 4 4 4 4 4 4 -X`.`.`.'., 1 ;X+ % % % % % % % % % % % % % % % ",
"% % % % % % % % % % % % % % + 3 = , 4 4 4 4 4 4 4 4 4 4 4 4 4 4 4 4 4 4 4 4 4 4 :X>X>X>X,X, 1 ;X+ % % % % % % % % % % % % % % % ",
"% % % % % % % % % % % % % % + 3 = , 4 4 4 4 4 4 4 4 4 4 4 4 4 4 4 4 4 4 4 4 4 4 <X1X1X1X2X, 1 = + % % % % % % % % % % % % % % % ",
"% % % % % % % % % % % % % % + * = , 4 4 4 4 4 4 4 4 4 4 4 4 4 4 4 4 4 4 4 4 4 4 4 4 4 4 4 , 1 = + % % % % % % % % % % % % % % % ",
"% % % % % % % % % % % % % % + * = , 4 4 4 4 4 4 4 4 4 4 4 4 4 4 4 4 4 4 4 4 4 4 4 4 4 4 4 , 1 = + % % % % % % % % % % % % % % % ",
"% % % % % % % % % % % % % % + 3 = , 4 4 4 4 4 4 4 4 4 4 4 4 4 4 4 4 4 4 4 4 4 4 4 4 4 4 4 , 1 = + % % % % % % % % % % % % % % % ",
"% % % % % % % % % % % % % % + &.= , 4 4 4 4 4 4 4 4 4 4 4 4 4 4 4 4 4 4 4 4 4 4 4 4 4 4 4 , 1 = + % % % % % % % % % % % % % % % ",
"% % % % % % % % % % % % % % + 3 = , 4 4 4 4 4 4 4 4 4 4 4 4 4 4 4 4 4 4 4 4 4 4 4 4 4 4 4 , 1 = + % % % % % % % % % % % % % % % ",
"% % % % % % % % % % % % % % + 3 = , 4 4 4 4 4 4 4 4 4 4 4 4 4 4 4 4 4 4 4 4 4 4 4 4 4 4 4 , 1 = + % % % % % % % % % % % % % % % ",
"% % % % % % % % % % % % % % + 3 = , 4 4 4 4 4 4 4 4 4 4 4 4 4 4 4 4 4 4 4 4 4 4 4 4 4 4 4 , 1 = + % % % % % % % % % % % % % % % ",
"% % % % % % % % % % % % % % + * = , 4 4 4 4 4 4 4 4 4 4 4 4 4 4 4 4 4 4 4 4 4 4 4 4 4 4 4 , 1 = + % % % % % % % % % % % % % % % ",
"% % % % % % % % % % % % % % + 3 = , 4 4 4 4 4 4 4 4 4 4 4 4 4 4 4 4 4 4 4 4 4 4 4 4 4 4 4 , 1 = + % % % % % % % % % % % % % % % ",
"% % % % % % % % % % % % % % + * = 3X4X5X4X5X5X5X6X5X5X5X5X4X5X4X5X4X5X5X5X5X4X5X5X5X5X4X4X7X1 = + % % % % % % % % % % % % % % % ",
"% % % % % % % % % % % % % % + * = 8X9X0X9XqX0XqX0.qX0X0X0X9X0X9X0X9XqXqXqXqX9X0X0X0XqX9X9XwX1 = + % % % % % % % % % % % % % % % ",
"% % % % % % % % % % % % % % + &.;XeXrXrXrXrXrXrXrXrXrXrXrXrXrXrXrXrXrXrXrXrXrXrXrXrXrXrXrXtX1 c.+ % % % % % % % % % % % % % % % ",
"% % % % % % % % % % % % % % + * ;XeX.X.X.X.X.X.XyX.X.X.X.X.X.X.X.X.X.X.X.X.X.X.X.X.X.X.X.XuX1 = + % % % % % % % % % % % % % % % ",
"% % % % % % % % % % % % % % + * ;XeX.X.X.X.X.X.X.X.X.X.X.X.X.X.X.X.X.X.X.X.X.X.X.X.X.X.X.XiX1 c.+ % % % % % % % % % % % % % % % ",
"% % % % % % % % % % % % % % + * pXeX.X.X.X.X.X.X.X.X.X.X.X.X.X.X.X.X.XyX.X.X.X.X.X.X.X.X.XtX1 c.+ % % % % % % % % % % % % % % % ",
"% % % % % % % % % % % % % % + * = eX.X.X.X.X.X.X.X.X.X.X.X.X.X.X.X.X.X.X.X.X.X.X.X.X.X.X.XtX1 >.+ % % % % % % % % % % % % % % % ",
"% % % % % % % % % % % % % % + * %.eX.X.X.X.X.X.X.X.X.X.X.X.X.X.X.X.X.X.X.X.X.X.X.X.X.X.X.XtX1 c.+ % % % % % % % % % % % % % % % ",
"% % % % % % % % % % % % % % + * %.eX.X.X.X.X.X.X.X.X.X.X.X.X.X.X.X.X.X.X.X.X.X.X.X.X.X.X.XtX1 c.+ % % % % % % % % % % % % % % % ",
"% % % % % % % % % % % % % % + * = eX.X.X.X.X.X.X.X.X.X.X.X.X.X.X.X.X.X.X.X.X.X.X.X.X.X.X.XtX1 c.+ % % % % % % % % % % % % % % % ",
"% % % % % % % % % % % % % % + * = eX.X.X.X.X.X.X.X.X.X.X.X.X.X.X.X.X.X.X.X.X.X.X.X.X.X.X.XtX1 >.+ % % % % % % % % % % % % % % % ",
"aXaXaXaXaXaXaXaXaXaXaXaXaXaX+ sXdXfXgXgXgXgXgXgXgXgXgXgXgXgXgXgXgXgXgXgXgXgXgXgXgXgXgXgXgXhXjXkX+ aXaXaXaXaXaXaXaXaXaXaXaXaXaXaX",
"lXlXlXlXlXlXlXlXlXlXlXlXlXaX+ zXxXN zXzXzXzXzXzXzXzXzXzXzXzXzXzXzXzXzXzXzXzXzXzXzXzXzXzXzXN xXxX+ aXlXlXlXlXlXlXlXlXlXlXlXlXlXlX"
};
