/* XPM */
static char *b6acbc19761e43949dfd531c6945333dijQ3c1D9mIxEgQkl[] = {
/* columns rows colors chars-per-pixel */
"64 64 178 2 ",
"   c white",
".  c gray92",
"X  c gray19",
"o  c #6F6F6F",
"O  c black",
"+  c gray16",
"@  c gray59",
"#  c #C99820",
"$  c #43330B",
"%  c #271E06",
"&  c #947018",
"*  c #A07919",
"=  c #332708",
"-  c #4B390C",
";  c #BB8D1E",
":  c #836315",
">  c #100C03",
",  c #1C1505",
"<  c #090702",
"1  c #926E17",
"2  c #765913",
"3  c #4C390C",
"4  c #312508",
"5  c #261D06",
"6  c #2C2107",
"7  c #9B7519",
"8  c #271D06",
"9  c #B5891D",
"0  c #513D0D",
"q  c #151003",
"w  c #8E6B17",
"e  c #322608",
"r  c #846415",
"t  c #130E03",
"y  c #BC8E1E",
"u  c #3A2C09",
"i  c #231A06",
"p  c #221A05",
"a  c #A9801B",
"s  c #654C10",
"d  c #2A2007",
"f  c #2D2207",
"g  c #715512",
"h  c #56410E",
"j  c #45340B",
"k  c #140F03",
"l  c #42320B",
"z  c #7D5E14",
"x  c #181204",
"c  c #866515",
"v  c #AE841C",
"b  c #251C06",
"n  c #B0851C",
"m  c #1E1705",
"M  c #44330B",
"N  c #2F2408",
"B  c #B68A1D",
"V  c #362909",
"C  c #1D1605",
"Z  c #5A440E",
"A  c #2B2007",
"S  c #231B06",
"D  c #6A5011",
"F  c #9D7719",
"G  c #2B2107",
"H  c #6E5312",
"J  c #816215",
"K  c #3D2E0A",
"L  c #191304",
"P  c #A67E1A",
"I  c #533F0D",
"U  c #54400D",
"Y  c #030301",
"T  c #AC821B",
"R  c #171104",
"E  c #61490F",
"W  c #705512",
"Q  c #8B6916",
"!  c #0C0902",
"~  c #674E10",
"^  c #201805",
"/  c #BD8F1E",
"(  c #C4941F",
")  c #0B0802",
"_  c #886716",
"`  c #6D5211",
"'  c #0D0A02",
"]  c #5D460F",
"[  c #211905",
"{  c #AD831B",
"}  c #7A5C13",
"|  c #281E06",
" . c #916E17",
".. c #4D3A0C",
"X. c #40300A",
"o. c #4C3A0C",
"O. c #291F07",
"+. c #BA8D1E",
"@. c #AB811B",
"#. c #382A09",
"$. c #856515",
"%. c #241B06",
"&. c #C3931F",
"*. c #302408",
"=. c #725612",
"-. c #1B1404",
";. c #060501",
":. c #B4881D",
">. c #896816",
",. c #5F480F",
"<. c #080601",
"1. c #5E470F",
"2. c #55400E",
"3. c #B88B1D",
"4. c #120E03",
"5. c #3E2F0A",
"6. c #8D6B16",
"7. c #745812",
"8. c #543F0D",
"9. c #806114",
"0. c #57420E",
"q. c #5B450F",
"w. c #9A7418",
"e. c #1F1805",
"r. c #9A7519",
"t. c #49370C",
"y. c #B78A1D",
"u. c #7D5F14",
"i. c #48360B",
"p. c #957118",
"a. c #59430E",
"s. c #3C2D0A",
"d. c #503D0D",
"f. c #41310A",
"g. c #8F6C17",
"h. c #B3871C",
"j. c #634B10",
"k. c #020100",
"l. c #A67D1A",
"z. c #A77E1B",
"x. c #6C5211",
"c. c #826215",
"v. c #A47C1A",
"b. c #C0911F",
"n. c #060401",
"m. c #2E2307",
"M. c #624A10",
"N. c #1F1705",
"B. c #735712",
"V. c #664D10",
"C. c #392B09",
"Z. c #3B2D09",
"A. c #4E3B0C",
"S. c #503C0D",
"D. c #A37B1A",
"F. c #9E7719",
"G. c #6E5311",
"H. c #0F0B02",
"J. c #1C1504",
"K. c #B98C1D",
"L. c #B1861C",
"P. c #070501",
"I. c #9C7619",
"U. c #352808",
"Y. c #7E5F14",
"T. c #4A380C",
"R. c #967118",
"E. c #6B7A7B",
"W. c #262C2C",
"Q. c #465051",
"!. c #6F725F",
"~. c #637172",
"^. c #1B1F1F",
"/. c #1E2223",
"(. c #8AA09D",
"). c #879C99",
"_. c #161919",
"`. c #3A4342",
/* pixels */
"      . X o         O O O O O O O O O O O O O O O O O O O O O O O O O O O O O O O O O O O O O O O O O O O         + @           ",
"O O O O O O O O O O O O O O O O O O O O O O O O O O O O O O O O O O O O O O O O O O O O O O O O O O O O O O O O O O O O O O O O ",
"# # # # # # $ % & # O O O O O O O O O O O O O O O O O O O O O O O O O O O O O O O O O O O O O O O O O O O # # # # # # # # # # # ",
"# # # # # # # * = - O O O O O O O O O O O O O O O O O O O O O O O O O O O O O O O O O O O O O O O O O O O ; # # # # # # # # # : ",
"# # # # # # # # # # O O O O O O O O O O O O O O O O O O O O O O O O O O O O O O O O O O O O O O O O O O O > # # # # # # # # # , ",
"# # # # # # # # # # O O O O O O O O O O O O O O O O O O O O O O O O O O O O O O O O O O O O O O O O O O O < 1 # # # # # # # 2 3 ",
"# # # # # # # # # # O O O O O O O O O O O O O O O O O O O O O O O O O O O O O O O O O O O O O O O O O O O 4 5 # # # # # # # 6 7 ",
"# 8 9 # # # # # # # O O O O O O O O O O O O O O O O O O O O O O O O O O O O O O O O O O O O O O O O O O O 0 q # # # # # # w e # ",
"# r t y # # # # # # O O O O O O O O O O O O O O O O O O O O O O O O O O O O O O O O O O O O O O O O O O O u i # # # # # # p a # ",
"# # s 8 # # # # # # O O O O O O O O O O O O O O O O O O O O O O O O O O O O O O O O O O O O O O O O O O O d f # # # # 9 5 g # # ",
"# # # h j # # # # # O O O O O O O O O O O O O O O O O O O O O O O O O O O O O O O O O O O O O O O O O O O k l # # # z x c # # v ",
"# # # # b n # # # # O O O O O O O O O O O O O O O O O O O O O O O O O O O O O O O O O O O O O O O O O O O m l # # M N B # V C V ",
"# # # # z j # # # # O O O O O O O O O O O O O O O O O O O O O O O O O O O O O O O O O O O O O O O O O O O Z A # S D # # # F # # ",
"# # # # # d G H J c O O O O O O O O O O O O O O O O O O O O O O O O O O O O O O O O O O O O O O O O O O O K x L r # # # # # # # ",
"# # # # # # P I - U O O O O O O O O O O O O O O O O O O O O O O O O O O O O O O O O O O O O O O O O O O O L Y T # # # # # # # # ",
"# # # # # # # # # # O O O O O O O O O O O O O O O O O O O O O O O O O O O O O O O O O O O O O O O O O O O k R # # # # # # # # # ",
"# # # # # # # # E W O O O O O O O O O O O O O O O O O O O O O O O O O O O O O O O O O O O O O O O O O O O Q ! # # # # # # # # # ",
"# # # # # # # ~ ^ / O O O O O O O O O O O O O O O O O O O O O O O O O O O O O O O O O O O O O O O O O O O ( ) # # # # # # # # F ",
"# # # # # _ % u # # O O O O O O O O O O O O O O O O O O O O O O O O O O O O O O O O O O O O O O O O O O O ` ' # # # # # # # v p ",
"# # # # ] [ { # # # O O O O O O O O O O O O O O O O O O O O O O O O O O O O O O O O O O O O O O O O O O O K ^ # # # # # # # 5 P ",
"# # # } | # # # #  .O O O O O O O O O O O O O O O O O O O O O O O O O O O O O O O O O O O O O O O O O O O R ..# # # # # # W X.# ",
"# # o.O.+.# # @.x #.O O O O O O O O O O O O O O O O O O O O O O O O O O O O O O O O O O O O O O O O O O O ' $.# # # # # # %.# # ",
"&.*.j # # # # =.-.) O O O O O O O O O O O O O O O O O O O O O O O O O O O O O O O O O O O O O O O O O O O ;.# # # # # # :.S # # ",
"^ >.# # # # # ,.> k O O O O O O O O O O O O O O O O O O O O O O O O O O O O O O O O O O O O O O O O O O O <.# # # # # # 1.2.# 3.",
"# # # # # # # # 4.) O O O O O O O O O O O O O O O O O O O O O O O O O O O O O O O O O O O O O O O O O O O k # # # # # # G :.# 5.",
"# # # # # # # # 6.8 O O O O O O O O O O O O O O O O O O O O O O O O O O O O O O O O O O O O O O O O O O O 7.# # # # # # b # # q ",
"# # # # # # # # # b O O O O O O O O O O O O O O O O O O O O O O O O O O O O O O O O O O O O O O O O O O O # # # # # # 7.8.# 9.K ",
"# # # # # # # # # 0.O O O O O O O O O O O O O O O O O O O O O O O O O O O O O O O O O O O O O O O O O O O # # # # # # H q.+.^ B ",
"# # # # # a Z # # # O O O O O O O O O O O O O O O O O O O O O O O O O O O O O O O O O O O O O O O O O O O # # # # # # w.e.^ 2 # ",
"# # # # # # ^ v # # O O O O O O O O O O O O O O O O O O O O O O O O O O O O O O O O O O O O O O O O O O O # # # # # # r.i P # # ",
"# # # # # # P | # # O O O O O O O O O O O O O O O O O O O O O O O O O O O O O O O O O O O O O O O O O O O # # # # # t.| y.# # # ",
"# # # # # # # O.u.# O O O O O O O O O O O O O O O O O O O O O O O O O O O O O O O O O O O O O O O O O O O # # # ; G i.# # # # # ",
"3 # # # # # # p.e # O O O O O O O O O O O O O O O O O O O O O O O O O O O O O O O O O O O O O O O O O O O # # a.i p.# # # # # # ",
"s.X.# # # # # # C :.O O O O O O O O O O O O O O O O O O O O O O O O O O O O O O O O O O O O O O O O O O O # 8 d.# # # # # # # # ",
"# d.S { # # # @.%.i O O O O O O O O O O O O O O O O O O O O O O O O O O O O O O O O O O O O O O O O O O O >.*.# # # # # # # # # ",
"# # a ^ f.# # g.N 9.O O O O O O O O O O O O O O O O O O O O O O O O O O O O O O O O O O O O O O O O O O O h.1.# # # # # # # # # ",
"# # # # q.%.U n O.- O O O O O O O O O O O O O O O O O O O O O O O O O O O O O O O O O O O O O O O O O O O # # # # # # # # # # # ",
"# # # # # / j.= ) k.O O O O O O O O O O O O O O O O O O O O O O O O O O O O O O O O O O O O O O O O O O O # # # # # # # # # # # ",
"# # # # # # # # a k.O O O O O O O O O O O O O O O O O O O O O O O O O O O O O O O O O O O O O O O O O O O # # # # # # # # # # # ",
"# # # # # # # # l.' O O O O O O O O O O O O O O O O O O O O O O O O O O O O O O O O O O O O O O O O O O O # # # # # # # # # # # ",
"# # # # # # # # # # O O O O O O O O O O O O O O O O O O O O O O O O O O O O O O O O O O O O O O O O O O O # # # # # # # # # # # ",
"# # # # # # # # # z.O O O O O O O O O O O O O O O O O O O O O O O O O O O O O O O O O O O O O O O O O O O # # # # # # # # # # # ",
"# # # # # # # x.-.u O O O O O O O O O O O O O O O O O O O O O O O O O O O O O O O O O O O O O O O O O O O # # # # # # # # # # # ",
"# # # # # c.C t.; # O O O O O O O O O O O O O O O O O O O O O O O O O O O O O O O O O O O O O O O O O O O v.# # # # # # # # # # ",
"# # # b.V e 3.# # # O O O O O O O O O O O O O O O O O O O O O O O O O O O O O O O O O O O O O O O O O O O n.m.M.a # # # # # # # ",
"# u.V N.B.# # # # # O O O O O O O O O O O O O O O O O O O O O O O O O O O O O O O O O O O O O O O O O O O x o.V.V N.C.g # # # # ",
"-.Z.c.# # # # # # # O O O O O O O O O O O O O O O O O O O O O O O O O O O O O O O O O O O O O O O O O O O t ' # # # & A.[ m S.y ",
"# # # # # # # # # # O O O O O O O O O O O O O O O O O O O O O O O O O O O O O O O O O O O O O O O O O O O 8 ) D.# # # # # # V.[ ",
"# # # # # # # # # # O O O O O O O O O O O O O O O O O O O O O O O O O O O O O O O O O O O O O O O O O O O 8 S K # # # # # # # y ",
"# # # # # # # # # F.O O O O O O O O O O O O O O O O O O O O O O O O O O O O O O O O O O O O O O O O O O O 8 G.R # # # # # # # # ",
"# # # # # # # # } L O O O O O O O O O O O O O O O O O O O O O O O O O O O O O O O O O O O O O O O O O O O 8 g H.# # # # # # # # ",
"# # # # # # # ~ p y.O O O O O O O O O O O O O O O O O O O O O O O O O O O O O O O O O O O O O O O O O O O 8 i., # # # # # # # # ",
"# # # # # # J | # # O O O O O O O O O O O O O O O O O O O O O O O O O O O O O O O O O O O O O O O O O O O 8 5 u # # # # # # # # ",
"# # # # # # J.K.# # O O O O O O O O O O O O O O O O O O O O O O O O O O O O O O O O O O O O O O O O O O O % k m.# # # # # # # # ",
"# # # # # M.3 # # # O O O O O O O O O O O O O O O O O O O O O O O O O O O O O O O O O O O O O O O O O O O ^ x O.# # # # # # # # ",
"# # # # # p y # # L.O O O O O O O O O O O O O O O O O O O O O O O O O O O O O O O O O O O O O O O O O O O m > 0.# # # # # # # # ",
"# # # # j.- # # B H.O O O O O O O O O O O O O O O O O O O O O O O O O O O O O O O O O O O O O O O O O O O L P.{ # # # # # # # # ",
"# # # # [ # # # X.x O O O O O O O O O O O O O O O O O O O O O O O O O O O O O O O O O O O O O O O O O O O x ! , 7.# # # # # # # ",
"# # # r Z.# # I.L *.O O O O O O O O O O O O O O O O O O O O O O O O O O O O O O O O O O O O O O O O O O O ) G.# V N h.# # # # # ",
"# # # U.r # # v -.*.O O O O O O O O O O O O O O O O O O O O O O O O O O O O O O O O O O O O O O O O O O O 1.# # # Y.5 0 # # # # ",
"# # # q # # # # T.^ O O O O O O O O O O O O O O O O O O O O O O O O O O O O O O O O O O O O O O O O O O O # # # # # # l N ; # # ",
"# # : K # # # # # -.O O O O O O O O O O O O O O O O O O O O O O O O O O O O O O O O O O O O O O O O O O O # # # # # # # R.^ 2 # ",
"E.E.W.Q.E.E.E.E.E.!.O O O O O O O O O O O O O O O O O O O O O O O O O O O O O O O O O O O O O O O O O O O E.E.E.E.E.E.E.E.~.^./.",
"(.)._.(.(.(.(.(.(.(.O O O O O O O O O O O O O O O O O O O O O O O O O O O O O O O O O O O O O O O O O O O (.(.(.(.(.(.(.(.(.(.`."
};
