/* XPM */
static char *_8cb0b1a5c464b74eaf5ffeedb5e6d38OfMRvVuXKUT4KS2X[] = {
/* columns rows colors chars-per-pixel */
"64 64 62 1 ",
"  c white",
". c black",
"X c #878D87",
"o c #969C96",
"O c #969B96",
"+ c #C99820",
"@ c #9CA29C",
"# c #ADB3AD",
"$ c #ACB2AB",
"% c #9BA29B",
"& c #2D1F03",
"* c #A8AFA8",
"= c #286A21",
"- c #A7AEA7",
"; c #60655F",
": c #585D57",
"> c #555B55",
", c #50554F",
"< c #616661",
"1 c #656A65",
"2 c #515752",
"3 c #5D635D",
"4 c #4C524D",
"5 c #595F5B",
"6 c #686D67",
"7 c #757A75",
"8 c #6D726D",
"9 c #787C77",
"0 c #717671",
"q c #7D827E",
"w c #7B807C",
"e c #7A807B",
"r c #464C45",
"t c #7F8480",
"y c #ABB2AB",
"u c #9BA29C",
"i c #9CA29B",
"p c #4A4F4A",
"a c #808580",
"s c #336028",
"d c #828985",
"f c #296921",
"g c #355F2F",
"h c #4B4C47",
"j c #59482F",
"k c #8A9599",
"l c #7F898C",
"z c #767F81",
"x c #4D5251",
"c c #306427",
"v c #ABB2AC",
"b c #464A48",
"n c #31682C",
"m c #2D6927",
"M c #30682C",
"N c #343936",
"B c #575D5D",
"V c #8B9699",
"C c #6B7A7B",
"Z c #8AA09D",
"A c #6B6E69",
"S c #71716B",
/* pixels */
"              ...................................               ",
"...............XooooooooooooooooooooooooooOooooO................",
"++++++++++++++.@#######################$########.+++++++++++++++",
"++++++++++++++.%#&&&&&&&&&&&&&&&&&&&&&&&&&&&&&*#.+++++++++++++++",
"++++++++++++++.%#&===========================&-#.+++++++++++++++",
"++++++++++++++.@#&===========================&-#.+++++++++++++++",
"++++++++++++++.@#&===========================&-#.+++++++++++++++",
"++++++++++++++.%#&====...................====&-#.+++++++++++++++",
"++++++++++++++.%#&====.;:>>>,<,12;>234<>.====&-#.+++++++++++++++",
"++++++++++++++.%#&====.56<3<36<6<<<31<6<.====&-#.+++++++++++++++",
"++++++++++++++.%#&====.736<38>95833630:8.====&-#.+++++++++++++++",
"++++++++++++++.%#&====.203182q4w316:e275.====&-#.+++++++++++++++",
"++++++++++++++.%#&====.75813qrq20<3qrq:8.====&-#.+++++++++++++++",
"++++++++++++++.%#&====.50<10>q473194t473.====&-#.+++++++++++++++",
"++++++++++++++.%#&====.6<11303736639>958.====&-y.+++++++++++++++",
"++++++++++++++.u#&====.0<<<<<6<63<630383.====&-$.+++++++++++++++",
"++++++++++++++.%#&====.20;3857383;6116<1.====&-#.+++++++++++++++",
"++++++++++++++.%#&====.q588>q4e3185738<3.====&-#.+++++++++++++++",
"++++++++++++++.i#&====.p93<9pa4733q49:8<.====&-#.+++++++++++++++",
"++++++++++++++.i#&====.p93<9pa4733q49:8<.====&-#.+++++++++++++++",
"++++++++++++++.@#&====.9368:9495674a4731.====&-#.+++++++++++++++",
"++++++++++++++.%$&====.;13<850381372q203.====&-#.+++++++++++++++",
"++++++++++++++.%#&====.<<<3111633130:956.====&-y.+++++++++++++++",
"++++++++++++++.%#&====.03<8:758331<38383.====&-y.+++++++++++++++",
"++++++++++++++.u#&====.>86:w4q561:8361;1.====&-#.+++++++++++++++",
"++++++++++++++.%#&====.7319pa473<049:0<<.====&-$.+++++++++++++++",
"++++++++++++++.i#&====.3685949588>qrq>83.====&-#.+++++++++++++++",
"++++++++++++++.u#&====.61383038<<02q4956.====&-y.+++++++++++++++",
"++++++++++++++.i#&====.1<<<6163<1305950<.====&-#.+++++++++++++++",
"++++++++++++++.%#&====...................====&-#.+++++++++++++++",
"++++++++++++++.i#&===========================&-#.+++++++++++++++",
"++++++++++++++.%#&===========================&-#.+++++++++++++++",
"++++++++++++++.%#&===========================&-#.+++++++++++++++",
"++++++++++++++.%#&======================sdddf&-#.+++++++++++++++",
"++++++++++++++.%#&======================ghhdj&-#.+++++++++++++++",
"++++++++++++++.%#&=====================gklzhj&-#.+++++++++++++++",
"++++++++++++++.@#&=====================gkkkxj&-#.+++++++++++++++",
"++++++++++++++.@#&=====================gkkkxj&-#.+++++++++++++++",
"++++++++++++++.i#&======================g22dj&-y.+++++++++++++++",
"++++++++++++++.%#&======================cdddj&-v.+++++++++++++++",
"++++++++++++++.@#&======================cdddf&-v.+++++++++++++++",
"++++++++++++++.@#&===========================&-#.+++++++++++++++",
"++++++++++++++.%#&===========================&-#.+++++++++++++++",
"++++++++++++++.%#&===========================&-#.+++++++++++++++",
"++++++++++++++.@#&===========================&-#.+++++++++++++++",
"++++++++++++++.@#&===========================&-#.+++++++++++++++",
"++++++++++++++.u#&===========================&-#.+++++++++++++++",
"++++++++++++++.@#&===========================&-#.+++++++++++++++",
"++++++++++++++.@#&===========================&-#.+++++++++++++++",
"++++++++++++++.%#&===========================&-#.+++++++++++++++",
"++++++++++++++.@#&===========================&-#.+++++++++++++++",
"++++++++++++++.%#&===========================&-#.+++++++++++++++",
"++++++++++++++.%#bnmnMmMmMmmmnmnmnMMMMnmmmMnnN-#.+++++++++++++++",
"++++++++++++++.uvBkkkkkkkkkkkkkkkkkkkkkkkkkkk4-y.+++++++++++++++",
"++++++++++++++.%vBkkkkkkVkkkkkkkkkkkkkkkkkkkkp-#.+++++++++++++++",
"++++++++++++++.%vBkkkkkkkkkkkkkkkkkkkkkkkkkkk4-y.+++++++++++++++",
"++++++++++++++.%#BkkkkkkkkkkkkkkkkkVkkkkkkkkk4-y.+++++++++++++++",
"++++++++++++++.%#Bkkkkkkkkkkkkkkkkkkkkkkkkkkk4-$.+++++++++++++++",
"++++++++++++++.%#Bkkkkkkkkkkkkkkkkkkkkkkkkkkk4-$.+++++++++++++++",
"++++++++++++++.%vBkkkkkkkkkkkkkkkkkkkkkkkkkkk4-y.+++++++++++++++",
"++++++++++++++.%#Bkkkkkkkkkkkkkkkkkkkkkkkkkkk4-y.+++++++++++++++",
"++++++++++++++.%#Bkkkkkkkkkkkkkkkkkkkkkkkkkkk4-$.+++++++++++++++",
"CCCCCCCCCCCCCC.i#Bkkkkkkkkkkkkkkkkkkkkkkkkkkk4-y.CCCCCCCCCCCCCCC",
"ZZZZZZZZZZZZZC.AS1AAAAAAAAAAAAAAAAAAAAAAAAAAA1SS.CZZZZZZZZZZZZZZ"
};
