/* XPM */
static char *f88b7602f6e74ba4f6c602df2bf564cculHjGVy1uTAU3omt[] = {
/* columns rows colors chars-per-pixel */
"64 64 111 2 ",
"   c #000000",
".  c #090602",
"X  c #0D0903",
"o  c #0A0B0A",
"O  c #120E03",
"+  c #140E08",
"@  c #161103",
"#  c #181204",
"$  c #1D150B",
"%  c #111211",
"&  c #1A1B1A",
"*  c #261C06",
"=  c #2D1F03",
"-  c #20170C",
";  c #241A0D",
":  c #2B2107",
">  c #322608",
",  c #3A2C09",
"<  c #332513",
"1  c #392916",
"2  c #222422",
"3  c #262826",
"4  c #2E2F2E",
"5  c #2E302E",
"6  c #313331",
"7  c #343936",
"8  c #3A3C3A",
"9  c #41310A",
"0  c #4C390C",
"q  c #422F19",
"w  c #4E3518",
"e  c #3E423D",
"r  c #56410E",
"t  c #664D10",
"y  c #694F11",
"u  c #6F5412",
"i  c #765913",
"p  c #7D5F14",
"a  c #5E4323",
"s  c #75552E",
"d  c #79572E",
"f  c #464A48",
"g  c #4A4E4C",
"h  c #4B504E",
"j  c #50554F",
"k  c #525751",
"l  c #565A55",
"z  c #585C57",
"x  c #575D5D",
"c  c #585E5C",
"v  c #5D625D",
"b  c #60655F",
"n  c #585F60",
"m  c #596060",
"M  c #626661",
"N  c #656A64",
"B  c #6C6E69",
"V  c #6D726C",
"C  c #71716B",
"Z  c #6B7A7B",
"A  c #707671",
"S  c #757A75",
"D  c #994919",
"F  c #896816",
"G  c #825D31",
"H  c #7C817D",
"J  c #AE841C",
"K  c #BB8D1E",
"L  c #C99820",
"P  c #878D87",
"I  c #8A9598",
"U  c #8A9599",
"Y  c #8B9599",
"T  c #8A9699",
"R  c #8B9699",
"E  c #8B969A",
"W  c #959B96",
"Q  c #969B96",
"!  c #959C95",
"~  c #969C95",
"^  c #969C96",
"/  c #979C96",
"(  c #979D96",
")  c #969D97",
"_  c #979D97",
"`  c #8AA09D",
"'  c #9AA09A",
"]  c #9AA19A",
"[  c #9BA09B",
"{  c #9BA19B",
"}  c #9BA29B",
"|  c #9CA29B",
" . c #9BA19C",
".. c #9BA29C",
"X. c #9CA29C",
"o. c #A5ACA6",
"O. c #A6ACA6",
"+. c #A6ADA6",
"@. c #A6ADA7",
"#. c #A7ADA7",
"$. c #A7AEA7",
"%. c #A8AFA8",
"&. c #ABB2AB",
"*. c #ACB2AB",
"=. c #ABB2AC",
"-. c #ACB2AC",
";. c #ACB3AC",
":. c #ADB3AC",
">. c #ACB3AD",
",. c #ADB3AD",
"<. c white",
/* pixels */
"<.<.<.<.<.<.<.<.<.<.<.<.<.<.<.<.<.<.<.<.<.<.<.<.<.<.<.<.<.<.<.<.<.<.<.<.<.<.<.<.<.<.<.<.<.<.<.<.<.<.<.<.<.<.<.<.<.<.<.<.<.<.<.<.",
"                                                                                                                                ",
"L L L L L L L L L L L L L L L L L L L L L L L L L L L L L L L L L L L L L L L L L L L L L L L L L L L L L L L L L L L L L L L L ",
"L L L L L L L L L L L L L L L L L L L L L L L L L L L L L L L L L L L L L L L L L L L L L L L L L L L L L L L L L L L L L L L L ",
"L L L L L L L L L L L L L L L L L L L L L L L L L L L L L L L L L L L L L L L L L L L L L L L L L L L L L L L L L L L L L L L L ",
"L L L L L L L L L L L L L L                                                                       L L L L L L L L L L L L L L L ",
"L L L L L L L L L L L L L L   P ^ ^ ^ ^ ^ ^ ^ ^ ^ ^ ^ ^ ^ ^ ^ ^ ^ ^ ^ ^ ^ ^ ^ ^ ^ ^ Q ^ ^ ^ ^ Q   L L L L L L L L L L L L L L L ",
"L L L L L L L L L L L L L L   X.,.,.,.,.,.,.,.,.,.,.,.,.,.,.,.,.,.,.,.,.,.,.,.*.,.,.,.,.,.,.,.,.  L L L L L L L L L L L L L L L ",
"L L L L L L L L L L L L L L   } ,.= = = = = = = = = = = = = = = = = = = = = = = = = = = = = %.,.  L L L L L L L L L L L L L L L ",
"L L L L L   L L L L L L L L   } ,.= G G G G G G G G G G G G G G G G G G G G G G G G G G G = #.,.  L L L L L L L L L L L L L L L ",
"L L L L L   L L L L L L L L   X.,.= G G w G G G G G G G G G G G G G G G G G G G G G G G G = #.,.  L L L L L L L L L L L L L L L ",
"L L L L L   L L L L L L L L   } ,.= G G w G                                       G G w G = #.,.  L L L L L L L L L L L L L L L ",
"L L L L L   L L L L L L L L   } ,.= G G w G   b z l l l j M j N e b l k v h M e   s G w G = #.,.  L L L L L L L L L L L L L   L ",
"L L L L L   L L L L L L L L   } ,.= G G w G   c e e v M v B M B e M M v N M e M   s G w G = #.,.  L L L L L L L L L L L     L L ",
"L L L       L L L L L L L L   } ,.= G G w G   S v e e v V . S c e v v B e e z V   s w G G = #.,.  L L L L L L L L L L   L L L L ",
"L L L L L   L L L L L L L L   } ,.= G G w G   k A e e V . o h H e N B e e k S c   s w G G = #.,.  L L L L L L L L L   L L L L L ",
"L L L L L   L L L L L L L L   } ,.= G G G w   S c V N . o . o . A l & 3 e H z V   s w G G = #.,.  L L L L L L L L   L L L L L L ",
"L L L L L   L L L L L L L L   } ,.= G G G w   c A . . . . .   . 2 o o o % o S v   w G G G = #.,.  L L L L L L L L   L L L L L L ",
"L   L L L   L L L L L L L L   } ,.= D D G G   g                     . o o % c V   w G G G = #.&.  L L L L L L L   L L L L   L L ",
"L   L L L   L L L L L L L L    .,.= X X D a                                 . .   D D G G = #.*.  L L L L L L L   L L L   L L L ",
"L   L L L   L L L L L L L L   } B                                                   + D G = #.,.  L L L L L L L   L L L   L L L ",
"L L   L L   L L L L p p p u   . .                                                       ; = #.,.  L L L L L L L   L L L   L L L ",
"L L L     L L L L L p p u .   .                                                         . X 5 ,.  L L L L L L L         L L L L ",
"L L L L   L L L L L p r       .                                                             5 6   L L L L L L     L L L L L L L ",
"L L L L L   L L L L r 0                                                                           , L L L     L L L L L L L L L ",
"L L L L L L   L L L 0 .                                                                           L L     L L L L L L L L L L L ",
"L L L L L L L   F F 9                                                                                 L L L L L L L L L L L L L ",
"L L L L L L L F   9                                                                                   L L L L L L L L L L L L L ",
"L L L L L L L F F                                                                                       L L L L L L L L L L L L ",
"L L L L L L L F i 9                                                                                   y L L L L L L L L L L L L ",
"L L L L L L L J i : *                                                                                   y L L L L L L L L L L L ",
"L L L L L L J J J : * @                                                                                       L L L L L   L L L ",
"L L L L L L L J i : . .                                                                                 L   L     L L   L L L L ",
"L L L L L L L L J O X . .                                                                             L L   L L L     L L L L L ",
"L L L L L L L L > # X . . .                                                                         L L L L   L L L L L L L L L ",
"L L L L L L L L > # X X X                                                                         , L L L L L   L L L L L L L L ",
"L L L L L L L L L > @ X                                                                           , L L L L L L   L L L L L L L ",
"L L L L L L L L L > @ O . .   .                                                                   t L L L L L L L     L L L L L ",
"L L L L L L L L L > * O . .                                                                       t t L L L L L L L L   L L L L ",
"L L L L L L L L L * * * X .                                                                       t t L L L L L L L L L L L L L ",
"L L L L L L L L L *   * X X                                                                       t     L L L L L L L L L L L L ",
"L L L L L L L L L   > > * X   .                                                                   t t L   L L L L L L L L L L L ",
"L L L L L L   L   L L L L ,   2 .                                                                 t t K L   L L L L L L L L L L ",
"L L L L L L       L L L L 0   4 6   .                                                             t t L L   L L L L L L L L L L ",
"L L L L L       L L L L L 0   8 6   .                                                             t t L L L   L L L L L L L L L ",
"L L L     L   L L L L L L L   } } * - - $ D D   .                                             z   t K L L L L   L L L L L L L L ",
"L L   L L   L L L L L L L L   X.} * D D D G G D D D ;               . X . . D D D D   D     l z   K K L L L L   L L L L L L L L ",
"L L L L L   L L L L L L L      .,.= s G G G G G d d D a 1 D D D X $ w G D D < < < $ D q q @ l l   K K L L L L   L L L L L L L L ",
"L L L L L   L L L L L L L     X.,.= G G G G G G G G a w G G G G D D D D G G G G G G G G G = v v   L L L L L L L   L L L L L L L ",
"L L L L L   L L L L L L L     X.,.= G G G G G G G G w G G G G G G G w G G G G G G G G G G = #.,.  L L L L L L L   L L L L L L L ",
"L L L L L   L L L L L L   L   } ,.= G G G G G G G G w G G G G G G G G w w G G G G G G G G = #.,.  L L L L L L L L   L L L L L L ",
"L L L L L   L L L L L   L L   X.,.= G G G G G G G w G G G G G G G G G G G w G G G G G G G = #.,.  L L L L L L L L L   L L L L L ",
"L L L L L L L L L L   L L L   } ,.= G G G G G G w G G G G G G G G G G G G G w G G G G G G = #.,.  L L L L L L L L L   L L L L L ",
"L L L L L L L L L L   L L L   } ,.f m c m n c n v n c c c m c m c m n n n n m c c c n m m 7 #.,.  L L L L L L L L L L   L L L L ",
"L L L L L L L L L   L L L L    .=.x U U U U U U U U U U U U U U U U U U U U U U U U U U U h #.&.  L L L L L L L L L L   L L L L ",
"L L L L L L L L L   L L L L   } =.x U U U U U U U U U U U U U U U U U U U U U U U U U U U g #.,.  L L L L L L L L L L L   L L L ",
"L L L L L L L L   L L L L L   } =.c U U U U U U U U U U U U U U U U U U U U U U U U U U U h #.&.  L L L L L L L L L L L   L L L ",
"L L L L L L L L L L L L L L   } ,.c U U U U U U U U U U U U U U U U U U U U U U U U U U U h #.&.  L L L L L L L L L L L L     L ",
"L L L L L L L L L L L L L L   } ,.c U U U U U U U U U U U U U U U U U U U U U U U U U U U h #.*.  L L L L L L L L L L L L L L   ",
"L L L L L L L L L L L L L L   } =.c U U U U U U U U U U U U U U U U U U U U U U U U U U U h #.&.  L L L L L L L L L L L L L L L ",
"L L L L L L L L L L L L L L   } ,.c U U U U U U U U U U U U U U U U U U U U U U U U U U U h #.&.  L L L L L L L L L L L L L L L ",
"L L L L L L L L L L L L L L   } ,.c U U U U U U U U U U U U U U U U U U U U U U U U U U U h #.*.  L L L L L L L L L L L L L L L ",
"Z Z Z Z Z Z Z Z Z Z Z Z Z Z   | ,.c U U U U U U U U U U U U U U U U U U U U U U U U U U U h #.&.  Z Z Z Z Z Z Z Z Z Z Z Z Z Z Z ",
"` ` ` ` ` ` ` ` ` ` ` ` ` Z   B C M B B B B B B B B B B B B B B B B B B B B B B B B B B B M C C   Z ` ` ` ` ` ` ` ` ` ` ` ` ` ` "
};
