/* XPM */
static char *_ceaa50906504362a5b6353e27fc82cekMkpNvRRSFhEhZor[] = {
/* columns rows colors chars-per-pixel */
"64 64 55 1 ",
"  c white",
". c black",
"X c #C99820",
"o c #878D87",
"O c #969C96",
"+ c #979D97",
"@ c #969C95",
"# c #969D97",
"$ c #959C95",
"% c #969B96",
"& c #979C96",
"* c #979D96",
"= c #959B96",
"- c #9CA29C",
"; c #ADB3AD",
": c #ACB2AC",
"> c #ACB3AC",
", c #ADB3AC",
"< c #ACB2AB",
"1 c #ACB3AD",
"2 c #9BA29B",
"3 c #2D1F03",
"4 c #A8AFA8",
"5 c #9BA19B",
"6 c red",
"7 c #A7ADA7",
"8 c #A7AEA7",
"9 c #A6ADA7",
"0 c #ABB2AB",
"q c #9BA19C",
"w c #9AA19A",
"e c #A6ADA6",
"r c #9CA29B",
"t c #9BA29C",
"y c #A6ACA6",
"u c #A7AEA8",
"i c #ABB2AC",
"p c #9CA19C",
"a c #464A48",
"s c #343936",
"d c #575D5C",
"f c #4A504F",
"g c #575D5D",
"h c #494F4E",
"j c #585E5D",
"k c #A5ACA6",
"l c #6B7A7B",
"z c #585E5C",
"x c #8AA09D",
"c c #6F6F69",
"v c #71716B",
"b c #666761",
"n c #656560",
"m c #70716A",
"M c #71726B",
/* pixels */
"                                                                ",
"................................................................",
"XXXXXXXXXXXXXXXXXXXXXXXXXXXXXXXXXXXXXXXXXXXXXXXXXXXXXXXXXXXXXXXX",
"XXXXXXXXXXXXXXXXXXXXXXXXXXXXXXXXXXXXXXXXXXXXXXXXXXXXXXXXXXXXXXXX",
"XXXXXXXXXXXXXXXXXXXXXXXXXXXXXXXXXXXXXXXXXXXXXXXXXXXXXXXXXXXXXXXX",
"XXXXXXXXXXXXXX...................................XXXXXXXXXXXXXXX",
"XXXXXXXXXXXXXX.oOOOOOO+O@OOOO#O$@@OOO@O@OO%OO&*=.XXXXXXXXXXXXXXX",
"XXXXXXXXXXXXXX.-;:>;;;;>>,>>>:>:>:::>::<>:>1,;;>.XXXXXXXXXXXXXXX",
"XXXXXXXXXXXXXX.2,333333333333333333333333333334:.XXXXXXXXXXXXXXX",
"XXXXXXXXXXXXXX.5:366666666666666666666666666637:.XXXXXXXXXXXXXXX",
"XXXXXXXXXXXXXX.-1366666666666666666666666666638:.XXXXXXXXXXXXXXX",
"XXXXXXXXXXXXXX.5;366666666666666666666666666639:.XXXXXXXXXXXXXXX",
"XXXXXXXXXXXXXX.51366666666666666666666666666637>.XXXXXXXXXXXXXXX",
"XXXXXXXXXXXXXX.5;366666666666666666666666666639>.XXXXXXXXXXXXXXX",
"XXXXXXXXXXXXXX.5>366666666666666666666666666638:.XXXXXXXXXXXXXXX",
"XXXXXXXXXXXXXX.21366666666666666666666666666637>.XXXXXXXXXXXXXXX",
"XXXXXXXXXXXXXX.2>366666666666666666666666666637:.XXXXXXXXXXXXXXX",
"XXXXXXXXXXXXXX.5:366666666666666666666666666639>.XXXXXXXXXXXXXXX",
"XXXXXXXXXXXXXX.2>3666666666666666666666666666370.XXXXXXXXXXXXXXX",
"XXXXXXXXXXXXXX.q>366666666666666666666666666637<.XXXXXXXXXXXXXXX",
"XXXXXXXXXXXXXX.w:36666666666666666666666666663e:.XXXXXXXXXXXXXXX",
"XXXXXXXXXXXXXX.5>366666666666666666666666666637:.XXXXXXXXXXXXXXX",
"XXXXXXXXXXXXXX.r>366666666666666666666666666637:.XXXXXXXXXXXXXXX",
"XXXXXXXXXXXXXX.->366666666666666666666666666639:.XXXXXXXXXXXXXXX",
"XXXXXXXXXXXXXX.2<36666666666666666666666666663e:.XXXXXXXXXXXXXXX",
"XXXXXXXXXXXXXX.2136666666666666666666666666663e0.XXXXXXXXXXXXXXX",
"XXXXXXXXXXXXXX.5>36666666666666666666666666663e0.XXXXXXXXXXXXXXX",
"XXXXXXXXXXXXXX.t>366666666666666666666666666637:.XXXXXXXXXXXXXXX",
"XXXXXXXXXXXXXX.5>36666666666666666666666666663y<.XXXXXXXXXXXXXXX",
"XXXXXXXXXXXXXX.r>36666666666666666666666666663e>.XXXXXXXXXXXXXXX",
"XXXXXXXXXXXXXX.t>3666666666666666666666666666370.XXXXXXXXXXXXXXX",
"XXXXXXXXXXXXXX.r:36666666666666666666666666663e:.XXXXXXXXXXXXXXX",
"XXXXXXXXXXXXXX.5>366666666666666666666666666638:.XXXXXXXXXXXXXXX",
"XXXXXXXXXXXXXX.r;36666666666666666666666666663u:.XXXXXXXXXXXXXXX",
"XXXXXXXXXXXXXX.2,366666666666666666666666666637:.XXXXXXXXXXXXXXX",
"XXXXXXXXXXXXXX.5>366666666666666666666666666637>.XXXXXXXXXXXXXXX",
"XXXXXXXXXXXXXX.2>366666666666666666666666666639:.XXXXXXXXXXXXXXX",
"XXXXXXXXXXXXXX.2>366666666666666666666666666639>.XXXXXXXXXXXXXXX",
"XXXXXXXXXXXXXX.->366666666666666666666666666638>.XXXXXXXXXXXXXXX",
"XXXXXXXXXXXXXX.->366666666666666666666666666638>.XXXXXXXXXXXXXXX",
"XXXXXXXXXXXXXX.r>3666666666666666666666666666390.XXXXXXXXXXXXXXX",
"XXXXXXXXXXXXXX.51366666666666666666666666666639i.XXXXXXXXXXXXXXX",
"XXXXXXXXXXXXXX.-,366666666666666666666666666637i.XXXXXXXXXXXXXXX",
"XXXXXXXXXXXXXX.p>366666666666666666666666666637:.XXXXXXXXXXXXXXX",
"XXXXXXXXXXXXXX.21366666666666666666666666666637>.XXXXXXXXXXXXXXX",
"XXXXXXXXXXXXXX.5>366666666666666666666666666637:.XXXXXXXXXXXXXXX",
"XXXXXXXXXXXXXX.-;366666666666666666666666666638:.XXXXXXXXXXXXXXX",
"XXXXXXXXXXXXXX.t1366666666666666666666666666637>.XXXXXXXXXXXXXXX",
"XXXXXXXXXXXXXX.->366666666666666666666666666638:.XXXXXXXXXXXXXXX",
"XXXXXXXXXXXXXX.-:366666666666666666666666666639>.XXXXXXXXXXXXXXX",
"XXXXXXXXXXXXXX.21366666666666666666666666666638>.XXXXXXXXXXXXXXX",
"XXXXXXXXXXXXXX.->366666666666666666666666666638:.XXXXXXXXXXXXXXX",
"XXXXXXXXXXXXXX.2>366666666666666666666666666637:.XXXXXXXXXXXXXXX",
"XXXXXXXXXXXXXX.5>a666666666666666666666666666s7:.XXXXXXXXXXXXXXX",
"XXXXXXXXXXXXXX.tid666666666666666666666666666fe0.XXXXXXXXXXXXXXX",
"XXXXXXXXXXXXXX.5ig666666666666666666666666666h9:.XXXXXXXXXXXXXXX",
"XXXXXXXXXXXXXX.5ij666666666666666666666666666f90.XXXXXXXXXXXXXXX",
"XXXXXXXXXXXXXX.5:j666666666666666666666666666fy0.XXXXXXXXXXXXXXX",
"XXXXXXXXXXXXXX.2:j666666666666666666666666666fk<.XXXXXXXXXXXXXXX",
"XXXXXXXXXXXXXX.5ij666666666666666666666666666f90.XXXXXXXXXXXXXXX",
"XXXXXXXXXXXXXX.5:j666666666666666666666666666fy0.XXXXXXXXXXXXXXX",
"XXXXXXXXXXXXXX.2:j666666666666666666666666666fk<.XXXXXXXXXXXXXXX",
"llllllllllllll.r:z666666666666666666666666666f70.lllllllllllllll",
"xxxxxxxxxxxxxl.cvb666666666666666666666666666nmM.lxxxxxxxxxxxxxx"
};
