/* XPM */
static char *_03efa3bc38547dbfeee10a640ab6466htZsySzYB3e0vFk8[] = {
/* columns rows colors chars-per-pixel */
"64 64 101 2 ",
"   c black",
".  c #2D1F03",
"X  c #343936",
"o  c #5B462C",
"O  c #59482F",
"+  c #4F473A",
"@  c #524B3D",
"#  c #6D4F2C",
"$  c #76562E",
"%  c #7F5B30",
"&  c #464C45",
"*  c #4B4C47",
"=  c #464A48",
"-  c #4A4F4A",
";  c #4C524D",
":  c #50554F",
">  c #4D5251",
",  c #515752",
"<  c #555B55",
"1  c #585D57",
"2  c #575D5D",
"3  c #595F5B",
"4  c #5D635D",
"5  c #60655F",
"6  c #585F60",
"7  c #596060",
"8  c #616661",
"9  c #656A65",
"0  c #686D67",
"q  c #6B6E69",
"w  c #6D726D",
"e  c #71716B",
"r  c #6B7A7B",
"t  c #717671",
"y  c #757A75",
"u  c #787C77",
"i  c #797E7A",
"p  c #825D31",
"a  c #7B807B",
"s  c #7A807B",
"d  c #7B807C",
"f  c #7B817C",
"g  c #7C807C",
"h  c #7C817C",
"j  c #7C817D",
"k  c #7D827D",
"l  c #7D827E",
"z  c #7E827E",
"x  c #7E837E",
"c  c #7E837F",
"v  c #C99820",
"b  c #767F81",
"n  c #7F8480",
"m  c #7F898C",
"M  c #808580",
"N  c #838885",
"B  c #828985",
"V  c #838986",
"C  c #878D87",
"Z  c #8A9598",
"A  c #8A9599",
"S  c #8B9599",
"D  c #8A9699",
"F  c #8B9699",
"G  c #8B969A",
"H  c #8B979A",
"J  c #959B96",
"K  c #969B96",
"L  c #959C95",
"P  c #969C95",
"I  c #969C96",
"U  c #979C96",
"Y  c #979D96",
"T  c #969D97",
"R  c #979D97",
"E  c #8AA09D",
"W  c #9AA19A",
"Q  c #9BA19B",
"!  c #9BA29B",
"~  c #9CA29B",
"^  c #9BA19C",
"/  c #9BA29C",
"(  c #9CA19C",
")  c #9CA29C",
"_  c #A5ACA6",
"`  c #A6ACA6",
"'  c #A6ADA6",
"]  c #A6ADA7",
"[  c #A7ADA7",
"{  c #A7AEA7",
"}  c #A7AEA8",
"|  c #A8AFA8",
" . c #ABB2AB",
".. c #ACB2AB",
"X. c #ABB2AC",
"o. c #ACB2AC",
"O. c #ACB3AC",
"+. c #ADB3AC",
"@. c #ACB3AD",
"#. c #ADB3AD",
"$. c white",
/* pixels */
"$.$.$.$.$.$.$.$.$.$.$.$.$.$.$.$.$.$.$.$.$.$.$.$.$.$.$.$.$.$.$.$.$.$.$.$.$.$.$.$.$.$.$.$.$.$.$.$.$.$.$.$.$.$.$.$.$.$.$.$.$.$.$.$.",
"                                                                                                                                ",
"v v v v v v v v v v v v v v v v v v v v v v v v v v v v v v v v v v v v v v v v v v v v v v v v v v v v v v v v v v v v v v v v ",
"v v v v v v v v v v v v v v v v v v v v v v v v v v v v v v v v v v v v v v v v v v v v v v v v v v v v v v v v v v v v v v v v ",
"v v v v v v v v v v v v v v v v v v v v v v v v v v v v v v v v v v v v v v v v v v v v v v v v v v v v v v v v v v v v v v v v ",
"v v v v v v v v v v v v v v                                                                       v v v v v v v v v v v v v v v ",
"v v v v v v v v v v v v v v   C I I I I I I I I I I I I I I I I I I I I I I I I I I K I I I I K   v v v v v v v v v v v v v v v ",
"v v v v v v v v v v v v v v   ) #.#.#.#.#.#.#.#.#.#.#.#.#.#.#.#.#.#.#.#.#.#.#...#.#.#.#.#.#.#.#.  v v v v v v v v v v v v v v v ",
"v v v v v v v v v v v v v v   ! #.. . . . . . . . . . . . . . . . . . . . . . . . . . . . . | #.  v v v v v v v v v v v v v v v ",
"v v v v v v v v v v v v v v   ! #.. p p p p p p p p p p p p p p p p p p p p p p p p p p p . { #.  v v v v v v v v v v v v v v v ",
"v v v v v v v v v v v v v v   ) #.. p p p p p p p p p p p p p p p p p p p p p p p p p p p . { #.  v v v v v v v v v v v v v v v ",
"v v v v v v v v v v v v v v   ! #.. p p p p                                       p p p p . { #.  v v v v v v v v v v v v v v v ",
"v v v v v v v v v v v v v v   ! #.. p p p p   5 1 < < < : 8 : 9 , 5 < , 4 ; 8 <   $ p p p . { #.  v v v v v v v v v v v v v v v ",
"v v v v v v v v v v v v v v   ! #.. p p p p   3 0 8 4 8 4 0 8 0 8 8 8 4 9 8 0 8   $ p p p . { #.  v v v v v v v v v v v v v v v ",
"v v v v v v v v v v v v v v   ! #.. p p p p   y 4 0 8 4 w < u 3 w 4 4 0 4 t 1 w   $ p p p . { #.  v v v v v v v v v v v v v v v ",
"v v v v v v v v v v v v v v   ! #.. p p p p   , t 4 9 w , l ; d 4 9 0 1 s , y 3   $ p p p . { #.  v v v v v v v v v v v v v v v ",
"v v v v v v v v v v v v v v   ! #.. p p p p   y 3 w 9 4 l & l , t 8 4 l & l 1 w   $ p p p . { #.  v v v v v v v v v v v v v v v ",
"v v v v v v v v v v v v v v   ! #.. p p p p   3 t 8 9 t < l ; y 4 9 u ; n ; y 4   $ p p p . { #.  v v v v v v v v v v v v v v v ",
"v v v v v v v v v v v v v v   ! #.. p p p p   0 8 9 9 4 t 4 y 4 0 0 4 u < u 3 w   $ p p p . {  .  v v v v v v v v v v v v v v v ",
"v v v v v v v v v v v v v v   / #.. p p p p   t 8 8 8 8 8 0 8 0 4 8 0 4 t 4 w 4   $ p p p . { ..  v v v v v v v v v v v v v v v ",
"v v v v v v v v v v v v v v   ! #.. p p p p   , t 5 4 w 3 y 4 w 4 5 0 9 9 0 8 9   $ p p p . { #.  v v v v v v v v v v v v v v v ",
"v v v v v v v v v v v v v v   ! #.. p p p p   l 3 w w < l ; s 4 9 w 3 y 4 w 8 4   $ p p p . { #.  v v v v v v v v v v v v v v v ",
"v v v v v v v v v v v v v v   ~ #.. p p p p   - u 4 8 u - M ; y 4 4 l ; u 1 w 8   $ p p p . { #.  v v v v v v v v v v v v v v v ",
"v v v v v v v v v v v v v v   ) #.. p p p p   u 4 0 w 1 u ; u 3 0 y ; M ; y 4 9   $ p p p . { #.  v v v v v v v v v v v v v v v ",
"v v v v v v v v v v v v v v   ! ... p p p p   5 9 4 8 w 3 t 4 w 9 4 y , l , t 4   $ p p p . { #.  v v v v v v v v v v v v v v v ",
"v v v v v v v v v v v v v v   ! #.. p p p p   8 8 8 4 9 9 9 0 4 4 9 4 t 1 u 3 0   $ p p p . {  .  v v v v v v v v v v v v v v v ",
"v v v v v v v v v v v v v v   ! #.. p p p p   t 4 8 w 1 y 3 w 4 4 9 8 4 w 4 w 4   $ p p p . {  .  v v v v v v v v v v v v v v v ",
"v v v v v v v v v v v v v v   / #.. p p p p   < w 0 1 d ; l 3 0 9 1 w 4 0 9 5 9   $ p p p . { #.  v v v v v v v v v v v v v v v ",
"v v v v v v v v v v v v v v   ! #.. p p p p   y 4 9 u - M ; y 4 8 t ; u 1 t 8 8   $ p p p . { ..  v v v v v v v v v v v v v v v ",
"v v v v v v v v v v v v v v   ~ #.. p p p p   4 0 w 3 u ; u 3 w w < l & l < w 4   $ p p p . { #.  v v v v v v v v v v v v v v v ",
"v v v v v v v v v v v v v v   / #.. p p p p   0 9 4 w 4 t 4 w 8 8 t , l ; u 3 0   $ p p p . {  .  v v v v v v v v v v v v v v v ",
"v v v v v v v v v v v v v v   ~ #.. p p p p   9 8 8 8 0 9 0 4 8 9 4 t 3 u 3 t 8   $ p p p . { #.  v v v v v v v v v v v v v v v ",
"v v v v v v v v v v v v v v   ! #.. p p p p                                       % p p p . { #.  v v v v v v v v v v v v v v v ",
"v v v v v v v v v v v v v v   ~ #.. p p p p p p p p p p p p p p p p p p p p p p p p p p p . { #.  v v v v v v v v v v v v v v v ",
"v v v v v v v v v v v v v v   ! #.. p p p p p p p p p p p p p p p p p p p p p p # o o o $ . { #.  v v v v v v v v v v v v v v v ",
"v v v v v v v v v v v v v v   ! #.. p p p p p p p p p p p p p p p p p p p p p p + B B B O . { #.  v v v v v v v v v v v v v v v ",
"v v v v v v v v v v v v v v   ! #.. p p p p p p p p p p p p p p p p p p p p p p * * * B O . { #.  v v v v v v v v v v v v v v v ",
"v v v v v v v v v v v v v v   ! #.. p p p p p p p p p p p p p p p p p p p p p * A m b * O . { #.  v v v v v v v v v v v v v v v ",
"v v v v v v v v v v v v v v   ) #.. p p p p p p p p p p p p p p p p p p p p p * A A A > O . { #.  v v v v v v v v v v v v v v v ",
"v v v v v v v v v v v v v v   ) #.. p p p p p p p p p p p p p p p p p p p p p * A A A > O . { #.  v v v v v v v v v v v v v v v ",
"v v v v v v v v v v v v v v   ~ #.. p p p p p p p p p p p p p p p p p p p p p p * , , B O . {  .  v v v v v v v v v v v v v v v ",
"v v v v v v v v v v v v v v   ! #.. p p p p p p p p p p p p p p p p p p p p p p @ B B B O . { X.  v v v v v v v v v v v v v v v ",
"v v v v v v v v v v v v v v   ) #.. p p p p p p p p p p p p p p p p p p p p p p @ B B B O . { X.  v v v v v v v v v v v v v v v ",
"v v v v v v v v v v v v v v   ) #.. p p p p p p p p p p p p p p p p p p p p p p # o o o $ . { #.  v v v v v v v v v v v v v v v ",
"v v v v v v v v v v v v v v   ! #.. p p p p p p p p p p p p p p p p p p p p p p p p p p p . { #.  v v v v v v v v v v v v v v v ",
"v v v v v v v v v v v v v v   ! #.. p p p p p p p p p p p p p p p p p p p p p p p p p p p . { #.  v v v v v v v v v v v v v v v ",
"v v v v v v v v v v v v v v   ) #.. p p p p p p p p p p p p p p p p p p p p p p p p p p p . { #.  v v v v v v v v v v v v v v v ",
"v v v v v v v v v v v v v v   / #.. p p p p p p p p p p p p p p p p p p p p p p p p p p p . { #.  v v v v v v v v v v v v v v v ",
"v v v v v v v v v v v v v v   ) #.. p p p p p p p p p p p p p p p p p p p p p p p p p p p . { #.  v v v v v v v v v v v v v v v ",
"v v v v v v v v v v v v v v   ) #.. p p p p p p p p p p p p p p p p p p p p p p p p p p p . { #.  v v v v v v v v v v v v v v v ",
"v v v v v v v v v v v v v v   ! #.. p p p p p p p p p p p p p p p p p p p p p p p p p p p . { #.  v v v v v v v v v v v v v v v ",
"v v v v v v v v v v v v v v   ) #.. p p p p p p p p p p p p p p p p p p p p p p p p p p p . { #.  v v v v v v v v v v v v v v v ",
"v v v v v v v v v v v v v v   ! #.. p p p p p p p p p p p p p p p p p p p p p p p p p p p . { #.  v v v v v v v v v v v v v v v ",
"v v v v v v v v v v v v v v   ! #.= 7 2 7 6 2 6 4 6 2 2 2 7 2 7 2 7 6 6 6 6 7 2 2 2 6 7 7 X { #.  v v v v v v v v v v v v v v v ",
"v v v v v v v v v v v v v v   / X.2 A A A A A A A A A A A A A A A A A A A A A A A A A A A ; {  .  v v v v v v v v v v v v v v v ",
"v v v v v v v v v v v v v v   ! X.2 A A A A A A F A A A A A A A A A A A A A A A A A A A A - { #.  v v v v v v v v v v v v v v v ",
"v v v v v v v v v v v v v v   ! X.2 A A A A A A A A A A A A A A A A A A A A A A A A A A A ; {  .  v v v v v v v v v v v v v v v ",
"v v v v v v v v v v v v v v   ! #.2 A A A A A A A A A A A A A A A A A F A A A A A A A A A ; {  .  v v v v v v v v v v v v v v v ",
"v v v v v v v v v v v v v v   ! #.2 A A A A A A A A A A A A A A A A A A A A A A A A A A A ; { ..  v v v v v v v v v v v v v v v ",
"v v v v v v v v v v v v v v   ! X.2 A A A A A A A A A A A A A A A A A A A A A A A A A A A ; {  .  v v v v v v v v v v v v v v v ",
"v v v v v v v v v v v v v v   ! #.2 A A A A A A A A A A A A A A A A A A A A A A A A A A A ; {  .  v v v v v v v v v v v v v v v ",
"v v v v v v v v v v v v v v   ! #.2 A A A A A A A A A A A A A A A A A A A A A A A A A A A ; { ..  v v v v v v v v v v v v v v v ",
"r r r r r r r r r r r r r r   ~ #.2 A A A A A A A A A A A A A A A A A A A A A A A A A A A ; {  .  r r r r r r r r r r r r r r r ",
"E E E E E E E E E E E E E r   q e 9 q q q q q q q q q q q q q q q q q q q q q q q q q q q 9 e e   r E E E E E E E E E E E E E E "
};
