/* XPM */
static char *vertopal_com_wall1748044947[] = {
/* columns rows colors chars-per-pixel */
"64 64 201 2 ",
"   c #010102",
".  c #0A0102",
"X  c #000902",
"o  c #02020A",
"O  c #0B020B",
"+  c #000909",
"@  c #0A0809",
"#  c #110000",
"$  c #180300",
"%  c #000211",
"&  c #080113",
"*  c #083838",
"=  c #4D0100",
"-  c #183E43",
";  c #144346",
":  c #1D4A48",
">  c #19444A",
",  c #1E5356",
"<  c #234B4A",
"1  c #244849",
"2  c #2A514E",
"3  c #244D52",
"4  c #2B4953",
"5  c #235354",
"6  c #2C5454",
"7  c #245C56",
"8  c #2B5A54",
"9  c #245459",
"0  c #2C575C",
"q  c #265C5C",
"w  c #2B5D5E",
"e  c #315C56",
"r  c #335759",
"t  c #325D5C",
"y  c #3A5F5F",
"u  c #365758",
"i  c #1E6457",
"p  c #246355",
"a  c #2B6057",
"s  c #25635C",
"d  c #2C625E",
"f  c #26685E",
"g  c #33625B",
"h  c #3B635F",
"j  c #33695B",
"k  c #265D61",
"l  c #2B5E61",
"z  c #2F5F69",
"x  c #325F62",
"c  c #375F65",
"v  c #266263",
"b  c #2B6163",
"n  c #2E646A",
"m  c #2D6B6B",
"M  c #336364",
"N  c #3B6362",
"B  c #366A64",
"V  c #3D6A65",
"C  c #34656A",
"Z  c #3C646C",
"A  c #346B6D",
"S  c #3B6B6C",
"D  c #35726D",
"F  c #3C736C",
"G  c #2E6E70",
"H  c #366D71",
"J  c #3B6C72",
"K  c #3A6974",
"L  c #2D7974",
"P  c #357375",
"I  c #3B7375",
"U  c #3B7973",
"Y  c #36747E",
"T  c #3C757A",
"R  c #377978",
"E  c #3E797D",
"W  c #307D75",
"Q  c #415F5D",
"!  c #775658",
"~  c #795559",
"^  c #426A67",
"/  c #46646F",
"(  c #49666B",
")  c #436B6B",
"_  c #4B6B6E",
"`  c #476366",
"'  c #526B6C",
"]  c #45716F",
"[  c #49746D",
"{  c #52736A",
"}  c #446D73",
"|  c #4C6D72",
" . c #486F7E",
".. c #466974",
"X. c #516F71",
"o. c #437475",
"O. c #4A7474",
"+. c #447A75",
"@. c #4A7A76",
"#. c #42767A",
"$. c #4A757A",
"%. c #437B7D",
"&. c #4B7C7D",
"*. c #527374",
"=. c #527975",
"-. c #537579",
";. c #527C7C",
":. c #5B7B7C",
">. c #667276",
",. c #6A7576",
"<. c #6E7877",
"1. c #6C757C",
"2. c #6D7A7D",
"3. c #667A7A",
"4. c #717A7D",
"5. c #71757E",
"6. c #C60104",
"7. c #DA0001",
"8. c #CD1614",
"9. c #D91D1D",
"0. c #E20001",
"q. c #EA0E0E",
"w. c red",
"e. c #EA1414",
"r. c #3F817F",
"t. c #348074",
"y. c #4A8777",
"u. c #42817E",
"i. c #4D817E",
"p. c #54817D",
"a. c #5B867D",
"s. c #558077",
"d. c #60897E",
"f. c #BB9719",
"g. c #C6951D",
"h. c #CA961E",
"j. c #C4991B",
"k. c #C99A1E",
"l. c #C59521",
"z. c #CB9621",
"x. c #C69921",
"c. c #CA9B24",
"v. c #CB9E29",
"b. c #D29824",
"n. c #CBA128",
"m. c #3E7C82",
"M. c #3B7881",
"N. c #426F83",
"B. c #447383",
"V. c #437D81",
"C. c #4B7D82",
"Z. c #4D7B8C",
"A. c #497582",
"S. c #537D82",
"D. c #507788",
"F. c #587F82",
"G. c #4F7E90",
"H. c #517B93",
"J. c #6C7B82",
"K. c #6B7983",
"L. c #727A83",
"P. c #717581",
"I. c #458284",
"U. c #4C8284",
"Y. c #4E8983",
"T. c #458388",
"R. c #4B8488",
"E. c #478A80",
"W. c #538484",
"Q. c #5B8483",
"!. c #548985",
"~. c #5D8A86",
"^. c #548589",
"/. c #5B8489",
"(. c #548A8A",
"). c #5C8A89",
"_. c #638685",
"`. c #628A86",
"'. c #638A8A",
"]. c #65868B",
"[. c #768183",
"{. c #68908F",
"}. c #7E918F",
"|. c #648D91",
" X c #7C9B94",
".X c #7F9391",
"XX c #7DA099",
"oX c #85948B",
"OX c #839594",
"+X c #859A96",
"@X c #899C96",
"#X c #869A99",
"$X c #8A9C9B",
"%X c #869599",
"&X c #939797",
"*X c #898B88",
"=X c #8DA39E",
"-X c #8FAAA3",
";X c #FFF7F8",
":X c #F7FEFE",
">X c #FEFEFE",
/* pixels */
">X>X>X:X;X>X>X>X>X>X>X>X>X>X>X:X>X>X>X>X;X>X>X>X>X>X>X>X>X>X>X>X>X>X>X>X>X>X>X>X>X:X>X>X>X>X;X>X>X>X>X>X>X>X>X>X:X>X;X>X>X:X>X>X",
"      +                                                   .                     .                                         @     ",
"k.v.z.g.c.j.h.b.z.z.z.z.z.z.z.h.l.v.x.g.x.x.g.k.z.z.z.h.h.h.h.h.k.g.g.h.x.h.x.x.j.g.c.k.x.l.v.v.x.z.x.z.z.z.z.x.b.k.f.n.g.l.x.j.",
".     .   X               X     .   .                             .             X         .   .                 .         o   $ ",
"  Z. .O.A.A.^.R.Q.Q.W.p.U.S.@.+.D %.#.P $.H K A.I %.T #.#.#.o.o.T #.I I I I P I I N.Y $.A ..H U &.&.&.A.U.C.A.i.E %.m.#.] T m.o ",
"  o.y.X   O .                       .     :.-.+               .       .     o   X O.O.. X o               .         o X   D I   ",
"  A.W.  ;.].a.Q.).).).).!.W.C.%.P +.O.F o +.@.  F @.&.@.Q.;.=.;.&.&.@.%.+.+.o.I   $.%.  y.C.V.y.W.p.Q.p.Q.Q.a.Q.W.E.T o.  L B.. ",
"  G.#.  Y.^.Q.Q.`.Q.~.~.).^.Y.&.T T A.P & D +.  J V.C.C.^.&.&.p.%.%.E m.I.m.E T   %.%.o +.D.G.Y.R.U.U.U.^.U.C.C.A.L G.E . M.N.  ",
"  I.R.  C.@.Q._.'.)./.).).^.W.&.O.#.T ) w.w.w.w.w.w.w.w.w.w.w.w.w.w.w.w.w.w.w.w.w.w.w.w.w.w.w.9.W.&.&.C.^.^.Q.^.+.W.%.E   T E   ",
"+ &.u.  $.O.Q.o   . .           + %.V.( w.w.w.w.w.w.w.w.w.w.w.w.w.w.w.w.w.w.w.w.w.w.w.w.w.w.w.6.        .         %.%.o.  I.%.  ",
"  I.R.  U.Q.Q.7 w l w q w l d l , %.#.) w.w.w.w.w.w.w.w.w.w.w.w.w.w.w.w.w.w.w.w.w.w.w.w.w.w.w.8.b d k b d q l l s &.$.I.  T I.  ",
"  &.I.  Q.W.Q.O                 o &.E _ w.w.w.w.w.w.w.w.w.w.w.w.w.w.w.w.w.w.w.w.w.w.w.w.w.w.w.6.    o           O $.J $.  T %.  ",
"  (.I.  %.;.'.p s q l b b w b b i I V.) w.w.w.w.w.w.w.w.w.w.w.w.w.w.w.w.w.w.w.w.w.w.w.w.w.w.w.8.l l k w l b w b 7 Z x m   #.I.  ",
"o C.R.  ) @.'..                 o } E | w.w.w.w.w.q.o.o o     . . X . o o U.V.m.  C.(.  /.).'.O                   Z M S   T #.  ",
"  u.!.  w t c 8 l l l w w l w q g o.$.O.w.w.w.w.w.q.P w q M 7 q s 7 M 8 b U.C.V.  U.(.  U.Q.`.u w l l l l k k l a r w I   %.Y.  ",
"  i.I.. 0 < 1 +                   S.U.| w.w.w.w.w.q.B +     X     o     + @.%.m.  @.%.. ;.&.'.+                 X > , I   V.#.  ",
"  C.Q.  g 0 N ^ _ ) N t 0 B o.%.$.&.&.*.w.w.w.w.w.q.H b v b M M k w l A T &.V.%.  %.#.  Q.~.].Q.*.c 6 t B M l k 0 q b I   &.#.  ",
"  C.Q.  ;.;.Q.Q.Q.Q.;.O.O.@.i.&.&.U.Q.*.w.w.w.w.w.q.E P P I %.#.#.T I #.%.%.%.I   U.A.  F.~.'.).;.;.O.@.%.#.#.T T I I m.  #.#.  ",
"  Q.~.  '.'.{.`.'.~.;.W.;.S.^.&.S.^.W.*.w.w.w.w.w.q.I.I.R.U.C.V.C.C.V.%.%.%.#.T   &.C.X F.Q.).Q.i.Q.W.C.U.U.U.V.C.V.%.V.  @.@.  ",
"  ^.~.  `.'.`._.Q.Q.:.;.Q.^.^.&.C.C.i.*.w.w.w.w.w.q.T.V.I.I.&.V.V.V.%.%.%.#.%.#.  &.S.  ;.p.Q.W.U.W.W.U.U.I.V.E V.m.E V.  O.O.  ",
"  !.a.  `.'._.`.Q._.Q.Q.S.W.^.&.#.C.&.*.w.w.w.w.w.q.I.I.I.C.V.%.V.m.V.%.%.%.#.T   &.S.  S.^./.W.W.Y.R.U.I.I.V.V.V.m.E I.  O.O.  ",
"  !.;.  `.'._.`.'.).Q.W.W.W.i.#.O.&.;.;.w.w.w.w.w.q.I.V.I.V.V.%.V.V.V.%.%.V.&.%.  U.S.  F.)./.Y.Y.U.I.I.u.E E E V.r.E %.  o.O.  ",
"  ^.Q.  '.).`.{.'.).Q.!.W.W.W.%.#.C.p.:.w.w.w.w.w.q.V.V.V.V.%.%.%.%.m.%.&.%.%.&.  W.W.  F.).^.Y.C.I.U.&.E T E V.m.E E %.  %.O.  ",
"  W.'.  Q.Q.'.`.).~.W.i.U.U.U.T #.U.i.-.w.w.w.w.w.q.%.%.V.&.U.I.V.I.I.V.E #.P I   (.Q.  /.).S.Y.C.A.#.E E %.E m.E T %.V.  &.+.  ",
". Y.|.  `.~.)._.Q.&.@.U.U.U.^.U.%.V.V.:.w.w.w.w.w.q.%.%.D.m.m.+.R.^.C.E E %.#.J . i.(.. ).).(.^.U.V.%.E T T T V.m.T.R I.  E.I.. ",
". ).).  ~.'.d.a.).Q.&.^.U.V.U.%.%.I.V.-.w.w.w.w.w.q.O.%.C.m.I.U.U.C.U.V.V.V.#.T . ^.(.  !.).a.p.U.I.E E M.T E V.I.T.r.T.  I.u.  ",
"  /.Q.  a.  @   ~.Q.U.U.U.U.C.%.%.V.V.-.w.w.w.w.w.w.w.w.w.w.w.w.w.w.w.w.w.w.w.w.w.w.w.w.w.w.7.  V.&.E E E V.V.I.V.T.I.T.  V.u.  ",
"X /.!.. a.  *XX W.^.U.^.U.U.U.%.T %.%.O.w.w.w.w.w.w.w.w.w.w.w.w.w.w.w.w.w.w.w.w.w.w.w.w.w.w.e.  V.&.&.V.m.I.I.I.V.T.I.I.  E r.. ",
"  Q.Y.. _.O   O Y.^.U.^.I.V.%.I A T T O.w.w.w.w.w.w.w.w.w.w.w.w.w.w.w.w.w.w.w.w.w.w.w.w.w.w.7.  &.%.&.I.V.V.V.V.I.I.r.I.  T E   ",
". Q.Y.  +.;.).Y.Y.U.U.I.V.%.E H m P %.| w.w.w.w.w.w.w.w.w.w.w.w.w.w.w.w.w.w.w.w.w.w.w.w.w.w.e.+.O.J T I.I.I.I.V.I.E.u.T.o P %.  ",
"  } V + g ' + Q.C.U.&.m.%.E E A n P %._ w.w.w.w.w.w.w.w.w.w.w.w.w.w.w.w.w.w.w.w.w.w.w.w.w.w.7._ Z w M E T.I.I.I.I.I.r.T.  I %.  ",
"  @.u X u o   p.I.I.%.E E E %.A C T %.} w.w.w.w.w.0.  Q.).(.H.I.%.V.V.V.%.%.C.U.  Q.].  ).    ' N 3 9 T T.I.I.I.T.I.T.I.o R %.  ",
"  S.J   u     ^.V.&.%.V.E %.#.I A T %.*.w.w.w.w.w.0.  U Q.W.W.R.V.V.V.V.E %.&.C.  F.'.  Q.    O.c 6 N %.V.m.T.T.I.I.U.V.  #.#.  ",
"  S.$.  Z   X A.U.%.E T E %.%.#.K I I | w.w.w.w.w.0.  O./.U.i.I.V.%.m.E T %.A.C.  Q.'.  W.    O.y ^ &.U.T.I.T.I.T.I.V.V.  T #.  ",
"  C 3 . o.    &.%.%.T E E %.%.I A T #.| w.w.w.w.w.0.  p.'.W.&.%.V.T T E %.V.&.C.  ^.!.  F.    u 6 ^ C.U.u.I.I.R.I.r.%.V.  T o.  ",
"  @.O.. I   . #.%.E E E E E P J H T %.| w.w.w.w.w.0.  p./.^.^.%.V.%.V.T E %.%.&.@ &.!.  Q.    ^ N ^ o.%.I.I.I.u.I.E E %.  T #.  ",
"  I r   I X o S.%.E %.m.T V.E I I %.&.O.w.w.w.w.w.0.X S.F.&.&.%.E %.V.#.%.&.V.C.  ^.i.  |.  + V x S @.C.R.E E E E T T V.o %.%.  ",
"  O.w . H 3.X V.%.%.%.E m.V.V.E I V.V.-.w.w.w.w.w.q.+ $.A.U.&.I.T T m.V.V.A.U.C.  !.i.  ^.3.X Z x o.C.I.%.E P I.E E #.V.  B.#.  ",
"  +.V   T &.;.B.%.E E M.m.V.I.%.%.V.C.-.w.w.w.w.w.q.3.!.S.U.&.T E V.V.V.C.U.U.U.  ^.).@ I.Q.F.#.S.^.%.%.I.V.E T E m.%.%.  V.@.  ",
". &.U   Z.%.U V.m.%.E V.V.V.I.V.V.V.%.| w.w.w.w.w.q.F.#.C.R.&.I.V.V.T.C.T.W.I.&.+ ^./.  I.i.Q.^.U.C.A.%.E E E E E E %.T o C.U.  ",
"  %.C.  %.o.%.E V.V.V.I.I.I.T.V.%.V.&.| w.w.w.w.w.q.Q.^.^.U.I.%.T.T.V.I.U.^.Y.C.  ~.^.  U.p.Y.U.C.V.%.%.m.E T T E r.%.C.  I.&.  ",
"  @.A.  %.%.I.I.V.I.I.T.I.I.I.T T %.%.| w.w.w.w.w.q.Y.C.R.C.U.I.T.I.V.I.U.W.^.C.  ).^.  U.W.R.C.V.%.E E E E E V.V.T.V.I.  I.&.o ",
"  +.%.  %.&.I.I.I.I.I.I.I.m.V.T P E %.| w.w.w.w.w.q.U.U.U.I.I.I.I.I.I.Y.U.U.U.Y.  ).Q.  U.p.R.C.V.#.E m.E E V.V.I.T.I.I.  I.%.  ",
"  %.V.  V.C.T.V.T.I.V.m.E T T R A T %._ w.w.w.w.w.q.U.C.V.V.I.I.I.U.I.I.Y.U.W.!.  ^.^.  &.U.C.#.%.M.E E m.V.I.T.%.T.r.I.  E %.  ",
"  &.V.o I.U.T.T.V.m.E E E T E P P T %.| w.w.w.w.w.q.I.I.I.V.T.I.I.I.R.R.Y.U.W.!.  !.W.  V.W.I.V.m.T m.V.I.I.I.I.I.r.I.V.  %.%.  ",
"  C.C.  I.U.I.A.E m.E %.%.E m.P P T o./ w.w.w.w.w.q.R.I.T.I.I.I.I.U.R.U.Y.W.Q.^.  W.S.  &.i.C.%.%.V.m.I.I.T.I.I.I.I.I.V.  P %.  ",
"  &.C.  V.&.%.E T E T V.E E %.T I P #._ w.w.w.w.w.q.I.I.V.V.I.I.I.I.R.Y.U.U.W.U.  &.C.  %.&.I.%.V.V.I.I.T.I.I.I.C.m.I.%.  I I   ",
"  W.C.  V.&.V.&.T T T #.T T T I P T I _ w.w.w.w.w.w.w.w.w.w.w.w.w.w.w.w.w.w.w.w.w.w.w.w.w.w.w.w.! %.I.I.I.V.V.V.%.M.E #.  P o.  ",
"  ;.&.  A.;.%.%.I E T I T E P R P Y T _ w.w.w.w.w.w.w.w.w.w.w.w.w.w.w.w.w.w.w.w.w.w.w.w.w.w.w.w.! T m.V.%.%.%.#.V.P R T   I I   ",
"  &.u.  C.#.%./ I I I #.T #.#.#.| V.T | w.w.w.w.w.w.w.w.w.w.w.w.w.w.w.w.w.w.w.w.w.w.w.w.w.w.w.w.! T T V.%.%.%.#./ T G I   I o.  ",
"  *.&.  -.-.%.R I I P P I P P R W m.%._ w.w.w.w.w.w.w.w.w.w.w.w.w.w.w.w.w.w.w.w.w.w.w.w.w.w.w.w.~ E %.E T I P I L T P H . I E   ",
"  +.&.  #.+.S o                 o #.&.` w.w.w.w.w.w.w.w.w.w.w.w.w.w.w.w.w.w.w.w.w.w.w.w.w.w.w.w.=               o J U o.  J #.  ",
"  *.&.  O.| S d w l l l l l w b s T O.I   I #.X S I #.v w l b b n z l b b i.} @.X $.o.  A.;.+.f b l l l l l l l f S S A   A I   ",
"  V @.  3 b ) o                 o | P b . T #.  C %.@.  .         X       O.&.+.  O.&.. o.o.;.o                 o t d Z . I O.  ",
"X O.O.  9 2 N Q n n n l b l k l B J H P   I %.  C J S M w d a v v l l 8 j $.O.o.  =.}   &.@.o.^ 9 , 9 q l k b b t t 5 M . S S   ",
"  ) ..  ; < 6     . .             J E b   T J   b A M X .   @ o     .     =.Z B   _ $.  J +.) +   .   . .       + < 0 M . o.+.  ",
"  [ ^ o 2 6 ) w l l l l l l l b 8 T } j + A J   M S S b q l v k b k b 0 w O.J M   ] @.  _ S _ k v k k l k k b M d 9 2 y   I @.  ",
"O Z C % - : ; b w w b d 8 9 w C D Y  .8   J /   c C C l w l l q t : 3 t ] ;.^ e O @._ o ) o.c v d q d C 9 * * * > - 4 h o } Z O ",
"  j B X   @   o             .     o o   . Z ^ X   . .     .   .               . . [ { +   o   o                   O       B V   ",
"% } A Z } M J m J K A H J H A A A K Z h + z K _ b M C C A S S S }  .A.$.$.O.Z Z ....#.O./ C C J C Z C z M J H C H A I A Z J K + ",
".     X   X   .                 . . .   . X           o     o             X             . X                       .           # ",
"        X                       X   X                                 .                                       X       @   X X   ",
"J.3.P.J.5.>.L.L.1.1.<.2.P.2.<.1.1.L.2.J.4.4.P.L.<.4.4.<.<.<.4.2.2.,.,.4.2.2.2.2.J.1.P.L.2.3.P.2.4.4.2.4.P.L.P.1.K.[.3.P.K.>.2.K.",
"+X-X@XXX&X@X#X X#X@X=X+XOX}.OX#X%XOX@X@X XOX#X X$X$X#XOXOXOX#X%X@XOX@X#X#X#X@X#X=X=X=X#X X@X&XOX#X#X#X#X.X}.OX%X XoX@X&XOX&XoXOX"
};
