/* XPM */
static char *_73f93b8cc98495bf0ffd94c7beae6476FpkmJ3wi9fEjpvN[] = {
/* columns rows colors chars-per-pixel */
"64 64 191 2 ",
"   c #CEC9BF",
".  c #CEC8BF",
"X  c #CEC8C0",
"o  c #CEC9C0",
"O  c #CDC8BF",
"+  c #CDC8BE",
"@  c #CDC9BF",
"#  c #CDC8C0",
"$  c #CDC7BE",
"%  c #CCC8BE",
"&  c #BFBBB2",
"*  c #A3A199",
"=  c #A4A199",
"-  c #A4A19A",
";  c #A3A19A",
":  c #A3A09A",
">  c #A3A099",
",  c #A4A099",
"<  c #C3BFB6",
"1  c #60615D",
"2  c #727771",
"3  c #777C76",
"4  c #777C75",
"5  c #777D76",
"6  c #767C75",
"7  c #777871",
"8  c #5E605A",
"9  c #9DA199",
"0  c #A4A9A1",
"q  c #A4A9A0",
"w  c #A3A9A0",
"e  c #A4A8A0",
"r  c #8E938C",
"t  c #585D58",
"y  c #A3A8A0",
"u  c #979C94",
"i  c #9EA39B",
"p  c #959A92",
"a  c #616660",
"s  c #9CA199",
"d  c #75746F",
"f  c #9DA299",
"g  c #999E96",
"h  c #6A6F69",
"j  c #A1A59E",
"k  c #949991",
"l  c #A2A79E",
"z  c #60655F",
"x  c #9BA098",
"c  c #A5A9A1",
"v  c #8B8F88",
"b  c #939890",
"n  c #92978F",
"m  c #9CA29A",
"M  c #74756E",
"N  c #9CA19A",
"B  c #949992",
"V  c #A3A9A1",
"C  c #979B94",
"Z  c #90958D",
"A  c #9AA097",
"S  c #8F948D",
"D  c #75756F",
"F  c #666B65",
"G  c #8A8F88",
"H  c #74746E",
"J  c #5E605B",
"K  c #989D94",
"L  c #A2A69E",
"P  c #A4AAA1",
"I  c #74756F",
"U  c #5F605A",
"Y  c #9DA29A",
"T  c #A5AAA1",
"R  c #767A75",
"E  c #90958E",
"W  c #9EA49B",
"Q  c #A1A69E",
"!  c #8F948C",
"~  c #828881",
"^  c #575C57",
"/  c #9BA199",
"(  c #838881",
")  c #7E837D",
"_  c #757A74",
"`  c #A3A89F",
"'  c #989C94",
"]  c #888C86",
"[  c #A0A59D",
"{  c #717670",
"}  c #A0A69D",
"|  c #646863",
" . c #676C66",
".. c #959A93",
"X. c #A2A79F",
"o. c #5C615B",
"O. c #858A83",
"+. c #9CA099",
"@. c #7F847E",
"#. c #80857E",
"$. c #8B9089",
"%. c #949891",
"&. c #989E95",
"*. c #9A9F96",
"=. c #898E87",
"-. c #9A9E96",
";. c #777B75",
":. c #656A65",
">. c #989D95",
",. c #91968E",
"<. c #828780",
"1. c #868B84",
"2. c #5F605B",
"3. c #92968F",
"4. c #6B706A",
"5. c #898D87",
"6. c #74746F",
"7. c #848A83",
"8. c #797E78",
"9. c #A0A59C",
"0. c #888D86",
"q. c #8E938B",
"w. c #A1A69D",
"e. c #676C67",
"r. c #878C85",
"t. c #81867F",
"y. c #7F847D",
"u. c #9BA099",
"i. c #636862",
"p. c #CFC9C0",
"a. c #767B75",
"s. c #9A9F97",
"d. c #9DA19A",
"f. c #939891",
"g. c #939991",
"h. c #6F746E",
"j. c #9AA098",
"k. c #959991",
"l. c #5F655F",
"z. c #929790",
"x. c #82867F",
"c. c #959992",
"v. c #999D95",
"b. c #5D625D",
"n. c #A3A79F",
"m. c #9FA49C",
"M. c #A2A89F",
"N. c #848982",
"B. c #75756E",
"V. c #8B9088",
"C. c #8A8F87",
"Z. c #5F615B",
"A. c #8F958D",
"S. c #727871",
"D. c #787D77",
"F. c #696E68",
"G. c #A0A59E",
"H. c #969B93",
"J. c #939790",
"K. c #5A5F5A",
"L. c #9CA198",
"P. c #8E948C",
"I. c #757A73",
"U. c #7B807A",
"Y. c #A1A79E",
"T. c #A0A49C",
"R. c #CDC9C0",
"E. c #747973",
"W. c #6D726C",
"Q. c #CDC7BF",
"!. c #8A8E88",
"~. c #7E837C",
"^. c #5C615C",
"/. c #9FA59C",
"(. c #7B8079",
"). c #A0A69E",
"_. c #61635E",
"`. c #595E58",
"'. c #5C625C",
"]. c #5D625C",
"[. c #5D615C",
"{. c #595F59",
"}. c #7A7A74",
"|. c #C6C1B8",
" X c #B3B0A8",
".X c #B4B0A7",
"XX c #B4B0A8",
"oX c #B4AFA7",
"OX c #B3B0A7",
"+X c #B3AFA7",
"@X c #C7C3BA",
/* pixels */
"  . . X . . o o     O . . . .   O O   .   X . O   . . . O . +   O         O . O o O . o . o O .   .   O   . . .   O   .   . . O ",
"    . .   O . O . . O . . O O X O   O O   + . . O O O O O O O @ . O     O +     O o   O . . . O . . O O O .   o . . . @ .   O . ",
"o @   . .   . . . O   O O O + O O O . O O . O O . . O + O O O o o . . O . O . O O O O O O O O   .   .   O   O O O . . . o O O   ",
".   . . . o O   o o . O   + O   O . O . O O O O . O O O . O . O     O O . O O O O O . .   . O . o o O   . O . O   . O   o .   # ",
"O O . O O @ o O O . O . O O O O O   . O O O O O O O O O O   O O O O O . + O O   O O O O O . . O O . O O O O .   .       o . .   ",
"o O O O . . O . O O O . . o   o O O O . . . O @ O o O O O @ O .   O O   O O O +   O O @   . O       O o O . . O O   o O O . . @ ",
".   o . . O . . .   O O . O O O O O + O @   + O O . O O O O O O + $ O O O O O O O O o O     O . O O O O . O . . o   . . .   . . ",
"O O O . O X .   O   O O O O O % O O O O O + O @ . o O O O O O . O O O O O O O O O O O O O .   .   @ O O . . O O .   O   O o O O ",
". O   O O o   . O & * = - - ; * ; : * - ; * ; > - > > - - * - * * * > ; = = , - - * * * = * , > * * - - = ; < O .   . . .   O . ",
". o   O . O . . O 1 2 3 3 3 3 4 3 4 4 4 4 4 5 3 4 3 3 4 4 4 4 4 3 3 4 6 4 3 3 6 4 4 4 4 4 4 4 4 3 4 3 4 3 2 7 . O . @ O .   O X ",
"  . . O O O . O O 8 9 0 0 0 q w q 0 0 e w r t 0 y q q e u w y 0 q q q e 0 i e q q q 0 q q q p a i q 0 0 q s d     O   O     O   ",
"@   O   O O O O O 8 f q 0 g h y 0 q 0 q q y j q 0 0 0 q k l z x c 0 q q 0 v 0 y w e 0 0 q 0 q b n 0 y q q m M   O O O . O . O O ",
"  .   O O . . O . 8 N 0 B q e q q q 0 V q q 0 q 0 q 0 q w y q q y q 0 e q q C t 0 0 0 q Z A q q 0 q 0 S p s D O   O   o O O O . ",
". O O O O O O   O 8 s q F S q q q q q p e y e 0 e e y q q q q q q w q q q q y q q e q 0 y y 0 0 q q q G s s H O . O O O O . X @ ",
"O O O O O . O O O J s q q 0 q 0 q q 0 K 0 q q e q L y q 0 q y 0 w y q q q q 0 y e q q q e q 0 q 0 q P q q s I   o   O O O o O . ",
"  @ o O . O o   O U Y q q q y q w y y 0 q 0 q e T R q q e q y x E y q q q 0 q q w q q W 4 q e 0 0 q q 0 0 s D O     O o     O . ",
"o O O o O . . O O 8 9 q q q 0 q y 0 q e w 0 q 0 y 0 q 0 q q w Q 4 0 q q q q q q q 0 0 l ! e y w q 0 0 ~ q s D     o . X O   + O ",
"  O .   . O O o O 8 f q i 0 q q i ^ s e q q q c q q w 0 q q e y q 0 q q 0 q 0 q 0 0 q 0 q q q q q 0 q q q / D o O . .   O . @ o ",
"o O   O O O . O O 8 9 ( ) q q y y w q q q q q e q q e q e w q q q q y q q _ x q q q 0 w w q y q q q q 0 e s D O   O   @   O .   ",
".   O o . O O . O 8 9 w w y e q q y q q q q e ` q 0 q e e u ` e q e q q q y y q q y q q q q q e q P ' 0 q s I O   .   . O .   o ",
"  O . O   O O O o 8 9 q y y y q q q q q q y e w q ] q q [ { } q q 0 y q e y y q q q q q q e | Q e q  .` y s D X @ @ O O   O O o ",
". @ O o O o O   O 8 Y q 0 q 0 q q e q e ..P y e q y q q 0 q y q q 0 X.q y q e 0 o.s q q q q O.X.q e q e q +.D   . @ O O .   O . ",
"  O o     O . O O 8 9 0 y @.( q ` q q q #.$.y q ` 0 P e q 0 q q q Y %.q q q 0 q &.q q y e q y q 0 q e q 0 s D o . O . . . o   o ",
"  O O . . . . O o 8 f q q e w q q y y y y q y y e q q q q y e q q w w e q q e y q q q y q q w q q q q q q s D   O O   O O o o o ",
". .   o . . .   O 8 9 e e q y q q q q q q P q q e y q y q y y q q e y e q q q y e w 0 q 0 q q q y y *.g q s d   o . O O O   . o ",
".   . . o O @ . O 8 f y 0 q e 0 q q q q y 0 q q y q Q q q e e y 0 q q i w 0 q 0 w 0 0 y X.=.q w y q -.Y q +.D     o o O O O O O ",
"O . . O O     O o 8 9 e f L e e 0 q ;.w y q q q q 0 :.>.q e q e q 0 y 6 ,.e q e q q q w q j e e e q 0 y q x I O . . . .       . ",
"O .   O . o O O O U f w <.g y 0 q w 0 q 0 q w e q q q y q q e 1.y e y e y y q e w q q y w 0 e q q w q q q s H   O O . O     O   ",
"@ @ . .   O o O O 2.s e y y e q 0 q e q q q q e q w y y y y y 3.y y ` w y q q w y 4.5.y e q q y 0 q q e q s 6.  o O .   O . . o ",
"X O . O . . O O O 8 9 y q e q q ` q w q q 7.8.q y e q q q y y y y q y y w 0 e 0 q 9.q e y y y y q 0 ( 0.y / I   . @ O O .   . X ",
". O O O .       O U s q y w q S q.q y y y L y q q 0 q y q q q ` q y q y w.y y q y q q w e q q q y q / ,.q s D . . .   O . O . o ",
"o O O @ O O O . O 2.Z S q q e y y q w 0 q e q q q q q ` q q w q w y q q e.r.y y y q y q y y t.y.` y q y q N I .     . O o       ",
"        O + O   O 2.s X.y q y q q 0 q q e 0 w q q q q q q e y y q y ` y l Y e q q q w q y q y y q q e y q u.D O O   O . .   . O ",
"  O O O . O o + . 8 s 0 y q 0 ` y q q q q w q e e y y ..i.y e q y q y y q y y y q y y y q y q q q q q y q s I O . . . O p.. o   ",
".   o   o .     O 8 9 q q e 0 w w q ` q e q y k b e q e q q y y q q y y q y q e y y y q y ` y y q q q ` q s H O @   O O . o .   ",
".     @ . .   O O U Y q e e q y a.0 y w q q q y y 0 q q e q y e s.a.q e y e 0 q q q q q d.q y q q q y q y N 6.O O O O . . O   o ",
".     . .   . O O U d.f.o.c y e <.y.q y q q e q e y q q q q q e s g.e 0 y q y e ` q q r h.q 0 q q w q i q s D   . O   . . . .   ",
". . . O .   .   @ U s 0 j.q q q e y q q 0 q e y q e y q q q q q q q e y e q y 9 k.e q P q q q q q w e l.C u.I . . O . O   . .   ",
"      . . .   . O 8 9 0 q q w q q y ` w e q q q y w.z.q q q y q q e e y y y q q e q q q q q e E [ y q e q / D O   O . O . . o o ",
"O O o . O . .   O 2.9 e y e e q q y y y x.Y y q y <.c.q q q y e w y y y q y q w q q q q q q w u Q y q y y s H   O O . o O O o O ",
".     O O     . . J 9 q k v.e e w y e y y y q q q y y y y y e 4 q q ` y b.z.q w q 0 n.y y e q y q q y e ` s D + O O O @ o o O o ",
"O O O @ O O O O . 8 s e m.[ q q w w q y q w q q w y w y q q q 0 y q y e n.M.q e y e N.q q q e y q q 0 q q / B.. @ O   + .   O o ",
"O O o O O O O   O U d.y 0 0 q y V.C.y w e q q q y e ` w y 0 q q y 0 e e e e e e q ` e y q q q q e q q q q u.I . O o @   O     . ",
"  O   . O . . o O Z.s q q q w ` =.9.e e V y q q q 0 y A.e q e w y y q e 0 y w w y q q q w q S.D.w q q 0 k s D @     O     o o   ",
"O O O   O . O O O 8 s q w q q q q y w w q q q q 0 y y F.E y e q ` q w q q q q 0 G.0 y w y q 0 g e 0 y q H.s D . O . O o o   o   ",
"o O O O . O O . O J s y q q y e w y ` y w ` y e w y w q y e y 0 q J.V.y w e y y K.[ q y y q y y 0 y 0 y y L.M . @ O   O O . . O ",
"  O O   O O O O . 8 s G P.q w q y y w y I.>.y q q q y y y q 0 y y k Y ` q q w q y q q w y e q e w y q y y s D   . O O O O @ @   ",
"  o   @ O O @ O . 8 s m.U.w e q y q w e ( q e q q q q w q y q q q y q q q q y q e q q y q q q y w Q 2 q w s M O O .   O .   . O ",
"o O O O   O O O O 8 s y e 0 y w w 0 q y y y w q y y q Y.q q y 0 y q ` y q y e q 0 q w y g r q q y T.q.y y s D O O O O O O . O . ",
"  . . O @ R.O O O 8 s e 0 0 q w e y y y y q q y 0 q E.G q y w q y y e ` W.w.y y q e q e L Q q q q w y y y s 6.O O .   @ O o O . ",
"o   O O O . O   O 8 s q y q w r 0 ` q 0 w y w y y y y y y y y y q e w y E s e q e y y e w e q y q y w y q s I .   O   O . @ o O ",
"O   O O O Q.O O . 8 N B s.e q a.!.e q e q ~.q 0 e q e e y e 0 q ~.0 e q e w q q T ^.x q 0 q e q q q O.u 0 s M . . O O O O . . O ",
"  O O O . + o . O 8 s s [ q e q y w e q 0 y q q q e y q q q q Q N.y 0 y q e y e 0 >./.e q q q e q Q (.).y L.D O O @ @ . .     O ",
"  O .   O .     O 8 s q 0 q q e w y 0 e q y q 0 0 e y y e q q q y e y 0 q q q y q y q w e q P q y w y y q f 6.O O O . . . o . @ ",
"    o O o . O O O _.`.^.'.].^.'.^.'.^.'.'.'.].].].].^.'.'.^.^.].^.^.^.'.[.'.^.].^.^.].].'.'.].^.'.].^.[.^.{.}.O     . O O . . . ",
"o . o   .   o o . |. X.X XXXoXOXXXXXXXXXOX X+X+X XXXOXOXOX XXX.X+XOXOXXXXXOX.X XOXOX X+XXXXX+XOXXXXXXX XXX.X@X  o . o o   . o   ",
"  o o     O   . . O O O O O . . O O + O O O O O .   @ . . . O . . O O O o O O . . . o .   . O . . O   O . O O O   o .   o .     ",
"o O   O O     .   O . O O . O . O . o   . .   o o . O o . O O . O O O   . O O O . O O O +   O O O .     O . O   o .   . O . O . ",
".     o o o o   .   .   O O     .   . o O . O O       O .   . O O O   O O O O O O O O . . o   O     O O . O . @ o . o   o . . O ",
".     .     .   O o O   . O O O O .   O o O O .   O O O o O   O O O O O O O O O O . + . o   O . O O O @ . o O .   . .   o     o ",
"O         o o . O   O @ O . O O o O O O . O . O   O O O O O   O O   O . O O X O O O O O . o   O O O O O O O   . X .     . . O O ",
"    O O   O O . O O @ . O O O @ . O O O O O O O O       O O O .   .     O . O O O O . O O o . O O @ . O O   @       . X . . . o ",
"O   . .   O . .   . +     O O O . O . o o   O O . . O O     O . . . O   . . . O . O   o . .   O O O   O o o . . o .   o     O O ",
"O O O . o   O O O     O O O @ O   + .   O O O O . . O O   O . . . O O . O . O O O . o . O O O O O O O O O o   O   .   o O . .   "
};
