/* XPM */
static char *north1748044947[] = {
/* columns rows colors chars-per-pixel */
"64 64 212 2 ",
"   c #010102",
".  c #090102",
"X  c #000902",
"o  c #02020A",
"O  c #0A030B",
"+  c #00090A",
"@  c #0A0809",
"#  c #140200",
"$  c #000211",
"%  c #040812",
"&  c #330303",
"*  c #083838",
"=  c #490000",
"-  c #7D0203",
";  c #183E43",
":  c #1D4A48",
">  c #164347",
",  c #1E5356",
"<  c #234B4A",
"1  c #244849",
"2  c #284A53",
"3  c #235354",
"4  c #2B5454",
"5  c #245C56",
"6  c #235458",
"7  c #255C5C",
"8  c #2B5D5D",
"9  c #2B5858",
"0  c #325D5C",
"q  c #355858",
"w  c #2A514E",
"e  c #2B6057",
"r  c #25645C",
"t  c #2B615E",
"y  c #256458",
"u  c #34625C",
"i  c #3B635F",
"p  c #33695B",
"a  c #265E60",
"s  c #2B5E61",
"d  c #2F5F69",
"f  c #325F65",
"g  c #256263",
"h  c #2B6163",
"j  c #2E646A",
"k  c #2E6C69",
"l  c #346364",
"z  c #3A6261",
"x  c #3D6B65",
"c  c #34656A",
"v  c #3C646C",
"b  c #346B6C",
"n  c #3B6B6C",
"m  c #376A64",
"M  c #35726D",
"N  c #3C736C",
"B  c #2E6E70",
"V  c #356D71",
"C  c #3C6C72",
"Z  c #3A6974",
"A  c #2D7974",
"S  c #347275",
"D  c #3B7375",
"F  c #3B7973",
"G  c #3C757A",
"H  c #3E7A7D",
"J  c #357778",
"K  c #425A59",
"L  c #705A5B",
"P  c #695F62",
"I  c #645F62",
"U  c #715D60",
"Y  c #426A67",
"T  c #446C6C",
"R  c #4A6C6D",
"E  c #45656D",
"W  c #59686C",
"Q  c #45726D",
"!  c #49746D",
"~  c #436C73",
"^  c #476A75",
"/  c #516F73",
"(  c #437475",
")  c #4A7474",
"_  c #447A75",
"`  c #4B7A76",
"'  c #43767A",
"]  c #4A757A",
"[  c #437B7D",
"{  c #4B7C7C",
"}  c #527474",
"|  c #51767A",
" . c #537C7C",
".. c #5E7B7B",
"X. c #527975",
"o. c #52736A",
"O. c #6D6364",
"+. c #6E6569",
"@. c #636C6C",
"#. c #716465",
"$. c #726769",
"%. c #7A6064",
"&. c #6B7475",
"*. c #6C757C",
"=. c #6D7A7D",
"-. c #677676",
";. c #717A7D",
":. c #71757E",
">. c #6D6C74",
",. c #940000",
"<. c #A90101",
"1. c #BC2C2E",
"2. c #A93A3C",
"3. c #B33536",
"4. c #C00001",
"5. c #CF1C1D",
"6. c #DE1616",
"7. c #D11D1E",
"8. c #E60000",
"9. c #ED0B0B",
"0. c #F50404",
"q. c #FF0000",
"w. c #F1090A",
"e. c #E40F10",
"r. c #E21212",
"t. c #D11E20",
"y. c #C42829",
"u. c #D42222",
"i. c #8C494A",
"p. c #944649",
"a. c #8B5555",
"s. c #8D5659",
"d. c #84595A",
"f. c #895959",
"g. c #915659",
"h. c #925A5C",
"j. c #925957",
"k. c #AA4142",
"l. c #975F61",
"z. c #39817A",
"x. c #43827D",
"c. c #4D807E",
"v. c #4A8777",
"b. c #54817D",
"n. c #5B857E",
"m. c #558077",
"M. c #60897E",
"N. c #BB9719",
"B. c #C6951D",
"V. c #CA961E",
"C. c #C4991B",
"Z. c #C99A1E",
"A. c #C59521",
"S. c #CB9621",
"D. c #C69921",
"F. c #CA9B24",
"G. c #CB9E29",
"H. c #D29824",
"J. c #CBA128",
"K. c #3D7C82",
"L. c #3B7881",
"P. c #426F83",
"I. c #447283",
"U. c #437D81",
"Y. c #4B7D82",
"T. c #4D7B8C",
"R. c #497582",
"E. c #527D82",
"W. c #587F81",
"Q. c #4F7E90",
"!. c #517B93",
"~. c #6C7B82",
"^. c #6B7983",
"/. c #727A83",
"(. c #717581",
"). c #458284",
"_. c #4B8284",
"`. c #458389",
"'. c #498489",
"]. c #4C8983",
"[. c #538383",
"{. c #5B8483",
"}. c #548985",
"|. c #5C8986",
" X c #55858A",
".X c #5C8589",
"XX c #548A8A",
"oX c #5C8A8A",
"OX c #5D8E93",
"+X c #638685",
"@X c #628A86",
"#X c #628A8A",
"$X c #65868B",
"%X c #68908F",
"&X c #7E918F",
"*X c #7D9993",
"=X c #768183",
"-X c #7DA099",
";X c #85948B",
":X c #839594",
">X c #859A96",
",X c #899C96",
"<X c #869A99",
"1X c #8A9C9B",
"2X c #869599",
"3X c #939796",
"4X c #898B88",
"5X c #8DA39E",
"6X c #8FAAA3",
"7X c #F7FEFE",
"8X c #FEFEFE",
"9X c #FFF7F8",
/* pixels */
"8X8X8X7X9X8X8X8X8X8X8X8X8X8X8X7X8X8X8X8X9X8X8X8X8X8X8X8X8X8X8X8X8X8X8X8X8X8X8X8X8X7X8X8X8X8X9X8X8X8X8X8X8X8X8X8X7X8X9X8X8X7X8X8X",
"      +   X                                                                     .     X                                   @     ",
"Z.G.S.B.H.N.V.H.S.S.V.S.F.F.S.V.A.G.D.B.D.D.B.Z.S.S.S.V.V.V.S.V.Z.B.B.B.D.B.D.F.C.B.F.B.D.A.G.F.S.V.F.V.S.S.S.V.H.Z.N.J.B.A.C.C.",
".     .   X                     .   .                     .       .   .         X         . . .                 .       . o   # ",
"  T.' / R.R.[.'.{.{.[.b.b.{ { _ M [ ] S ] V Z R.D ' [ ' ' ' ( ( G G D D D D S D ~ I.S { b ~ V F { [ { Y.Y.Y.Y.Y.H [ K.' Q J I.o ",
"  ( v.X   O .         .                   X.X.+         .       . .   .     o   + ) )   X                 .         o     M G   ",
"  R.[.   .$X{.{.oXoX|.XXXX[.Y.[ b [ ` N o _ _   D ` ` ` [. .X.X.{ [ { ' _ [ ' F   ] G . v.Y.Y.v.{.{.b.[.{..X{.[.[.].' (   A I.  ",
"  Q.'   _. X|.{.@X{.|.oX|.}._.{ L.' R.V $ F _ . V [ _.Y._.E.` [.[ [ H H U.U.G G   [ U.o _ T.Q._.)._._._.[._.Y.{ U.A T.K.. L.L.. ",
"  x.).  Y.) {.+X#XoX.XXXoX X[.{ ) G H V   R.G   ~ Y.{ ] [.#X_.oXXXb [ ' { K.H '   [ _.  '.c._.n.[. .{ Y. X.X[.[.) _.[ G X G [   ",
"O [ ).. ] _ {.o   . .   .   . <.4.t.u.5.4.t.5.<.V [ ( +   o   . .   . o o G J S o _.[   %.u.u.4.<.4.<.            { [ '   U.[   ",
"  ).).X _.{.{.5 8 s 8 7 8 s 0 q.q.q.q.q.q.q.q.q.i.{ x.7 g 8 g a a h h 5 7 [ ' '   _.[   d.q.q.q.q.q.9.h h 8 s s y Y.] U.  K.).  ",
"  _._.   X{.{.O             . q.q.q.q.q.q.q.q.q.0.) _ o . .   . .   . o . x.R.U.  ' _.  s.q.q.q.q.q.8.          O ] V ]   G '   ",
"  XX).  [  .#Xy t 7 h h h 8 8 q.q.q.q.q.q.q.q.q.q.1.).7 g s g g g a a 7 g U.U.Y.  ].[.@ d.q.q.q.q.q.9.8 s h 8 h 5 v f k   ' ).  ",
"o { '.  E ` #X.             . q.q.q.q.q.q.q.q.q.q.q.L o . o   . .   .   o _.U.K.  _.XX  h.q.q.q.q.q.8.            v l n   G '   ",
"  x.}.  8 0 i 4 s s s 8 8 s 0 q.q.q.q.q.q.q.q.q.q.q.6.9 5 u , t r r l 5 u [ _.U.  c.XX  d.q.q.q.q.q.9.7 7 s s s e q 8 D   [ _.  ",
"  c.).. 8 : 1 +             . q.q.q.q.q.q.q.q.q.q.q.q.-     +           + { [ U.  ' _ . a.q.q.q.q.q.8.          + > , D   U.'   ",
"  Y.{.  u 9 f R R T z 0 0 l R q.q.q.q.q.q.2.q.q.q.q.q.q.K a h c s s s b D U.U.[   [ '   g.q.q.q.q.q.9.8 m c s s 7 7 h D   { '   ",
"  Y.{.   .{ n.+X{.{.| ) ) `  .q.q.q.q.q.q.O.t.q.q.q.q.q.5.D ' ' ' D D G [ [ [ G   { Y.  g.q.q.q.q.q.w.` ' ' ' D ' D D U.  [ _   ",
"  {.|.  #X#X%X+X@X{.W.n.E.[.W.q.q.q.q.q.q.O.@.0.q.q.q.q.q.d.Y.Y.Y.U.U.{ [ [ G '   [ Y.X s.q.q.q.q.q.9.Y._._.Y.U.U.U.I.U.  ] `   ",
"   X|.  @X#X@X+X@X{. . .[.[.W.q.q.q.q.q.q.O.{ - q.q.q.q.q.9.{ { U.U.[ [ [ ' ' '   Y.Y.  a.q.q.q.q.q.w._._.).U.U.U.K.H [   ) )   ",
"   Xn.  @X#X@X@X|.{.{.[.[.[.W.q.q.q.q.q.q.+.{ . e.q.q.q.q.q.3.U.U.U.U.[ [ [ ' '   { E.  a.q.q.q.q.q.w.'.'.).U.H ).K.H ).  ) )   ",
"   Xn.  @X#X@X@X@XoX{. X[.[. .q.q.q.q.q.q.$.{   L q.q.q.q.q.q.O.U.U.U.U.[ [ { [   [.Y.  s.q.q.q.q.q.9.).x.G H U.K.K.[ H   ( )   ",
"  [.[.  @XoX@X%X#XoX{. X[._.W.q.q.q.q.q.q.+.{   S 1.q.q.q.q.q.6.[ U.[ H [ [ [ [   }.W.  h.q.q.q.q.q.9.U.[ H H U.H H H [   ' )   ",
"  [.#X  {..X@X@XoX|.b.[._._.E.q.q.q.q.q.q.+.{   G } w.q.q.q.q.q.p.).).U.[ ' D D   XX X  h.q.q.q.q.q.9.H H H K.H H H [ ).  { _   ",
". }.%X  $X|.|.+X{.c.{ c._._.E.q.q.q.q.q.q.+.{   I.L.i.q.q.q.q.q.0..._.K.H [ ' C . b.XX. h.q.q.q.q.q.9.H H G G U.U.U.z.`.  '.x.  ",
". XXoX  |.#XM.n.oX{.{ _._._. .q.q.q.q.q.q.O.c.  V [ ` 6.q.q.q.q.q.y.Y.U.U.[ ' D    XXX  f.q.q.q.q.q.9.H G H G U.`.'.z.).  ).x.. ",
"  .X X. M.  @   |. X[._._.Y.{ q.q.q.q.q.q.O.{ o k + . & q.q.q.q.q.q.U _._.x.R.[    XXX  h.q.q.q.q.q.9.H H K.U.).U.'.).).  U.x.  ",
"X .X}.. n.X 4X  [.[._.XX_._.E.q.q.q.q.q.q.O.{   Y   3X  3.q.q.q.q.q.9.[._._.' [   #XOX  a.q.q.q.q.q.9.U.U.U.).).U.`.K.`.  U.z.. ",
"  {.}.. +Xo   o [.[._.'._.).] q.q.q.q.q.q.O.{   E o O   n.w.q.q.q.q.q.2.).[ { {   {.oX. g.q.q.q.q.q.9.).).[ ).).).).z.).  G H   ",
". [.].  _  .oX].[.'._.).U.[ _ q.q.q.q.q.q.P {   b ( x m.c.s.q.q.q.q.q.q.W ' [ { . {.XX  f.q.q.q.q.q.9.'.).K.).[ ).`.].).o G H   ",
"  R n + i W o }.'._.[ [ [ U.( q.q.q.q.q.q.P {   7 q % ` { OXu.q.q.q.q.q.7.[ { _.  n.{.  a.q.q.q.q.q.9.H `.).).).).).x.`.  G H . ",
"  ` q   q     b._._.H H G H ' q.q.q.q.q.q.P {   4   O |.oXXX>.0.q.q.q.q.q.i.Y.[.  {.#X  h.q.q.q.q.q.9.G `.`.).).).).`.`.  J H   ",
"  E.C   q     E.Y.[ H U.' U._ q.q.q.q.q.q.+.{   7   . F [.b._.k.q.q.q.q.q.w.} Y.  {.@X  h.q.q.q.q.q.9.[ ).K.`.'.`.)._.).  ' '   ",
"  E.]   v   X Y.).[ [ H H [ ] q.q.q.q.q.q.#. .  n .   _ .X[.c.Y.r.q.q.q.q.q.1.Y.  {.#X  a.q.q.q.q.q.9._.).).`.K.`.).[ ).  D '   ",
"  c 2   )     { [ [ G G G U.] q.q.q.q.q.q.$.[.  X.. . b.#X X_.[ U q.q.q.q.q.q.#.  }.}.  s.q.q.q.q.q.9._.[ ).'.'.).K.[ [   G (   ",
"  { ) . D   . ' ' [ U.H G H ( q.q.q.q.q.q.#.Y.   .    b..X X_.U.U.1.q.q.q.q.q.r.O { }.  h.q.q.q.q.q.9.[ ).).).x.).H [ [   G '   ",
"  ( 4 . G   + [.[ [ [ K.H U._ q.q.q.q.q.q.#.{   ) +   E.E.{ { R.H / 0.q.q.q.q.q.- {.c.  l.q.q.q.q.q.9._.'.H J [ H G ' U.o ' '   ",
"  _ 8 . V -.+ [ [ K.[ H H R.{ q.q.q.q.q.q.O.{   | -.  { E._.{ U.G H p.q.q.q.q.q.0.&.c.  h.q.q.q.q.q.9.).[ G J ).H H G U.  U.'   ",
". _ n   G `  .I.[ G H G K.U.Y.q.q.q.q.q.q.O.{   ' {...XXY._.Y.G H U.U.6.q.q.q.q.q.u. XO d.q.q.q.q.q.9.[ ).).[ D H H [ H   R.{   ",
"  ` F   T.[ F U.U.K.U.K.U.U.Y.q.q.q.q.q.q.O.{   '  .W.{ Y._.{ ).U.U.).+.q.q.q.q.q.q.j.. %.q.q.q.q.q.9.R.G H H H H K.[ K.  '.Y.  ",
"  [ Y.  G [ [ H U.U.U.).).U.Y.q.q.q.q.q.q.O.`   ) [.[.[.[._._.U.`.`.U.).3.q.q.q.q.q.9.# f.q.q.q.q.q.9.H K.H G H [ K.[ _.  _.[ . ",
"  { R.  [ _ ).).U.).).'.`.).{ q.q.q.q.q.q.+.{   ( [.[.Y._._._.U.`.).U._. .w.q.q.q.q.q.,.d.q.q.q.q.q.9.H H G H U.[ `.[ U.  ).U.  ",
"  ' [   [ [ ).).).`.).).).K.{ q.q.q.q.q.q.O.{   ( Y._._._.).`.)._.).).'.'.a.q.q.q.q.q.q.2.q.q.q.q.q.9.K.H H K.U.).`.).).  U.[   ",
"  ' Y.  U.Y.'.U.).).K.U.H H ( q.q.q.q.q.q.O.{   ( _._.Y.U.U.).).).).x.'._._.u.q.q.q.q.q.q.q.q.q.q.q.9.[ K.U.)._.x.`.).).  [ [   ",
"  { U.o _._.'.`.U.U.H H H G ' q.q.q.q.q.q.O.{   D _.).U.).).U.`.).)._.'.].].&.q.q.q.q.q.q.q.q.q.q.q.9.U.).).).).K.).).Y.  G [   ",
"  Y.Y.  '.Y.U.U.G K.H K.[ [ ' q.q.q.q.q.q.O.{   D _._.).).).`.).).).'._.[.[.{.k.q.q.q.q.q.q.q.q.q.q.9.).).`.).`.).).).U.  G [   ",
"  _.Y.  U.[ [ H H H G U.H H ' q.q.q.q.q.q.O.{   D ).).).U.U.).).).)._._._.[._. .8.q.q.q.q.q.q.q.q.q.9.).'.).).).).K.[ U.  G F   ",
"   .Y.  { c.[ R.G G D ' G G ' q.q.q.q.q.q.O.{   S x.H H [ K.).U.[ '._._._._.{ { = q.q.q.q.q.q.q.q.q.9.).U.U.U.U.[ H H G   D '   ",
"   .{   E.E.' [ G G G D G G ( q.q.q.q.q.q.O.[   D H H K.K.K.'.U.K.K.U.U.[ [ ` `   y.q.q.q.q.q.q.q.q.9.).H [ [ ' K.S H G   D D . ",
"  c.x.  Y._ ' E D D D G G G _ q.q.q.q.q.q.O.Y.  ~ H H ' T x.S _ [ G [ ] Y.' { ~   -.0.q.q.q.q.q.q.q.9.[ [ [ [ ' E H B D   D D   ",
"  ) {   | | [ J D D S D D D G D A U.' D   H [   D D H z.K.U.I.G S _.' x.c._ ! !    .{   [ W.).z.U.H H H G D D D A G D V   C _   ",
"  _ {   ' [ x o                 o ] U.n . G [   V H ( + o     . .     . + X.' ]   ` { . Y.' [.o                 o V F (   D '   ",
"  } ] . ) R x h 7 s s s s s 8 g y [ ' (   D '   n D ( g t 8 h h j c s g k { ~ ]   ] _   { | _ r h s s s s h s s r T n V o c F   ",
"  x '   6 h T o                   ~ S h . G '   b G ) + .   X             o.{ _   ) { . ( (  .o                 o 0 t v . D _   ",
"  ) )   3 < z i c j j s h s a s x C V S   D {   c V n z 8 h e g g 7 8 8 t ] ] (   X.~   { ` ( Y 6 , , 7 s a h h u 0 4 h . n n . ",
"  T ( . > < q   .   .             Z H h   G V   h b z + .   o .   . .     } x m   R ]   V { Y o   .   . .       o < 9 l . D )   ",
"  ! Y o w 4 n 8 s s s s s 7 s f e D ~ p X b Z   l n n h 8 s g a h a l 6 s _ ~ f O N o.o T n R a g 7 a a a a s l r 6 4 u   ~ `   ",
"O v c o * 1 > h t 8 8 8 9 7 h l b G P.8   C ^   f c c s 7 s s 7 8 : 3 0 T  .x q o X.R o E _ f g h 7 h c 6 * * * : ; 2 z o ( v O ",
"  p m + . @   o                   o o X . Y Y     . . . .   .   X             .   ! o.+   o o   .     .       X   O       m x   ",
"$ ~ b v ~ n n B C V V V V Z b b b V v i o d Z R h l c c b n n n ^ ^ R.] ] ] v v ^ ~ ] ) E c c ~ c b c s c C V c V V C b ~ V C o ",
".     X   X   .                 . . .   . X           o     o                           .     .       .         . .           # ",
"                                X                                     .                                               o         ",
"=.=.(.~.*.-././.*.*.*.;.;./.=.&.*./.*.=.=.;.:./.=.;.;.&.&.=.;.=.=.&.&.=.=.=.=.=.~.*./.~.=.=./.=.=.;.=.*.:.;.~.*.^.=X-.^.^.-.=.=.",
">X6X,X-X3X,X1X*X<X,X1X<X*X&X:X>X2X:X,X5X*X:X,X*X1X1X1X:X:X:X>X<X,X:X1X,X:X>X5X>X5X5X5X>X*X>X3X:X<X<X1X,X:X&X:X<X*X;X,X3X*X3X;X:X"
};
