/* XPM */
static char *South1748044947[] = {
/* columns rows colors chars-per-pixel */
"64 64 223 2 ",
"   c #010102",
".  c #0A0102",
"X  c #000903",
"o  c #02020A",
"O  c #0A020C",
"+  c #00090B",
"@  c #090804",
"#  c #140002",
"$  c #180200",
"%  c #000310",
"&  c #080113",
"*  c #250104",
"=  c #3A0202",
"-  c #083838",
";  c #550201",
":  c #183E43",
">  c #1D4A48",
",  c #164347",
"<  c #1E5655",
"1  c #234A4A",
"2  c #264C52",
"3  c #235354",
"4  c #2C5455",
"5  c #245C56",
"6  c #245459",
"7  c #265C5C",
"8  c #2A5D5D",
"9  c #2B5858",
"0  c #315352",
"q  c #325C5B",
"w  c #355A5A",
"e  c #2A514E",
"r  c #1E6457",
"t  c #25645C",
"y  c #2B615E",
"u  c #276357",
"i  c #33625B",
"p  c #3B635F",
"a  c #33695B",
"s  c #265D61",
"d  c #2A5E61",
"f  c #2F5F69",
"g  c #355F62",
"h  c #266263",
"j  c #2B6163",
"k  c #2F6469",
"l  c #2D6B6B",
"z  c #336364",
"x  c #3A6262",
"c  c #366A64",
"v  c #3D6A65",
"b  c #34656A",
"n  c #3C646C",
"m  c #346B6D",
"M  c #3B6B6C",
"N  c #35726D",
"B  c #3C736C",
"V  c #366D71",
"C  c #3C6C72",
"Z  c #3A6974",
"A  c #2D7974",
"S  c #357375",
"D  c #3B7375",
"F  c #3B7973",
"G  c #36747E",
"H  c #3C757A",
"J  c #3E797D",
"K  c #347B77",
"L  c #2E6E70",
"P  c #445555",
"I  c #5A5D5E",
"U  c #52504C",
"Y  c #79484A",
"T  c #6D5659",
"R  c #7B5A5B",
"E  c #7B5757",
"W  c #684547",
"Q  c #5E5E62",
"!  c #6B5D61",
"~  c #426A67",
"^  c #436C6C",
"/  c #4A6C6D",
"(  c #46646F",
")  c #55676A",
"_  c #49746D",
"`  c #45716F",
"'  c #436C74",
"]  c #496B75",
"[  c #586D72",
"{  c #437475",
"}  c #4B7474",
"|  c #447A75",
" . c #4A7A76",
".. c #42767A",
"X. c #4A757A",
"o. c #437B7D",
"O. c #4B7C7D",
"+. c #527473",
"@. c #51757A",
"#. c #527C7B",
"$. c #5D7C7C",
"%. c #587675",
"&. c #52736A",
"*. c #656669",
"=. c #7B6162",
"-. c #6C757C",
";. c #6D7A7D",
":. c #697577",
">. c #717A7D",
",. c #727378",
"<. c #636D70",
"1. c #870100",
"2. c #9D0203",
"3. c #960005",
"4. c #B70001",
"5. c #9D2E2D",
"6. c #89393B",
"7. c #BC2C2C",
"8. c #B62123",
"9. c #A23D3E",
"0. c #AC393A",
"q. c #AA3738",
"w. c #B43335",
"e. c #B93737",
"r. c #B0292A",
"t. c #C70001",
"y. c #D90000",
"u. c #D30000",
"i. c #CB1718",
"p. c #C61B1C",
"a. c #DE1314",
"s. c #D8191A",
"d. c #EC0C0C",
"f. c #E90000",
"g. c #F60505",
"h. c #FF0000",
"j. c #F20909",
"k. c #E21313",
"l. c #E81212",
"z. c #CD2122",
"x. c #C52628",
"c. c #C52A2A",
"v. c #D02323",
"b. c #963F40",
"n. c #A63F40",
"m. c #8B4C4C",
"M. c #984647",
"N. c #864D50",
"B. c #895758",
"V. c #945959",
"C. c #A74548",
"Z. c #8C6466",
"A. c #39817A",
"S. c #42817E",
"D. c #4D807E",
"F. c #4A8777",
"G. c #53817D",
"H. c #5B857E",
"J. c #558077",
"K. c #60897E",
"L. c #BB9719",
"P. c #C6951D",
"I. c #CA961E",
"U. c #C4991B",
"Y. c #C99A1E",
"T. c #C59521",
"R. c #CB9621",
"E. c #C69921",
"W. c #CA9B24",
"Q. c #CB9E29",
"!. c #D29824",
"~. c #CBA128",
"^. c #3D7C82",
"/. c #3B7881",
"(. c #426F83",
"). c #437D81",
"_. c #4B7D82",
"`. c #4D7B8C",
"'. c #457483",
"]. c #537D82",
"[. c #557B84",
"{. c #4F7E90",
"}. c #517B93",
"|. c #6C7B82",
" X c #687B83",
".X c #727A83",
"XX c #717581",
"oX c #458284",
"OX c #4B8284",
"+X c #458388",
"@X c #4A8489",
"#X c #4B8982",
"$X c #538484",
"%X c #5B8583",
"&X c #548985",
"*X c #5C8A86",
"=X c #558589",
"-X c #5B8489",
";X c #548A8A",
":X c #5C8A89",
">X c #5F8F93",
",X c #638685",
"<X c #628A86",
"1X c #628A8A",
"2X c #66878B",
"3X c #748384",
"4X c #68908F",
"5X c #7E918F",
"6X c #7D9993",
"7X c #7DA099",
"8X c #839594",
"9X c #859A96",
"0X c #899C96",
"qX c #869A99",
"wX c #8A9C9B",
"eX c #869599",
"rX c #939696",
"tX c #87918A",
"yX c #8DA39E",
"uX c #8FAAA3",
"iX c #F7FEFE",
"pX c #FEFEFE",
"aX c #FFF7F8",
/* pixels */
"pXpXpXiXaXpXpXpXpXpXpXpXpXpXpXiXpXaXpXpXaXpXpXpXpXpXpXpXpXpXpXpXpXpXpXpXpXpXpXpXpXpXpXpXpXpXaXpXpXpXpXpXpXpXpXpXiXpXaXpXpXpXpXpX",
"      +                                       X                                 .                                       X o     ",
"Y.Q.R.P.W.L.I.!.R.R.R.R.R.R.R.I.E.Q.T.P.E.E.P.E.R.R.I.R.I.R.I.I.Y.P.P.P.E.I.E.E.U.P.E.U.E.T.Q.Q.E.R.E.R.R.R.R.I.!.U.L.~.P.T.U.U.",
".     .   X               X     .   .                             .   .         X         .   .                 .         o   $ ",
"  `...+.'.'.$X@X%X%X$XG.OX#.O.| N o.X.S ..V ' '.D O...{ ....{ { ..D D D D D S D ' (.G O.m ' m | O.O.O._._._._._.J o.^...{ H (.o ",
"  { F.X   O .                             #.%.+     X             O         o   + } }   X o               .         o   X N D   ",
"  '.$X  #.2XH.%X:X:X*X:X&X$X_.o.N | | B o |  .  M  .O.#.].G. .G.O.O.| | o.o...F   X...  F._.).F.$XH.G.%X*X%X%X$X$X#X....  A '.. ",
"  {...  $X=X*X*X*X*X*X:X:X&XOXO.G (._.V & B |   S o.oX[ Z.M.0.7.x.z.7.w.9.M.N.T # o.).  | `.{.OX@XoXOXOX].OX_._.).A @XJ . /.(.  ",
"  S.oX  _.} %X,X2X1X-X:X:X=X$XO.` ..J C   ).H   Z B.s.h.h.h.h.h.h.h.h.h.h.h.h.h.h.k.w.; #.#XOX$.$XO.O.].=X=X$X$X_ #Xo.o.  H J   ",
"+ O.oX.  .{ %Xo .     .         + o.).C . '.C ; a.h.h.h.h.h.h.h.h.h.h.h.h.h.h.h.h.h.h.h.h.z.,.+           .       '.o...  )...X ",
"  oX@XX OX%X%X5 8 d 7 7 8 d j y < ....S   [ z.h.h.h.h.h.h.h.h.h.h.h.h.h.h.h.h.h.h.h.h.h.h.h.B.5 j h h d j 8 d j u _.X.oX  /.).  ",
"  O.@X  [.$X*XO                 o O.J D $ k.h.h.h.h.h.h.h.h.h.h.h.h.h.h.h.h.h.h.h.h.h.h.h.h.V.O                 O X.V X.  H O.  ",
"  ;XoX  o.#.<Xu y 7 d j j 8 j j r D o.L u.h.h.h.h.h.h.h.h.8.6.W U q s 0 U B.n.x.f.h.h.h.h.h.Z.y d d 8 7 d j y d 5 x g l X ..).  ",
"o _.@X  '  .2X.                 o ' oXM.h.h.h.h.h.h.g.3.*       . X     o $X)./.  R e.f.h.h.V.                    n k M   D ..  ",
"  S.&X  8 q p 4 d d d 8 8 d 8 7 i { o.d.h.h.h.h.h.g.Q q 7 z < y t 5 z 9 i oXoX).  D.;X. M.l.V.q d d d d 8 s d j q 8 8 D   J @X. ",
"  D.oX. 9 > 1 +                   [.=.h.h.h.h.h.h.E c +     X .   o     o  .O.).  O.o.. $XO.3X+                   , < D   )...  ",
"  _.$X  p 9 x ^ / ^ x q q z {  ..._.7.h.h.h.h.h.z...V h h d j z d 7 d m ..o.).o.  o...  %X<X,X,X+.x 4 q z k d 7 7 s h D   o.O.  ",
"  _.%X  #.O.,X%X%X].#.} { } _.O._.].k.h.h.h.h.h.6.o.o.D D D o.......D ..o.o.o.D   O._.X [.&X2X:X#.@.{  .O.O.D ....C D o.  X.{   ",
". $X1X  <X1X4X,X2X*X%X#.G.$X$X_._.$Xj.h.h.h.h.h.I ).OX).oXoXOX_._.).o.o.o.o...H   )._.  [.%X%X%X#.$X$X$XOX_.).o._.).^.).  ..}   ",
"  $X*X  <X<X<X,X*X%X$.#.$X%X-XO._.OXh.h.h.h.h.h.V +X+X+XoXoXO.).).).o.o.o.o.....  _._.X #.H.:X$X$X$XOXOXoXOXoX).).^.J ).  } }   ",
"  =X%X  <X1X<X<X*X*X].%X$X$X$XO.o.O.g.h.h.h.h.h.) _.+X).+X_.).).).).).J o.o.o.H   O.].  ].%X:X#X&X#XOX@XoXS.).o.).).J ).  { }   ",
"  :XJ.  <X1X,X1X<X1X*X$X$XOX]....._.d.h.h.h.h.h.Y oX).+XOX).o.o.).).).o.O.o.o.O.  $X].  [.&X=X$X@XOXoXoXo.o.J ^.^.^.J ).  } }   ",
"  $X$X  1X:X<X<X1X:X%X=X=X$X$Xo.{ _.v.h.h.h.h.h.s.).).).).o.).o.).o.).o.o.o.o.o.  &X].  -X:X-X@XOX_._.).o.J J ).J ^.J J    .}   ",
"  $X1X  *X:X<X1X1X&XG.$XD.oXOX....OXM.h.h.h.h.h.h.q.o.o.o.)._._.).).+X).o...D D   ;X=X  -X:X].$X_._...J J ^.J J J J o.).X O.|   ",
". $X4X  2X&X<X,X%X#. .OX@XOX=XOXo.).%.h.h.h.h.h.h.h.k.N.[.^.^.O.OX@X_.J J o...C . D.;X. -X:X;X%X_.oXo.J J H H ).).).A.oX  oXoXX ",
". ;X:X  *X1XK.H.*X=X_.$XOX_.oXo.o.oX).w.h.h.h.h.h.h.h.h.j.x.M.*.].OXoXoX).).o.D . $X;X  &X1X&XF.oXoXJ J J H J o.+X+XA.+X  oXS.. ",
"  :X=X. K.  @   :X=XOX$XOX_.oXo.o.).o.@.y.h.h.h.h.h.h.h.h.h.h.h.g.s.0.B.[ ).o...  =X=X  %X      _.o.o.J J J o.+X).@XoXoX  ).o.  ",
"  :X&X. H.  tXX $X$XOX$X#X_.OXo.H o.o.o.* k.h.h.h.h.h.h.h.h.h.h.h.h.h.h.h.d.7.m.  :X>X  J.X rX  _.o.o.).^.oX+X+X).+XoXoX  J S.. ",
"  %X&X. ,Xo   o $X$XOX=XOX).o.D V S J H   } 7.h.h.h.h.h.h.h.h.h.h.h.h.h.h.h.h.h.g.e.;..  X    O O.o._.@XoXS.).).oX+XA.oX  H J   ",
". ].#X  | #.:X#X#X@XoXoX).o.J m l S ..H   ..O.= s.h.h.h.h.h.h.h.h.h.h.h.h.h.h.h.h.h.h.1.G.&X$X .} M D +XoXS.oX).oX+X#XoXo G J . ",
"X / M X p ) + =XOXOX).).J J J m b D o.D   ..O.  7 W 2.g.h.g.h.h.h.h.h.h.h.h.h.h.h.h.h.h.s.,.+ / n 9 z o.+XoXoXoXoXoXoXoX  H J   ",
"  X.w   w o   J.OXOXo.H J J o.V l H o.G   o.O.  0   . :XZ.C.z.j.h.h.h.h.h.h.h.h.h.h.h.h.h.f.# &.q 3 6 H +XoX+XoXoXoXoX+X  S o.  ",
"  #.C   w     ]._.o.J ..o.o...D V D o...  O.O.  8   . F $X$XOX@X<.N.w.d.h.h.h.h.h.h.h.h.h.h.t.} p 4 b o.^.^.+X+X@X+XoXoX  ....  ",
"  [.X.  n   X _.).).o.J J o.o.D m D ....  _.].  ^     | %X$XD.OX).^.J J ! q.d.h.h.h.h.h.h.h.h.M.w ~ O.OXOX+X+X).oXoX).).  D ..  ",
"  M 2   '     O.).o.J J J o.o.D V D ..H   OXG.  X.. . G.2X=X_.o.).J J J o.).@.0.h.h.h.h.h.h.h.d.0 ^ _.OXA.+X+X+X+XS.o.o.  D ..  ",
"  ..} . D   . O...o.J J J J H V V J o.H   G.].  #.    G.-X=X$Xo.).o.J J ..o.o.O.* g.h.h.h.h.h.h.Y ^ { o.#XoXoXoXo.J J ).  ....  ",
"  { 4 . D X o _.o.J ).J ^.o...D C J o.).  O.O.  +.X X [.[. ._.).J J )./.).X._._.  V.h.h.h.h.h.h.r.c o._.#X).H J J J H ).o ....  ",
"  | 9 . V :.X o.o.o.o.^.J ).).J H )._.).  o.O.  @.$.+ } _.$XO.).D J ).).).).oX_.  &Xj.h.h.h.h.h.i.' _._.).H H ).J J ..).  )...  ",
"  { B   J O.#.'.o.J J J J ).+Xo.o.).O.).  O.O.   .].$.:X].oX#.H /.).)._._.OXOX_.  =Xc.h.h.h.h.h.k.OXO...).).o.D J J ..o.  ).O.  ",
". O.F   `.o.F ).^.J o.^.).+X).o.).).o.).  O.O.  '.G.$..._.@XO.oX).).)._.@X@X#XO.+ ;XC.h.h.h.h.h.j._.).).J J J J H ^.o.J o OX_.  ",
"  O._.  ....o.o.).).).+XoX).+Xo.o.o.o...  O.O.  _ $X$X$X$XOXoXo.+X).).+XOX=X@X_.  *XB.h.h.h.h.h.d.).o.J J J J J J ^.J +X  oXO.  ",
"  | ).  o.o.+X).).).oX@X+XoX+XJ H J o...  O.O.  { $X$X].OXOXoXoX@X+X).OX@X$X$XOX  :XC.h.h.h.h.h.a.o.J J J J H J oXoXo._.  oXO.  ",
"  ..o.  o.o.oX).oX+XoX+XoXJ o.H S J o.D   O.O.  { OX$XOXOX+X+XoXOXoX+XoX#X$X$X$X  :Xv.h.h.h.h.h.z.^.J ^.^.J o.oXoX+XoX+X  S.o.  ",
"  O.o.  ).)._.+XoX+XJ ).J H J K m H o...  O.O.  ' oXOX_.).).).+X+X).oX#XOXOXOX&X  :Xg.h.h.h.h.h.9.J o.J ^.o.).+XS.oXS.+X  J o.o ",
"  O.).o OXOX@X+X).).J J J H J G S H c.Y   O.O.  C oXOXoXoX).).+XoXoXOX@X$XOX$X&X  e.h.h.h.h.h.h.*.J J ^.oXoXoXoXoXoXoX_.  J |   ",
"  _._.  OXOX).).J J J ^.J J J D S J a.h.y.m.@.  F oX@XoX+XoX+X+XoX#X@X@X#X$X=X;X1.h.h.h.h.h.h.z.^.o.o.+XoX@X+X+XoX^.oX).  H o.  ",
"  _._.  _.O.).J J J H ).o.J J S D H k.h.h.h.g.2.T oXS.o.).oXoXoX).+XOX#X#X].B.s.h.h.h.h.h.h.h.*.).).oXoXoX+X+XoXoX^.o.).  H D   ",
"  #._.  ).O.o.o.H H G ..D J J S D H a.h.h.h.h.h.h.g.z.9.E *.%.O. .<.=.m.n.d.h.h.h.h.h.h.h.h.w.).J ^.oXoX).).o.oXo.J J H   D ..  ",
"  #.O.  ].#.o.o.H D H H D D H H D G k.h.h.h.h.h.h.h.h.h.h.h.h.h.h.h.h.h.h.h.h.h.h.h.h.h.h.v.O.).J J ^.o.o.o.o...^.S H J   D D . ",
"  D.S.  _.....( D D D H H J H J ` ^.a.h.h.h.h.h.h.h.h.h.h.h.h.h.h.h.h.h.h.h.h.h.h.h.h.h.e.).OX@.J J J ).o.o.o...( J l D   D D   ",
"  +.O.  #.@.F H D D S D D D H F K ^.[ M.t.h.h.h.h.h.h.h.h.h.h.h.h.h.h.h.h.h.h.h.h.h.k.= X.].oXA.).J J J H D D S A D D S   C |   ",
"  | O.  { o.M +                 o } o.M . ) M.4.g.h.h.h.h.h.h.h.h.h.h.h.h.h.h.g.2.E _.. _. .].o               . o V D {   D ..  ",
"  +.}   } / M y d d d d d d 8 h u H ..D   Z ..X M T m.5.p.i.i.i.p.8.r.5.6.R Q X.X @.X.  _.@.O.t j d d d d d d d t ^ M V @ b S   ",
"  M O.. 3 j ' o                 o } S j   H ..  b J }   .         X     X } O.{   ` O.  { F @.+                 o q y x . D {   ",
"  } }   6 2 p P k k k d d d s d x C V S   D O.  b M M z 9 z u j h 7 8 8 i  .X.{   @.`   O.} { ^ 3 < < s d s h h i q 4 k @ M M   ",
"  ` '   , 1 4 X .     .           M J k   H V   h V x +     o       .     +.v z   /  .. M  .^ +   .   . .       + 1 9 f . { { . ",
"  / ~ o e 4 ^ 8 d d d d d 8 d k 5 ' ' a + m C   z M M j 7 d h s k 7 k 6 d { { q   B +.o ^ ^ ] 7 h s s d s 7 j b y 6 0 q   ..}   ",
"o ^ b o - > , d 8 8 8 8 8 3 9 b N G '.9   C (   d b n d 7 d d 7 9 > e q ^ #.~ w O @./ o ^ ..g h j 7 y b 9 - - - , : 2 x o ' x O ",
"  a c + @ O . o               X   o o   . ~ ~   .   .   .   .                 . X _ &.+     o   .                 O       c v X ",
"% ' Z g ' c V m V V V C V C m m b V n p + f n ] z b b b M M M C ' X.'.X.X.X.M n ( ' X.} ( b b C b b b f z V V b V m D m n C C % ",
".     X   X   X                 .   . X .   X         o                                 . X   .                 X .           # ",
"    .                           X                                     .                                               o   X     ",
"|.:.|.|.-.:..X.X-.-.:.;..X>.-.:.|..X;.;.;.>.>..X>.>.>.:.:.>.>.>.;.:.:.;.;.;.;.;..X-..X|.;.:..X;.>.>.;.>..X>.>.-. X.X:.|. X:.;.;.",
"9XuXyX6XrX0X0X6XqXwXyXqX8X5X8XqXeXtX9XyX6X8X0X8XqXwXqXeX6X8XqXeX0X8X0X0X8XqXyXqXyXyXyX9X6XqXrX8XqXqXqXqX5X5X8XqXqXtXwXrX6XrXtX8X"
};
