/* XPM */
static char *c399fa089538418592cf7f79841ebe88DZdPC4rxuyC1oMZg[] = {
/* columns rows colors chars-per-pixel */
"64 64 103 2 ",
"   c #4B4B49",
".  c #524D49",
"X  c #53524F",
"o  c #565553",
"O  c #595653",
"+  c #5B5956",
"@  c #5D5B58",
"#  c #63514C",
"$  c #615E5B",
"%  c #62615E",
"&  c #636361",
"*  c #7E726F",
"=  c #7F7F7D",
"-  c #83574F",
";  c #8F5A51",
":  c #935B51",
">  c #837571",
",  c #887976",
"<  c #817F7D",
"1  c #E66A59",
"2  c #82807E",
"3  c #868482",
"4  c #8B8A89",
"5  c #9B8783",
"6  c #9F8A86",
"7  c #92918F",
"8  c #959290",
"9  c #9C9B9A",
"0  c #A38C89",
"q  c #AF9391",
"w  c #BD9998",
"e  c #A1A19F",
"r  c #A3A1A0",
"t  c #AEABA9",
"y  c #B1AFAE",
"u  c #B4B4B2",
"i  c #BBBBBA",
"p  c #C69C9D",
"a  c #C99C9E",
"s  c #CD9EA0",
"d  c #D29EA2",
"f  c #D09EA0",
"g  c #D9A0A6",
"h  c #DDA2A8",
"j  c #E7A4AD",
"k  c #F5A5B2",
"l  c #F6A5B3",
"z  c #F5A6B2",
"x  c #F6A6B3",
"c  c #F6A6B3",
"v  c #F8A6B4",
"b  c #FBA6B5",
"n  c #FDA5B5",
"m  c #FFA5B6",
"M  c #FFA5B6",
"N  c #C1C1C0",
"B  c #C2C2C1",
"V  c #C9C6C5",
"C  c #C9C7C5",
"Z  c #C9C6C6",
"A  c #C8C7C6",
"S  c #C9C7C6",
"D  c #C8C7C7",
"F  c #C9C7C7",
"G  c #CAC7C6",
"H  c #C9C8C6",
"J  c #C8C8C7",
"K  c #C9C8C7",
"L  c #CAC8C7",
"P  c #C9C8C8",
"I  c #CAC8C8",
"U  c #CAC9C8",
"Y  c #CFCECE",
"T  c #D7D4D3",
"R  c #D7D4D4",
"E  c #D6D5D4",
"W  c #D7D5D4",
"Q  c #D7D6D5",
"!  c #D8D6D6",
"~  c #D8D7D6",
"^  c #DBDADA",
"/  c #DCDBDA",
"(  c #DCDBDB",
")  c #DDDBDB",
"_  c #DCDCDB",
"`  c #E7E6E6",
"'  c #EBEAEA",
"]  c #ECEBEB",
"[  c #EFEEED",
"{  c #F0EFEE",
"}  c #F1EFEF",
"|  c #F1F0F0",
" . c #F1F1F0",
".. c #F2F2F1",
"X. c #F3F3F3",
"o. c #F5F4F4",
"O. c #F5F5F4",
"+. c #F6F5F5",
"@. c #F8F7F7",
"#. c #F8F8F8",
"$. c #F9F8F8",
"%. c #F9F9F8",
"&. c white",
/* pixels */
"m m m m m m m m m m m m m m m m m m m m m m m m m m m m m m m m m m m m m m m m m m m m m m m m m m m m m m m m m m m m m m m m ",
"m m m m m m m m m m m m m m m m m m m m m m m m m m m m m m m m m m m m m m m m m m m m m m m m m m m m m m m m m m m m m m m m ",
"m m m m m m m m m m m m m m m m m m m m m m m m m m m m m m m m m m m m m m m m m m m m m m m m m m m m m m m m m m m m m m m m ",
"m m m m m m m m m m m m m m m m m m m m m m m m m m m m m m m m m m m m m m m m m m m m m m m m m m m m m m m m m m m m m m m m ",
"m m m m m m m m m m m m m m m m m m m m m m m m m m m m m m m m m m m m m m m m m m m m m m m m m m m m m m m m m m m m m m m m ",
"m m m m m m m m m m m m m m m m m m m m m m m m m m m m m m m m m m m m m m m m m m m m m m m m m m m m m m m m m m m m m m m m ",
"m m m m m m m m m m m m m m m m m m m m m m m m m m m m m m m m m m m m m m m m m m m m m m m m m m m m m m m m m m m m m m m m ",
"m m m m m m m m m m m m m m m m m m m m m m m m m m m m m m m m m m m m m m m m m m m m m m m m m m m m m m m m m m m m m m m m ",
"m m m m m m m m m m m m m m m m m m m m m m m m m m m m m m m m m m m m m m m m m m m m m m m m m m m m m m m m m m m m m m m m ",
"m m m m m m m m m m m m m m m g f f f f a a a a a a a a a a a a a a a a a a a a a a a a a a a a s b m m m m m m m m m m m m m m ",
"m m m m m m m m m m m m 6 O   o o O o o o o o o o o o o o o o o o o o o o o o o o o o o o o o o o   O 0 m m m m m m m m m m m m ",
"m m m m m m m m m m m * @ B @.&.&.&.&.&.&.&.&.&.&.&.&.&.&.&.&.&.&.&.&.&.&.&.&.&.&.&.&.&.&.&.&.&.&.$.B + > m m m m m m m m m m m ",
"m m m m m m m m m m 6 + ' &.&.&.&.&.&.&.&.&.&.&.&.&.&.&.&.&.&.&.&.&.&.&.&.&.&.&.&.&.&.&.&.&.&.&.&.&.&.` @ w m m m m m m m m m m ",
"m m m m m m m m m m O B &.&.&.&.&.&.&.&.&.&.&.&.&.&.&.&.&.&.&.&.&.&.&.&.&.&.&.&.&.&.&.&.&.&.&.&.&.&.&.&.u O m m m m m m m m m m ",
"m m m m m m m m m x   $.&.&.&.&.&.&.&.&.&.&.&.&.&.&.&.&.&.&.&.&.&.&.&.&.&.&.&.&.&.&.&.&.&.&.&.&.&.&.&.&.$.  m m m m m m m m m m ",
"m m m m m m m m m s o &.&.&.&.&.&.&.&.&.&.&.&.&.&.| 3 < < < < = < < < 2 < 3 +.&.&.&.&.&.&.&.&.&.&.&.&.&.&.O x m m m m m m m m m ",
"m m m m m m m m m a o &.&.&.&.&.&.&.&.&.&.&.&.&.&.F   : : : : : : : : : : . ( &.&.&.&.&.&.&.&.&.&.&.&.&.&.O x m m m m m m m m m ",
"m m m m m m m m m a o &.&.&.&.&.&.&.&.&.&.&.&.&.&.F   1 1 1 1 1 1 1 1 1 1 . ( &.&.&.&.&.&.&.&.&.&.&.&.&.&.o x m m m m m m m m m ",
"m m m m m m m m m p o &.&.&.&.&.&.&.&.&.&.&.&.&.&.F   1 1 1 1 1 1 1 1 1 1 . ( &.&.&.&.&.&.&.&.&.&.&.&.&.&.O x m m m m m m m m m ",
"m m m m m m m m m a o &.&.&.&.&.&.&.&.&.&.&.&.&.&.F   1 1 1 1 1 1 1 1 1 1 . ( &.&.&.&.&.&.&.&.&.&.&.&.&.&.O x m m m m m m m m m ",
"m m m m m m m m m a o &.&.&.&.&.&.&.&.&.&.&.&.&.&.F   1 1 1 1 1 1 1 1 1 1 . ( &.&.&.&.&.&.&.&.&.&.&.&.&.&.O x m m m m m m m m m ",
"m m m m m m m m m a O &.&.&.&.&.&.&.&.&.&.&.&.&.&.F   1 1 1 1 1 1 1 1 1 1 . ( &.&.&.&.&.&.&.&.&.&.&.&.&.&.O x m m m m m m m m m ",
"m m m m m m m m m a O &.&.&.&.&.&.&.&.&.&.&.&.&.&.F   1 1 1 1 1 1 1 1 1 1 . ( &.&.&.&.&.&.&.&.&.&.&.&.&.&.O x m m m m m m m m m ",
"m m m m m m m m m a O &.&.&.&.&.&.&.&.&.&.&.&.&.&.F   1 1 1 1 1 1 1 1 1 1 . ( &.&.&.&.&.&.&.&.&.&.&.&.&.&.O x m m m m m m m m m ",
"m m m m m m m m m a + &.&.&.&.&.&.&.&.&.&.&.&.&.&.F   1 1 1 1 1 1 1 1 1 1 . _ &.&.&.&.&.&.&.&.&.&.&.&.&.&.O x m m m m m m m m m ",
"m m m m m m m m m a + &.&.&.&.[ L L F L F L L P L r   1 1 1 1 1 1 1 1 1 1 . y P F L L L L L L P | &.&.&.&.o x m m m m m m m m m ",
"m m m m m m m m m a + &.&.&.&.3                     # 1 1 1 1 1 1 1 1 1 1 #                     9 &.&.&.&.o x m m m m m m m m m ",
"m m m m m m m m m a @ &.&.&.&.2 : 1 1 1 1 1 1 1 1 1 1 1 1 1 1 1 1 1 1 1 1 1 1 1 1 1 1 1 1 1 1 - 8 &.&.&.&.O x m m m m m m m m m ",
"m m m m m m m m m a @ &.&.&.&.2 : 1 1 1 1 1 1 1 1 1 1 1 1 1 1 1 1 1 1 1 1 1 1 1 1 1 1 1 1 1 1 - 8 &.&.&.&.O x m m m m m m m m m ",
"m m m m m m m m m a $ &.&.&.&.2 : 1 1 1 1 1 1 1 1 1 1 1 1 1 1 1 1 1 1 1 1 1 1 1 1 1 1 1 1 1 1 - 8 &.&.&.&.o x m m m m m m m m m ",
"m m m m m m m m m a $ &.&.&.&.2 : 1 1 1 1 1 1 1 1 1 1 1 1 1 1 1 1 1 1 1 1 1 1 1 1 1 1 1 1 1 1 - 8 &.&.&.&.O x m m m m m m m m m ",
"m m m m m m m m m a $ &.&.&.&.2 : 1 1 1 1 1 1 1 1 1 1 1 1 1 1 1 1 1 1 1 1 1 1 1 1 1 1 1 1 1 1 - 8 &.&.&.&.O x m m m m m m m m m ",
"m m m m m m m m m a % &.&.&.&.2 : 1 1 1 1 1 1 1 1 1 1 1 1 1 1 1 1 1 1 1 1 1 1 1 1 1 1 1 1 1 1 - 8 &.&.&.&.O x m m m m m m m m m ",
"m m m m m m m m m a % &.&.&.&.< : 1 1 1 1 1 1 1 1 1 1 1 1 1 1 1 1 1 1 1 1 1 1 1 1 1 1 1 1 1 1 - 8 &.&.&.&.o x m m m m m m m m m ",
"m m m m m m m m m a $ &.&.&.&.2 : 1 1 1 1 1 1 1 1 1 1 1 1 1 1 1 1 1 1 1 1 1 1 1 1 1 1 1 1 1 1 - 8 &.&.&.&.O x m m m m m m m m m ",
"m m m m m m m m m a & &.&.&.&.2 ; 1 1 1 1 1 1 1 1 1 1 1 1 1 1 1 1 1 1 1 1 1 1 1 1 1 1 1 1 1 1 - 8 &.&.&.&.O x m m m m m m m m m ",
"m m m m m m m m m a & &.&.&.&.2 : 1 1 1 1 1 1 1 1 1 1 1 1 1 1 1 1 1 1 1 1 1 1 1 1 1 1 1 1 1 1 - 8 &.&.&.&.O x m m m m m m m m m ",
"m m m m m m m m m a % &.&.&.&.3 . . . . . . . . . . # 1 1 1 1 1 1 1 1 1 1 # . . . . . . . . . . 9 &.&.&.&.O x m m m m m m m m m ",
"m m m m m m m m m a & &.&.&.&.{ E T E E E E ~ E E t   1 1 1 1 1 1 1 1 1 1 . i E E ~ E T ~ E E ~ | &.&.&.&.o x m m m m m m m m m ",
"m m m m m m m m m a & &.&.&.&.&.&.&.&.&.&.&.&.&.&.F   1 1 1 1 1 1 1 1 1 1 . ( &.&.&.&.&.&.&.&.&.&.&.&.&.&.o x m m m m m m m m m ",
"m m m m m m m m m p & &.&.&.&.&.&.&.&.&.&.&.&.&.&.F   1 1 1 1 1 1 1 1 1 1 . ( &.&.&.&.&.&.&.&.&.&.&.&.&.&.o x m m m m m m m m m ",
"m m m m m m m m m a % &.&.&.&.&.&.&.&.&.&.&.&.&.&.F   1 1 1 1 1 1 1 1 1 1 . ( &.&.&.&.&.&.&.&.&.&.&.&.&.&.o x m m m m m m m m m ",
"m m m m m m m m m a & &.&.&.&.&.&.&.&.&.&.&.&.&.&.F   1 1 1 1 1 1 1 1 1 1 . ( &.&.&.&.&.&.&.&.&.&.&.&.&.&.o x m m m m m m m m m ",
"m m m m m m m m m a & &.&.&.&.&.&.&.&.&.&.&.&.&.&.L   1 1 1 1 1 1 1 1 1 1 . ( &.&.&.&.&.&.&.&.&.&.&.&.&.&.o x m m m m m m m m m ",
"m m m m m m m m m a & &.&.&.&.&.&.&.&.&.&.&.&.&.&.F   1 1 1 1 1 1 1 1 1 1 . ( &.&.&.&.&.&.&.&.&.&.&.&.&.&.o x m m m m m m m m m ",
"m m m m m m m m m a & &.&.&.&.&.&.&.&.&.&.&.&.&.&.F   1 1 1 1 1 1 1 1 1 1 . ( &.&.&.&.&.&.&.&.&.&.&.&.&.&.o x m m m m m m m m m ",
"m m m m m m m m m a & &.&.&.&.&.&.&.&.&.&.&.&.&.&.F   1 1 1 1 1 1 1 1 1 1 . ( &.&.&.&.&.&.&.&.&.&.&.&.&.&.o x m m m m m m m m m ",
"m m m m m m m m m a & &.&.&.&.&.&.&.&.&.&.&.&.&.&.F   - - - - - - - - - -   ( &.&.&.&.&.&.&.&.&.&.&.&.&.&.o x m m m m m m m m m ",
"m m m m m m m m m a $ &.&.&.&.&.&.&.&.&.&.&.&.&.&.| 7 4 4 4 4 4 4 4 4 4 4 7 +.&.&.&.&.&.&.&.&.&.&.&.&.&.&.o x m m m m m m m m m ",
"m m m m m m m m m b   +.&.&.&.&.&.&.&.&.&.&.&.&.&.&.&.&.&.&.&.&.&.&.&.&.&.&.&.&.&.&.&.&.&.&.&.&.&.&.&.&.{   m m m m m m m m m m ",
"m m m m m m m m m m + i &.&.&.&.&.&.&.&.&.&.&.&.&.&.&.&.&.&.&.&.&.&.&.&.&.&.&.&.&.&.&.&.&.&.&.&.&.&.&.&.e % m m m m m m m m m m ",
"m m m m m m m m m m q o ^ &.&.&.&.&.&.&.&.&.&.&.&.&.&.&.&.&.&.&.&.&.&.&.&.&.&.&.&.&.&.&.&.&.&.&.&.&.&.Y X j m m m m m m m m m m ",
"m m m m m m m m m m m , o e | &.&.&.&.&.&.&.&.&.&.&.&.&.&.&.&.&.&.&.&.&.&.&.&.&.&.&.&.&.&.&.&.&.&.] 9 X 5 m m m m m m m m m m m ",
"m m m m m m m m m m m m a O   X X X X X X X o X o o O O O O O O o O O O O O O o X X X X X X X X X   $ h m m m m m m m m m m m m ",
"m m m m m m m m m m m m m m m m b x x x x v x x v x x v v x x x x x v v x v v v x x v v v x x b m m m m m m m m m m m m m m m m ",
"m m m m m m m m m m m m m m m m m m m m m m m m m m m m m m m m m m m m m m m m m m m m m m m m m m m m m m m m m m m m m m m m ",
"m m m m m m m m m m m m m m m m m m m m m m m m m m m m m m m m m m m m m m m m m m m m m m m m m m m m m m m m m m m m m m m m ",
"m m m m m m m m m m m m m m m m m m m m m m m m m m m m m m m m m m m m m m m m m m m m m m m m m m m m m m m m m m m m m m m m ",
"m m m m m m m m m m m m m m m m m m m m m m m m m m m m m m m m m m m m m m m m m m m m m m m m m m m m m m m m m m m m m m m m ",
"m m m m m m m m m m m m m m m m m m m m m m m m m m m m m m m m m m m m m m m m m m m m m m m m m m m m m m m m m m m m m m m m ",
"m m m m m m m m m m m m m m m m m m m m m m m m m m m m m m m m m m m m m m m m m m m m m m m m m m m m m m m m m m m m m m m m ",
"m m m m m m m m m m m m m m m m m m m m m m m m m m m m m m m m m m m m m m m m m m m m m m m m m m m m m m m m m m m m m m m m ",
"m m m m m m m m m m m m m m m m m m m m m m m m m m m m m m m m m m m m m m m m m m m m m m m m m m m m m m m m m m m m m m m m ",
"m m m m m m m m m m m m m m m m m m m m m m m m m m m m m m m m m m m m m m m m m m m m m m m m m m m m m m m m m m m m m m m m "
};
