/* XPM */
static char *_4234bb36b5049da97cde0d08913589aT2oGHqevUhb3ckRy[] = {
/* columns rows colors chars-per-pixel */
"64 64 130 2 ",
"   c #4B4B49",
".  c #524D49",
"X  c #53524F",
"o  c #565553",
"O  c #595653",
"+  c #5B5956",
"@  c #5D5B58",
"#  c #63514C",
"$  c #615E5B",
"%  c #62615E",
"&  c #636361",
"*  c #7E726F",
"=  c #7F7F7D",
"-  c #83574F",
";  c #8F5A51",
":  c #935B51",
">  c #837571",
",  c #887976",
"<  c #817F7D",
"1  c #E66A59",
"2  c #82807E",
"3  c #868482",
"4  c #8B8A89",
"5  c #9B8783",
"6  c #9F8A86",
"7  c #92918F",
"8  c #959290",
"9  c #9C9B9A",
"0  c #A38C89",
"q  c #AD9390",
"w  c #B49794",
"e  c #B69995",
"r  c #B99A97",
"t  c #BC9C99",
"y  c #A1A19F",
"u  c #BFA09C",
"i  c #A3A1A0",
"p  c #AEABA9",
"a  c #B1AFAE",
"s  c #B4B4B2",
"d  c #BBBBBA",
"f  c #C4A39F",
"g  c #CDA7A3",
"h  c #CCA7A3",
"j  c #CCA7A4",
"k  c #CCA8A3",
"l  c #CDA8A3",
"z  c #CCA8A4",
"x  c #CDA8A4",
"c  c #CDA9A5",
"v  c #CDA9A6",
"b  c #CEAAA7",
"n  c #CDA8A4",
"m  c #D1ACA7",
"M  c #D2ACA8",
"N  c #D3ADA9",
"B  c #D9B1AD",
"V  c #DEB4B0",
"C  c #E1B6B2",
"Z  c #C1C1C0",
"A  c #C2C2C1",
"S  c #C9C6C5",
"D  c #C9C7C5",
"F  c #C9C6C6",
"G  c #C8C7C6",
"H  c #C9C7C6",
"J  c #C8C7C7",
"K  c #C9C7C7",
"L  c #CAC7C6",
"P  c #C9C8C6",
"I  c #C8C8C7",
"U  c #C9C8C7",
"Y  c #CAC8C7",
"T  c #C9C8C8",
"R  c #CAC8C8",
"E  c #CAC9C8",
"W  c #CFCECE",
"Q  c #D7D4D3",
"!  c #D7D4D4",
"~  c #D6D5D4",
"^  c #D7D5D4",
"/  c #D7D6D5",
"(  c #D8D6D6",
")  c #D8D7D6",
"_  c #DCDBDA",
"`  c #DCDBDB",
"'  c #DDDBDB",
"]  c #DCDCDB",
"[  c #DBDADA",
"{  c #F8C5C1",
"}  c #F9C6C1",
"|  c #F9C7C2",
" . c #FAC6C2",
".. c #FAC7C2",
"X. c #FBC7C2",
"o. c #FAC7C3",
"O. c #FCC6C1",
"+. c #FDC6C1",
"@. c #FCC7C1",
"#. c #FDC7C1",
"$. c #FCC6C2",
"%. c #FDC6C2",
"&. c #FCC7C2",
"*. c #FDC7C2",
"=. c #FCC7C3",
"-. c #FDC7C3",
";. c #FCC7C2",
":. c #FCC8C2",
">. c #FDC8C2",
",. c #FCC8C3",
"<. c #FDC8C3",
"1. c #FDC8C2",
"2. c #E7E6E6",
"3. c #EBEAEA",
"4. c #EFEEED",
"5. c #ECEBEB",
"6. c #F0EFEE",
"7. c #F1EFEF",
"8. c #F1F0F0",
"9. c #F2F2F1",
"0. c #F3F3F3",
"q. c #F5F4F4",
"w. c #F5F5F4",
"e. c #F4F3F3",
"r. c #F8F7F7",
"t. c #F8F8F8",
"y. c #F9F8F8",
"u. c #F9F9F8",
"i. c white",
"p. c white",
/* pixels */
"*.*.*.*.*.*.*.*.*.*.*.*.*.*.*.*.*.*.*.*.*.*.*.*.*.*.*.*.*.*.*.>.*.*.*.*.>.*.*.*.*.*.*.*.*.*.*.*.*.*.*.*.*.*.*.*.*.*.*.*.*.*.*.*.",
"*.*.*.*.*.*.*.*.*.*.*.*.*.*.*.*.*.*.*.*.*.*.*.*.*.*.*.*.*.*.*.*.*.*.*.*.*.*.*.*.*.*.*.*.*.*.*.*.*.*.*.*.*.*.*.*.*.*.*.*.*.*.*.*.",
"*.*.*.*.*.*.*.*.*.*.*.*.*.*.*.*.*.*.*.*.*.*.*.*.*.*.*.*.*.*.*.*.*.*.*.*.*.*.*.*.*.*.*.*.*.*.*.*.*.*.*.*.*.*.*.*.*.*.*.*.*.*.*.*.",
"*.*.*.*.*.*.*.*.*.*.*.*.*.*.*.*.*.*.*.*.*.*.*.*.*.*.*.*.*.*.*.*.*.*.*.*.*.*.*.*.*.*.*.*.>.*.*.*.*.*.*.*.*.*.*.*.*.*.*.*.*.*.*.*.",
"*.*.*.*.*.*.*.*.*.*.*.*.*.*.*.*.*.*.*.*.*.*.*.*.*.*.*.*.*.*.*.*.*.*.*.*.*.*.*.*.*.*.*.*.*.*.*.*.*.*.X.*.*.*.*.*.*.*.*.*.>.*.*.*.",
"*.*.X.*.*.*.*.*.*.*.*.*.*.*.*.*.*.*.*.*.*.*.*.*.*.*.*.*.*.*.*.*.*.*.*.*.*.*.*.*.*.*.*.*.*.*.*.*.*.*.*.*.*.*.*.*.*.*.*.*.*.*.*.*.",
"*.*.*.*.*.*.*.*.*.*.*.*.*.*.*.*.*.*.*.*.*.*.*.*.*.*.*.*.*.*.*.*.*.*.*.*.*.*.*.*.*.*.*.*.*.*.*.*.*.*.*.*.*.*.*.*.*.*.*.*.*.*.*.*.",
"*.*.*.*.*.*.*.*.*.*.*.*.*.*.*.*.*.*.*.*.X.*.*.*.X.*.*.*.*.*.*.*.*.*.*.*.*.*.*.*.*.*.*.*.*.*.*.*.*.*.*.*.*.*.*.*.*.*.*.*.*.*.*.*.",
"*.*.*.*.*.*.*.*.*.*.*.*.*.*.*.*.*.*.*.*.*.*.*.*.*.*.*.*.*.*.*.*.*.*.*.*.*.*.*.*.*.*.*.*.*.*.*.*.*.*.*.*.*.*.*.*.*.*.*.*.*.*.*.*.",
"*.*.*.*.*.*.*.*.*.*.*.*.*.X.M t r r r r e e e e e e e e e e e e e e e w e e e e e e e e e e e e r v X.*.*.*.*.*.*.*.*.*.*.*.*.*.",
"*.*.*.*.X.X.*.*.*.*.*.X.6 O   o o O o o o o o o o o o o o o o o o o o o o o o o o o o o o o o o o   O 0 X.*.*.*.*.*.*.*.*.*.*.*.",
"*.*.*.*.*.*.*.*.*.*.*.* @ A r.i.i.i.i.i.i.i.i.i.i.i.i.i.i.i.i.i.i.i.i.i.i.i.i.i.i.i.i.i.i.i.i.i.i.y.A + > X.*.*.*.*.*.*.*.*.*.*.",
"*.*.*.*.*.*.*.*.*.*.6 + 3.i.i.i.i.i.i.i.i.i.i.i.i.i.i.i.i.i.i.i.i.i.i.i.i.i.i.i.i.i.i.i.i.i.i.i.i.i.i.2.@ w *.*.*.*.*.*.*.*.*.*.",
"*.*.*.*.*.*.*.*.*.X.O A i.i.i.i.i.i.i.i.i.i.i.i.i.i.i.i.i.i.i.i.i.i.i.i.i.i.i.i.i.i.i.i.i.i.i.i.i.i.i.i.s O X.*.*.*.*.*.*.*.*.*.",
"*.*.*.*.*.*.*.*.*.v   y.i.i.i.i.i.i.i.i.i.i.i.i.i.i.i.i.i.i.i.i.i.i.i.i.i.i.i.i.i.i.i.i.i.i.i.i.i.i.i.i.y.  B *.*.*.*.*.*.*.*.*.",
"*.*.*.*.*.*.*.*.*.r o i.i.i.i.i.i.i.i.i.i.i.i.i.i.8.3 < < < < = < < < 2 < 3 w.i.i.i.i.i.i.i.i.i.i.i.i.i.i.O j *.*.*.*.*.*.*.*.*.",
"*.*.*.*.*.*.*.*.*.e o i.i.i.i.i.i.i.i.i.i.i.i.i.i.K   : : : : : : : : : : . ` i.i.i.i.i.i.i.i.i.i.i.i.i.i.O v *.*.>.>.*.*.*.*.*.",
"*.*.*.*.*.*.*.*.*.e o i.i.i.i.i.i.i.i.i.i.i.i.i.i.K   1 1 1 1 1 1 1 1 1 1 . ` i.i.i.i.i.i.i.i.i.i.i.i.i.i.o v *.*.*.*.>.*.*.*.*.",
"*.*.*.*.*.*.*.*.*.e o i.i.i.i.i.i.i.i.i.i.i.i.i.i.K   1 1 1 1 1 1 1 1 1 1 . ` i.i.i.i.i.i.i.i.i.i.i.i.i.i.O v *.>.*.*.*.*.*.*.*.",
"*.*.*.*.*.*.*.*.*.e o i.i.i.i.i.i.i.i.i.i.i.i.i.i.K   1 1 1 1 1 1 1 1 1 1 . ` i.i.i.i.i.i.i.i.i.i.i.i.i.i.O j *.*.*.*.*.*.*.*.*.",
"*.*.*.*.*.*.*.*.>.e o i.i.i.i.i.i.i.i.i.i.i.i.i.i.K   1 1 1 1 1 1 1 1 1 1 . ` i.i.i.i.i.i.i.i.i.i.i.i.i.i.O j *.*.*.*.*.*.*.*.*.",
"*.*.*.*.*.*.*.*.*.e O i.i.i.i.i.i.i.i.i.i.i.i.i.i.K   1 1 1 1 1 1 1 1 1 1 . ` i.i.i.i.i.i.i.i.i.i.i.i.i.i.O k *.*.*.*.*.*.*.*.*.",
"*.*.*.*.*.*.*.*.*.e O i.i.i.i.i.i.i.i.i.i.i.i.i.i.K   1 1 1 1 1 1 1 1 1 1 . ` i.i.i.i.i.i.i.i.i.i.i.i.i.i.O h *.*.*.*.>.*.*.*.*.",
"*.*.*.*.*.*.*.*.*.e O i.i.i.i.i.i.i.i.i.i.i.i.i.i.K   1 1 1 1 1 1 1 1 1 1 . ` i.i.i.i.i.i.i.i.i.i.i.i.i.i.O k >.*.*.*.*.*.*.*.*.",
"*.*.*.*.*.*.*.*.*.e + i.i.i.i.i.i.i.i.i.i.i.i.i.i.K   1 1 1 1 1 1 1 1 1 1 . ] i.i.i.i.i.i.i.i.i.i.i.i.i.i.O h *.>.*.*.*.*.*.*.*.",
"*.*.*.*.*.*.*.*.*.e + i.i.i.i.4.Y Y K Y K Y Y T Y i   1 1 1 1 1 1 1 1 1 1 . a T K Y Y Y Y Y Y T 8.i.i.i.i.o k *.*.*.>.*.*.*.*.*.",
"*.*.*.*.*.*.*.*.*.e + i.i.i.i.3                     # 1 1 1 1 1 1 1 1 1 1 #                     9 i.i.i.i.o v *.*.*.*.*.*.*.*.*.",
"*.*.*.*.*.*.*.*.*.e @ i.i.i.i.2 : 1 1 1 1 1 1 1 1 1 1 1 1 1 1 1 1 1 1 1 1 1 1 1 1 1 1 1 1 1 1 - 8 i.i.i.i.O h *.*.*.*.*.*.*.*.*.",
"*.*.*.*.*.*.*.*.*.e @ i.i.i.i.2 : 1 1 1 1 1 1 1 1 1 1 1 1 1 1 1 1 1 1 1 1 1 1 1 1 1 1 1 1 1 1 - 8 i.i.i.i.O h *.*.*.*.*.*.*.*.*.",
"*.*.*.*.*.*.*.*.*.e $ i.i.i.i.2 : 1 1 1 1 1 1 1 1 1 1 1 1 1 1 1 1 1 1 1 1 1 1 1 1 1 1 1 1 1 1 - 8 i.i.i.i.o h *.*.*.*.*.*.*.*.*.",
"*.*.*.*.*.*.*.*.*.e $ i.i.i.i.2 : 1 1 1 1 1 1 1 1 1 1 1 1 1 1 1 1 1 1 1 1 1 1 1 1 1 1 1 1 1 1 - 8 i.i.i.i.O h *.*.*.*.*.*.*.*.*.",
"*.*.*.*.*.*.*.>.>.e $ i.i.i.i.2 : 1 1 1 1 1 1 1 1 1 1 1 1 1 1 1 1 1 1 1 1 1 1 1 1 1 1 1 1 1 1 - 8 i.i.i.i.O h *.*.*.*.*.*.*.*.*.",
"*.*.*.*.*.*.*.*.*.e % i.i.i.i.2 : 1 1 1 1 1 1 1 1 1 1 1 1 1 1 1 1 1 1 1 1 1 1 1 1 1 1 1 1 1 1 - 8 i.i.i.i.O k *.*.*.*.*.*.*.*.*.",
"*.*.*.*.*.*.*.*.*.e % i.i.i.i.< : 1 1 1 1 1 1 1 1 1 1 1 1 1 1 1 1 1 1 1 1 1 1 1 1 1 1 1 1 1 1 - 8 i.i.i.i.o h *.*.*.*.*.*.*.*.*.",
"*.*.*.*.*.*.*.*.*.e $ i.i.i.i.2 : 1 1 1 1 1 1 1 1 1 1 1 1 1 1 1 1 1 1 1 1 1 1 1 1 1 1 1 1 1 1 - 8 i.i.i.i.O h *.*.*.*.*.*.*.*.*.",
"*.*.*.*.*.*.*.*.*.e & i.i.i.i.2 ; 1 1 1 1 1 1 1 1 1 1 1 1 1 1 1 1 1 1 1 1 1 1 1 1 1 1 1 1 1 1 - 8 i.i.i.i.O j *.*.*.*.*.*.*.*.*.",
"*.*.*.*.*.*.*.*.*.e & i.i.i.i.2 : 1 1 1 1 1 1 1 1 1 1 1 1 1 1 1 1 1 1 1 1 1 1 1 1 1 1 1 1 1 1 - 8 i.i.i.i.O k *.*.*.*.*.*.*.*.*.",
"*.*.*.*.*.*.*.*.*.e % i.i.i.i.3 . . . . . . . . . . # 1 1 1 1 1 1 1 1 1 1 # . . . . . . . . . . 9 i.i.i.i.O h *.*.*.*.*.*.*.*.*.",
"*.*.*.*.*.*.*.*.*.e & i.i.i.i.6.~ Q ~ ~ ~ ~ ) ~ ~ p   1 1 1 1 1 1 1 1 1 1 . d ~ ~ ) ~ Q ) ~ ~ ) 8.i.i.i.i.o h *.*.*.*.*.*.*.*.*.",
"*.*.*.*.*.*.*.>.*.e & i.i.i.i.i.i.i.i.i.i.i.i.i.i.K   1 1 1 1 1 1 1 1 1 1 . ` i.i.i.i.i.i.i.i.i.i.i.i.i.i.o h *.*.*.*.*.*.*.*.*.",
"*.*.*.*.*.*.*.*.*.e & i.i.i.i.i.i.i.i.i.i.i.i.i.i.K   1 1 1 1 1 1 1 1 1 1 . ` i.i.i.i.i.i.i.i.i.i.i.i.i.i.o h *.*.*.*.*.*.*.*.>.",
"*.*.*.*.*.*.*.*.*.e % i.i.i.i.i.i.i.i.i.i.i.i.i.i.K   1 1 1 1 1 1 1 1 1 1 . ` i.i.i.i.i.i.i.i.i.i.i.i.i.i.o h *.*.*.*.*.*.*.*.*.",
"*.*.*.*.*.*.*.*.*.e & i.i.i.i.i.i.i.i.i.i.i.i.i.i.K   1 1 1 1 1 1 1 1 1 1 . ` i.i.i.i.i.i.i.i.i.i.i.i.i.i.o h *.*.*.*.*.*.*.*.*.",
"*.*.*.*.*.*.*.*.*.e & i.i.i.i.i.i.i.i.i.i.i.i.i.i.Y   1 1 1 1 1 1 1 1 1 1 . ` i.i.i.i.i.i.i.i.i.i.i.i.i.i.o h *.*.*.*.*.*.*.*.*.",
"*.*.*.*.*.*.*.*.*.e & i.i.i.i.i.i.i.i.i.i.i.i.i.i.K   1 1 1 1 1 1 1 1 1 1 . ` i.i.i.i.i.i.i.i.i.i.i.i.i.i.o h *.*.*.*.*.*.*.*.*.",
"*.*.*.*.*.*.*.*.*.e & i.i.i.i.i.i.i.i.i.i.i.i.i.i.K   1 1 1 1 1 1 1 1 1 1 . ` i.i.i.i.i.i.i.i.i.i.i.i.i.i.o k *.*.*.*.*.*.*.*.*.",
"*.*.*.*.*.*.*.*.*.e & i.i.i.i.i.i.i.i.i.i.i.i.i.i.K   1 1 1 1 1 1 1 1 1 1 . ` i.i.i.i.i.i.i.i.i.i.i.i.i.i.o v >.*.*.*.*.*.*.*.*.",
"*.*.*.*.*.*.*.*.*.e & i.i.i.i.i.i.i.i.i.i.i.i.i.i.K   - - - - - - - - - -   ` i.i.i.i.i.i.i.i.i.i.i.i.i.i.o h *.*.*.*.*.*.*.*.*.",
"*.*.*.*.*.*.*.*.*.e $ i.i.i.i.i.i.i.i.i.i.i.i.i.i.8.7 4 4 4 4 4 4 4 4 4 4 7 w.i.i.i.i.i.i.i.i.i.i.i.i.i.i.o v *.*.*.*.*.*.*.*.*.",
"*.*.*.*.*.*.*.*.*.M   w.i.i.i.i.i.i.i.i.i.i.i.i.i.i.i.i.i.i.i.i.i.i.i.i.i.i.i.i.i.i.i.i.i.i.i.i.i.i.i.i.6.  C *.*.*.*.*.*.*.*.*.",
"*.*.*.*.*.*.*.*.*.X.+ d i.i.i.i.i.i.i.i.i.i.i.i.i.i.i.i.i.i.i.i.i.i.i.i.i.i.i.i.i.i.i.i.i.i.i.i.i.i.i.i.y % X.*.*.*.*.*.*.*.*.*.",
"*.*.*.*.*.*.*.*.*.*.q o [ i.i.i.i.i.i.i.i.i.i.i.i.i.i.i.i.i.i.i.i.i.i.i.i.i.i.i.i.i.i.i.i.i.i.i.i.i.i.W X f *.*.*.*.*.*.*.*.*.*.",
"*.*.*.*.*.*.*.*.*.*.X., o y 8.i.i.i.i.i.i.i.i.i.i.i.i.i.i.i.i.i.i.i.i.i.i.i.i.i.i.i.i.i.i.i.i.i.i.5.9 X 5 *.*.*.*.*.*.*.*.*.*.*.",
"*.*.*.*.*.*.*.*.*.*.*.X.e O   X X X X X X X o X o o O O O O O O o O O O O O O o X X X X X X X X X   $ u *.*.*.*.*.*.*.*.*.*.*.*.",
"*.*.*.*.*.*.*.*.*.*.*.*.*.X.V M m v v v v v v v v v v v v v v v v v v v v v v v v v v v v v v m N C X.*.*.*.*.*.*.*.*.*.*.*.*.*.",
"*.*.*.*.*.*.*.*.*.*.*.*.*.*.*.*.*.*.*.*.*.*.*.*.*.*.*.*.*.*.*.*.*.*.*.*.*.*.*.*.*.*.*.*.>.*.*.*.>.*.*.*.*.*.*.*.*.*.*.*.*.*.*.*.",
"*.*.*.*.*.*.*.*.*.*.*.*.*.*.*.*.*.*.*.*.*.*.*.*.*.*.*.*.*.*.*.*.*.*.*.*.*.*.*.*.*.*.*.*.*.*.*.*.*.*.*.*.*.*.*.*.*.*.*.*.*.*.*.*.",
"*.*.*.*.*.*.*.*.*.*.*.*.*.*.*.*.*.*.*.*.*.*.*.*.*.*.*.*.*.*.*.*.*.*.*.*.*.*.*.*.*.*.*.*.*.*.*.*.*.*.*.*.*.*.*.*.*.*.*.*.*.*.*.*.",
"*.*.*.*.*.*.*.*.*.*.*.*.*.*.*.*.*.*.*.*.*.*.*.*.*.*.*.*.*.*.*.*.*.*.*.*.*.*.*.*.*.*.*.*.*.*.*.*.*.*.*.*.*.*.*.*.*.*.*.*.*.*.*.*.",
"*.*.*.*.*.*.*.*.*.*.*.*.*.*.*.X.*.*.*.*.*.X.*.*.*.*.*.*.*.*.*.*.*.*.*.*.*.*.*.*.*.*.*.*.*.*.*.*.*.*.*.*.*.*.*.*.*.*.*.*.*.*.*.*.",
"*.*.*.*.*.*.*.*.*.*.X.X.*.*.*.*.*.*.*.*.*.*.*.*.*.*.*.*.*.*.*.*.*.*.*.*.*.*.*.*.*.*.*.*.*.*.*.*.*.*.*.*.*.*.*.*.*.*.*.*.*.*.*.*.",
"*.*.*.*.*.*.*.*.*.*.*.*.*.*.*.*.*.*.*.*.*.X.*.*.*.*.*.*.*.*.*.*.*.*.*.*.*.*.*.*.*.X.*.*.*.*.*.*.*.*.*.*.*.>.*.*.*.*.*.*.*.*.*.*.",
"*.*.*.*.*.*.*.*.*.*.*.*.*.*.*.*.*.*.*.*.*.*.*.*.*.*.*.*.*.*.*.*.*.*.*.*.*.*.*.*.*.*.*.*.*.*.*.*.*.*.*.*.*.*.*.*.*.*.*.*.*.*.*.*.",
"*.*.*.*.*.*.*.*.*.*.*.*.*.*.*.*.*.*.*.*.*.*.*.*.*.*.*.*.*.*.*.*.*.*.*.*.*.*.*.*.*.*.*.*.*.*.*.*.*.*.*.*.*.*.*.*.*.*.*.*.*.*.*.*."
};
