/* XPM */
static char *_bca1aa2eb864823958f7c84b8dfecb9ns5m910WZA1OCIfX[] = {
/* columns rows colors chars-per-pixel */
"64 64 165 2 ",
"   c #000000",
".  c #0D0600",
"X  c #073439",
"o  c #083439",
"O  c #143D41",
"+  c #1B4346",
"@  c #144649",
"#  c #1D4549",
"$  c #1E4C4E",
"%  c #234A4B",
"&  c #284E4E",
"*  c #2C514E",
"=  c #254F52",
"-  c #265052",
";  c #2A5355",
":  c #2E5856",
">  c #235659",
",  c #2C5659",
"<  c #265B5D",
"1  c #2E5A5C",
"2  c #305758",
"3  c #325B5C",
"4  c #395D5C",
"5  c #36605F",
"6  c #295F61",
"7  c #335E61",
"8  c #395F61",
"9  c #2D6265",
"0  c #2D6669",
"q  c #346264",
"w  c #3A6364",
"e  c #366867",
"r  c #356569",
"t  c #3B666A",
"y  c #356B6D",
"u  c #3B6B6D",
"i  c #366D71",
"p  c #3B6E72",
"a  c #377174",
"s  c #3B7275",
"d  c #377479",
"f  c #3D7679",
"g  c #3E7A7D",
"h  c #406462",
"j  c #426B6C",
"k  c #486E6E",
"l  c #4C716E",
"z  c #436E71",
"x  c #4B6F73",
"c  c #447374",
"v  c #4A7475",
"b  c #477877",
"n  c #42767A",
"m  c #4B7678",
"M  c #437A7D",
"N  c #4A7B7D",
"B  c #507574",
"V  c #507679",
"C  c #527C7D",
"Z  c #5A7F7F",
"A  c #6B7777",
"S  c #6B7877",
"D  c #6B7A7B",
"F  c #45807F",
"G  c #4D807F",
"H  c #53817F",
"J  c #5C817F",
"K  c #C99820",
"L  c #3F7C81",
"P  c #447D81",
"I  c #4B7E81",
"U  c #527E81",
"Y  c #3F8282",
"T  c #458184",
"R  c #468384",
"E  c #448286",
"W  c #478486",
"Q  c #448284",
"!  c #498183",
"~  c #4A8083",
"^  c #4F8081",
"/  c #4E8182",
"(  c #4C8283",
")  c #4F8283",
"_  c #498184",
"`  c #4A8384",
"'  c #4B8384",
"]  c #4D8385",
"[  c #4F8385",
"{  c #4C8484",
"}  c #4F8485",
"|  c #4D8586",
" . c #4F8586",
".. c #4B8384",
"X. c #448489",
"o. c #4F8688",
"O. c #518281",
"+. c #528281",
"@. c #508082",
"#. c #538183",
"$. c #578180",
"%. c #558183",
"&. c #578183",
"*. c #558383",
"=. c #558582",
"-. c #568583",
";. c #518385",
":. c #548285",
">. c #558386",
",. c #578386",
"<. c #518485",
"1. c #538585",
"2. c #508586",
"3. c #528486",
"4. c #518687",
"5. c #558586",
"6. c #538485",
"7. c #588080",
"8. c #588382",
"9. c #598583",
"0. c #5C8483",
"q. c #5A8487",
"w. c #5C8585",
"e. c #5C8785",
"r. c #5C8786",
"t. c #5E8786",
"y. c #5A8584",
"u. c #558886",
"i. c #588887",
"p. c #5A8A87",
"a. c #5D8987",
"s. c #5F8987",
"d. c #5B8886",
"f. c #518688",
"g. c #548589",
"h. c #548688",
"j. c #578788",
"k. c #548688",
"l. c #5B8688",
"z. c #5C8688",
"x. c #598689",
"c. c #55898A",
"v. c #5B8888",
"b. c #5C8889",
"n. c #5E8C88",
"m. c #5B898A",
"M. c #608685",
"N. c #618685",
"B. c #608986",
"V. c #628987",
"C. c #638A89",
"Z. c #658B89",
"A. c #7F918F",
"S. c #678F91",
"D. c #7F9290",
"F. c #859694",
"G. c #899694",
"H. c #869996",
"J. c #889997",
"K. c #879C99",
"L. c #899B99",
"P. c #969491",
"I. c #8AA09D",
"U. c #8EA3A1",
"Y. c white",
/* pixels */
"Y.Y.Y.Y.Y.Y.Y.Y.Y.Y.Y.Y.Y.Y.Y.Y.Y.Y.Y.Y.Y.Y.Y.Y.Y.Y.Y.Y.Y.Y.Y.Y.Y.Y.Y.Y.Y.Y.Y.Y.Y.Y.Y.Y.Y.Y.Y.Y.Y.Y.Y.Y.Y.Y.Y.Y.Y.Y.Y.Y.Y.Y.Y.Y.",
"                                                                                                                                ",
"K K K K K K K K K K K K K K K K K K K K K K K K K K K K K K K K K K K K K K K K K K K K K K K K K K K K K K K K K K K K K K K K ",
"                                                                                                                              . ",
"  n n b N I *.-.-.H H H +./ N n s n n y n p p n s n n c b b m c c n n s s s s s s s s n p p p c b N N N I U U N M M g g f f n   ",
"  n N                                     N n                                     n M                                     s s   ",
"  M N   ;.i.a.r.a.r.a.i.i.2.2.n p f N p   b N   y N I I +.U C C I N N M M M f f   n M   N I I ) ) ;.5.,.*.*.,.2./ Q M g   s f   ",
"  P P   / +.9.r.a.a.r.n.i.5.2.N s f M p   f N   p N N I U U C N N f M M M M M f   M M   P ~ _ ) } / I +.*.*.U I M M M g   f f   ",
"  T _   N b *.C.C.B.r.B.v.j.2.N f n M p   n n   p N N N +.l.z.,.j.y n M M M g d   P P   ~ } } } 2.N b H b.r.9.+.N M M M   g g   ",
"  W _   N m 7.                    M M p   M n   p N n                     g f s   E ~   _ } f.                    N M M   g P   ",
"  T _   / C 0.6 6 6 6 6 6 6 6 6 6 f M p   n n   p N M 6 6 6 6 6 6 6 6 6 6 M f f   T P   ) 2.j.6 6 6 6 6 6 6 6 6 6 N n M   g M   ",
"  T _   +.7.M.                    f M s   n n   i P M                     P M N   P I   ) j.j.                    b c n   f M   ",
"  | _   b 7.V.6 6 6 6 6 6 6 6 6 6 f P s   n n   y M M 6 6 6 6 6 6 6 6 6 6 _ ~ M   ) j.  2.v.b.6 6 6 6 6 6 6 6 6 6 q 1 y   n P   ",
"  | }   u v C.                    s P s   n n   i M n                     ~ P M   } c.  5.m.S.                    t r p   s P   ",
"  _ )   3 3 w 6 6 6 6 6 6 6 6 6 6 n I n   n M   i M f 6 6 6 6 6 6 6 6 6 6 } ~ P   I )   +.y.Z.6 6 6 6 6 6 6 6 6 6 6 6 s   M ~   ",
"  ~ +.  1 % %                     N I b   n N   y M y                     Q P M   N N   U U M.                    @ > s   M M   ",
"  I +.  3 2 h j k j w 3 1 q b b b I I b   n N   y M i 9 < 6 0 q 6 6 6 r n Q M M   M n   *.r.M.M.B 4 2 7 q q 9 < < < 9 s   P M   ",
"  U 9.  C C J N.M.Z C v v v I N N ;.;.N   b N   y M g f f f n n n n n n M M g f   N I   9.B.B.M.Z m m m b M n f f s f M   M n   ",
"  5.a.  C.C.Z.Z.V.0.7.C C 5.5.I I 5.+.N   N N   i P Q Q T T ~ I ~ P P P M M n f   M I   *.9.9.9.7.*.+./ / Q P P P P P M   b c   ",
"  9.a.  B.C.Z.V.M.0.*.H *.*.,.I N +.I N   N I   d T Q Q E T T I P P P M M M n n   I U   C 5.5.,.2.2.} } | Q P P P L g M   m l   ",
"  5.9.  B.C.C.V.M.9.9.H *.+.+.b b N I N   I I   d T T E T T P M P P P P M M n n   I U   C 5.5.2.2.} } | Q Q P P P L L M   c l   ",
"  5.9.  B.V.C.C.V.r.5.9.2.;.2.b c N / /   ) N   d T T Q Q P N M P M M P P M M N   ;.U   +.v.l.2.} ) Q Q P g g L L L L M   c l   ",
"  2.5.  B.B.C.Z.Z.a.5.9.2.;.) M n N 2./   I N   d T P P P P M M P M P P M M M M   f.U   ,.m.l.2.) ~ P M g g g L L L L g   n m   ",
"  5.r.  r.r.B.C.Z.i.5.H 2./ ~ M M I I I   I I   d P M M M P T _ P _ Q M M M f s   j.l.  9.v.;./ I P M g g g g g g g L Q   N N   ",
"  i.C.  B.B.B.9.9.H N G ..} } ~ P P P I   I I   s M M M M P P P _ } ~ M M M f s   5.v.  y.v.v.;.I P M g g f g L P L L Y   } 2.  ",
"  v.b.  B.C.B.a.i.5.N } ~ ~ Q M P Q Q ~   N I   p M M P P P I I _ _ ~ F M M n s   *.i.  9.b.l.2.~ P P g g f g P P W X.E   Q M   ",
"  i.9.  r.      i.u.} } | _ ~ P M M P P   n I   i       I _ _ ) ~ ~ ~ ~ Q Q M n   l.5.  9.      I P P g g g P E T E E E   P P   ",
"  a.9.  9.  P.  5.2.} } | _ ~ M f M P g   n N   y   P.  I ) _ o.} } _ _ ..~ M N   v.b.  *.  P.  I N P P Q P _ T T E Q E   g P   ",
"  r.9.  9.      5.2.} | _ Q P s i f g d   M N   y       ;.) ) c.u.} _ Q Q P N N   v.Z.  *.      I N P P Q P P T Q Q Q Q   f P   ",
"  U C   v C 5.j.2.} ~ Q P M M y 0 d g d   M N   t z c N ) 2.f.f.2.) Q M M M N N   5.b.  *.9.*.m c p n P Q E P T T Q Q Q   d g   ",
"  v j   w u   2.} _ P M g g g y 0 s M f   M N   3 t   U ;.j.f._ _ I M M M M M /   *.9.  9.r.  v w 1 r M E X.E E T Q Q Q   f g   ",
"  c 3   2     ) _ Q M g g g M i y s M f   n N   ;     ,.v.j.2._ P P P M M M I )   9.a.  r.    k 8 - > f E E X.E E T Q Q   f M   ",
"  C j   1     I ~ P M g g M M s i s M n   N N   3     m ,.2.2._ P P P M g M M /   5.C.  9.    l 4 : e M P P X.X.X.T Q Q   f M   ",
"  C v   t     / I M g g g M M s i s n f   I U   t     v *.2.2.~ M P g g g M N I   *.B.  7.    B h t b Q E E E X.W E P M   f n   ",
"  t =   j     M M M f f g M M s i s n f   I 5.  C     y.v.5./ M P M g g M M N N   5.i.  7.    3 * j N ~ Q Y X.Q Q P M g   s n   ",
"  m z   c     N M M g g g g f p i f M M   _ U   V     C 9.j.) M M M g g f M M P   I ;.  i.    j w j b M Q Q Q Q P g g M   f n   ",
"  c 7   u     ~ M M M g g M P d s g P M   I N   V     C U I I M g g g M M P I I   2.2.  j.    w 1 y M _ Q g g M g g g M   n M   ",
"  c 1   p I   P N M g g g M P f f P T M   I N   m r.  U U I I M f g M M P I ~ I   2.+.  j.5.  t w c I ~ M g g g g g g M   M M   ",
"  b p   n N P M M g g g M P P P M P T M   I N   v 7.*.U I / I M g P P P ~ _ ~ I   c.5.  +.+./ N N I I M M P g g g g g M   P P   ",
"  b b   N M M M M g g L P T T P P P P M   N N   v U U I I / ~ P P T T T _ } | I   c.5.  / +.2.) ) ~ P M g g g g g g M M   ~ ~   ",
"  N N   M M M M P P P E E T T P M M M n   N N   v U +.;.) ~ _ P Q E T T | } } I   c.5.  / ;.} / ~ P M g g g g g g P P P   ~ ~   ",
"  M M   g M P Q T Q Q E E E Q g f n M n   N N   c +.;.2.2._ _ Q Q E E T | } } ~   v.5.  G 2.2.~ P M g g L g g L P E T T   Q Q   ",
"  M M   M P E T T Q Q Q Q L g s d f M n   N N   c ) / ~ _ _ T Q T Q T W | 2.2./   v.j.  / 2.;.P M g g g L g g Q Q T T T   M P   ",
"  M M   P T T T T Q L g g g g d i f M f   N N   s ~ | ~ T T T T W T T | } 2.2.5.  v.2.  N ) ~ M M g g g L L Q T T T T T   M M   ",
"  P P   _ | | T P L g g g g g d i s M s   N N   s _ _ _ T T T X.Q Q | } | } 5.i.  v.2.  N ~ ~ M M L L P P T X.X.T T Q Q   g M   ",
"  I _   _ ~ Q P g g g g g g L d s f n s   N N   s _ ~ Q Q T T X.Q Q | } | ) ;.5.  ;.;.  I I I M g L P Q X.X.X.T T Q P P   f n   ",
"  ) ~   I P M g g g g g g g g d d g n p   b N   s Q Q Q Q Q Q Q Q Q Q | } 2.+./   N N   I I I M M Q E T X.X.I Q Q P P M   d n   ",
"  I I   N N M M f f f f f f f s s f f s   N N   s F M g g P P P P Q Q ~ ~ ~ N N   C C   N I I M g g Q Q Q P P P M g g f   s n   ",
"  I N   N N M n f f f f f f f d d f f s   N M   s M g g g L P P g P P M M N b m   C C   N I I P g g g M M M P M g d d f   s n   ",
"  N N   N N n s s s f f f f f f f g g s   n M   s g g g g g g M g g M M N b v c   N N   N I ~ P g g g g M M g f d s s s   s c   ",
"  b N   N b c s s s s f s f f f f M M s   n M   a g g g g g g f g n n N N N v c   N N   I I I M M g g g f f s s s s s s   s n   ",
"  b N   b b s                     M M p   f M   i g f                     N v c   b N   N N N                     s s s   s s   ",
"  c m   z j z 6 6 6 6 6 6 6 6 6 6 f n p   f M   y n n 6 6 6 6 6 9 6 6 6 9 b b b   v b   N N N 6 6 6 6 6 6 6 6 6 6 p y p   p s   ",
"  z c   1 7 j                     s s y   s n   y c s                     b b v   b v   b n b                     q 7 r   p c   ",
"  v v   % - w 8 w q t 6 6 6 6 6 6 s s y   s c   r p y q 6 q q 6 6 6 6 6 6 b b c   v v   v b c p , + - 6 6 6 6 6 6 3 , 7   z c   ",
"  z c   # % :                     s s 0   a s   9 y y                     m j w   c v   c c s                     - ; w   z c   ",
"  j j   = 2 j 6 6 6 6 6 6 6 6 6 6 s s r   s y   q y u 6 6 6 6 6 6 6 6 6 6 v j 5   v v   z z u 6 6 6 6 6 6 6 6 6 6 , = 7   c c   ",
"  j t   # + # 6 6 6 6 6 6 $ q y p p p q   y t   7 t w 6 6 6 6 6 6 # & 2 j B j 3   v x   z z t 6 6 6 6 6 6 o X O # + = w   z u   ",
"  t y                                     t t                                     v v                                     y u   ",
"  y y y p y y y y y y y y y y y y t t 7   r r n 6 r t t u u u j u c c v v v j t j z c n u t t t r r r r r y y y y y p i i y y   ",
"                                                                                                                                ",
"                                                                                                                                ",
"D D D D D D D D D D D D D D D D D D D D D D D D D D D D D D D D D S D D D D D D D D D D D D D D D D D D D D D D D D D D D A A A ",
"K.U.I.L.H.H.J.J.L.L.L.J.F.A.F.F.F.F.J.J.H.H.H.L.L.L.H.F.D.F.H.H.F.F.G.J.K.L.L.K.K.U.I.L.H.H.J.J.L.L.L.J.F.A.F.F.F.F.J.J.F.G.G.F."
};
