/* XPM */
static char *_a16bf1b7c244f7482b9840165c4bc91T8NSGnDzyz4MPt5y[] = {
/* columns rows colors chars-per-pixel */
"64 64 203 2 ",
"   c #000000",
".  c #060904",
"X  c #0B1509",
"o  c #0D190A",
"O  c #14260E",
"+  c #193011",
"@  c #203D14",
"#  c #113736",
"$  c #283F3B",
"%  c #274C18",
"&  c #2B541B",
"*  c #2F5A1F",
"=  c #38551E",
"-  c #36661E",
";  c #1F4130",
":  c #274929",
">  c #2B5427",
",  c #254538",
"<  c #2F582D",
"1  c #3A6E22",
"2  c #366622",
"3  c #3A7221",
"4  c #3B7723",
"5  c #4D5619",
"6  c #466A23",
"7  c #417D23",
"8  c #4E7426",
"9  c #507526",
"0  c #143D41",
"q  c #1B4548",
"w  c #2B4D4B",
"e  c #254B47",
"r  c #2C534B",
"t  c #254F52",
"y  c #2B5353",
"u  c #2D5B5C",
"i  c #275759",
"p  c #325C5C",
"a  c #395A53",
"s  c #30574D",
"d  c #31605F",
"f  c #295F61",
"g  c #335E61",
"h  c #395F62",
"j  c #346364",
"k  c #396364",
"l  c #366569",
"z  c #3B666A",
"x  c #376C6C",
"c  c #3B6B6D",
"v  c #376F71",
"b  c #3B6E72",
"n  c #3B7275",
"m  c #3D7679",
"M  c #3E7A7D",
"N  c #2D6265",
"B  c #426B6C",
"V  c #456A68",
"C  c #4D716D",
"Z  c #436E71",
"A  c #447274",
"S  c #43767A",
"D  c #437A7D",
"F  c #4A7A7C",
"G  c #497475",
"H  c #527C7B",
"J  c #5A7F7F",
"K  c #6B7B7B",
"L  c #6A7776",
"P  c #866A19",
"I  c #2F8C29",
"U  c #318E2A",
"Y  c #3C8D28",
"T  c #35932B",
"R  c #3A962B",
"E  c #3C9B2C",
"W  c #3C9235",
"Q  c #3FA02D",
"!  c #448425",
"~  c #478925",
"^  c #498D26",
"/  c #5A8329",
"(  c #4B9227",
")  c #429A2C",
"_  c #4C9B2B",
"`  c #4C9428",
"'  c #42953C",
"]  c #509B29",
"[  c #628F2C",
"{  c #67972D",
"}  c #44A52E",
"|  c #46A82D",
" . c #4CAB2E",
".. c #4BA02D",
"X. c #54A52C",
"o. c #55AD2D",
"O. c #59AF2D",
"+. c #5BB12D",
"@. c #54B02F",
"#. c #52AD32",
"$. c #5DAC31",
"%. c #5CB331",
"&. c #58B236",
"*. c #63B52F",
"=. c #68B72F",
"-. c #75AA31",
";. c #65B631",
":. c #6AB432",
">. c #6BBA32",
",. c #64B832",
"<. c #72BD33",
"1. c #7CB433",
"2. c #6EA12F",
"3. c #75C134",
"4. c #7CC535",
"5. c #7FC837",
"6. c #4D9C46",
"7. c #5FB540",
"8. c #5BAA49",
"9. c #67B849",
"0. c #65A75C",
"q. c #6EBA51",
"w. c #78BF52",
"e. c #54817F",
"r. c #4E807F",
"t. c #6EAC63",
"y. c #7CC25F",
"u. c #7FC264",
"i. c #81BB35",
"p. c #AD841D",
"a. c #C99820",
"s. c #C59520",
"d. c #81C736",
"f. c #84CA37",
"g. c #89CC37",
"h. c #8BCE39",
"j. c #86C939",
"k. c #8ED139",
"l. c #91D23A",
"z. c #90CF3A",
"x. c #85B87A",
"c. c #9BD643",
"v. c #97D442",
"b. c #91CA56",
"n. c #A4DA4A",
"m. c #A0D846",
"M. c #ADDE51",
"N. c #B1DF54",
"B. c #B8E25A",
"V. c #8EC973",
"C. c #92CB77",
"Z. c #83C468",
"A. c #BFE660",
"S. c #C2E763",
"D. c #D2ED6E",
"F. c #DBF178",
"G. c #D8EF76",
"H. c #E4F67D",
"J. c #3E7C81",
"K. c #437E81",
"L. c #4B7E81",
"P. c #527E81",
"I. c #448284",
"U. c #4B8284",
"Y. c #448489",
"T. c #548484",
"R. c #5B8584",
"E. c #5B8887",
"W. c #5C8988",
"Q. c #578788",
"!. c #608684",
"~. c #628986",
"^. c #658B89",
"/. c #7F918F",
"(. c #7F9290",
"). c #859694",
"_. c #869996",
"`. c #889997",
"'. c #899B99",
"]. c #889997",
"[. c #969491",
"{. c #8FBD82",
"}. c #8AA09D",
"|. c #8EA3A1",
" X c #9FD184",
".X c #9BCD81",
"XX c #AAD491",
"oX c #B5D2A5",
"OX c #ECF982",
"+X c #F3FC88",
"@X c #C6DBB3",
"#X c #C0DDA9",
"$X c #D4E7BB",
"%X c #C6E2AC",
"&X c #DAE8C4",
"*X c #E3EDCA",
"=X c #E1EDC7",
"-X c #ECF0D6",
";X c #F4F6DA",
":X c #F5F7DA",
">X c #E8F0CF",
",X c #FEFBE2",
"<X c white",
/* pixels */
"<X<X<X<X<X<X<X<X<X<X<X<X<X<X<X<X<X<X<X<X<X<X<X<X<X<X<X<X<X<X<X<X<X<X<X<X<X<X<X<X<X<X<X<X<X<X<X<X<X<X<X<X<X<X<X<X<X<X<X<X<X<X<X<X",
"                                                                                                                                ",
"a.a.a.a.a.a.a.a.a.a.a.a.a.a.a.a.a.a.a.a.a.a.a.a.a.a.a.p.5 5 - 4 7 - 6 5 P s.a.a.a.a.a.a.a.a.a.a.a.a.a.a.a.a.a.a.a.a.a.a.a.a.a.a.",
"                                                  . O 4 X.O.O.O.O.O.O.+.( % .                                                 . ",
"  S S S F L.T.T.T.e.e.e.T.U.F S n S S x S b x y : 4 o.O.O.O.O.O.O.O.O.O.O.O.` : l n n S b b b A S F F F L.P.P.F D D M M m m S   ",
"  S F                                   . : 3 ` O.O.O.O.O.>.d.h.l.h.d.>.O.O.O.o.- w S                                     n n   ",
"  D F   T.Q.E.E.E.E.E.Q.Q.T.T.S b m A : ! O.O.O.+.;.<.5.k.l.l.l.l.l.l.l.f.+.O.O.O.` > . F L.L.U.T.T.T.T.T.T.T.T.U.I.D M   n m   ",
"  L.L.  U.T.R.E.E.E.E.W.Q.T.T.F n b : X.O.O.O.5.B.B.l.l.l.l.k.l.l.l.l.5.k.h.,.O.O.O.+.` < p U.U.U.U.L.T.T.T.P.L.D D D M   m m   ",
"  I.U.  F F T.^.^.!.E.!.E.Q.T.F m , X.O.O.+.f.D.+XD.l.l.5.#.} } %.h.l.3.;.h.k.5.;.O.O.O.O.! r U.T.F A e.W.E.R.T.F D D D   M M   ",
"  Y.U.  F G R.                  . ! O.O.3.h.l.m.n.l.d.%.} } } } }  .d.l.5.g.l.l.l.k.4.+.O.O.7 .                   F D D   M K.  ",
"  I.U.  U.H R.f f f f f f f f i > +.;.h.l.l.l.3.#.} } } } } } } } }  .3.l.l.l.l.l.l.l.g.+.O.+.: f f f f f f f f f F S D   M D   ",
"  I.U.  T.R.!.                O X.+.h.1.8 2.>.} } } } } } } E E } } } }  .%.>.d.l.B.OXM.f.O.O.7 .                 A A S   m D   ",
"  U.U.  F R.~.f f f f f f f # ] +.3.i./ l.1 } } } Q E E E E } } } } } } } } } } ,.l.F.H.l.>.O.O.; f f f f f f f f j u x   S L.  ",
"  U.U.  c G ^.            . ~ O.O.h.9 h.9 ) } E U I U I I I U E } } } } E R } } } 3.l.v.l.h.O.+.1 .               z l b   n L.  ",
"  U.U.  p p k f f f f f t 2 O.O.4.l.8 - Y } R U I I T U I I I I U R E } } T U E }  .h.l.[ j.;.O.+.: u f f f f f f f f n   D U.  ",
"  U.T.  u e e           O o.O.<.l.l.#.} } E I U E } } R I I I I I I I U R } E U E } %.l./ 8 g.O.O.X.X             q i n   D D   ",
"  L.T.  p p V V C V k w 4 O.*.l.l.<.} } R I T } } R U I I T E E E R I I I T } E I } } <.9 2.1.5.O.O.4 w j j N u u i N n   L.D   ",
"  P.R.  H H e.!.!.J H $ X.O.f.l.l.@.} R I U } E U I I R } } } } } } } E U I R } T E } } :.6 i.l.3.O.+.: A D S m m n m D   D S   ",
"  T.E.  ^.^.^.^.~.R.R.< +.+.l.n.c.#.} U I I U I I T } } } } E U U T E } } I I } } } } } } 5.l.l.l.*.O.4 z I.L.L.L.K.K.D   F A   ",
"  R.E.  !.^.^.~.!.R.T.2 O.;.l.OXM. .} I I I I I T } } E E R I I I I I I R I I U } } } } } } d.l.l.5.O.O.y I.K.K.K.J.M D   F C   ",
"  T.R.  !.^.^.~.!.R.V ! O.3.n.OXj.} Q I R U I I } } T I I I I I I E } T I I I I I E } } } } @.l.D.l.O.+.< I.K.K.K.J.J.D   A C   ",
"  T.R.  !.~.^.^.!.R., o.O.h.l.v.%.} T R } T I E } T I I ) :.<.:.R I T } E I I I I I R } E } } k.N.l.*.+.> M M J.J.J.J.D   A C   ",
"  T.T.  !.!.^.^.^.R.2 O.4.l.l.3.} E U } Q I E } E I U >.l.h.<.>.<.I I T } E I I I I I E E E } h.l.l.*.+.& M M J.J.J.J.M   S F   ",
"  T.E.  E.E.!.^.^.a ` +.k.l.l. .} U E } U I } E I U 5.l.#.U I U U I T I R } T I U E U I } } } d.l.l.*.O.1 v M M M M J.I.  F F   ",
"  Q.^.  !.!.!.R.R.: +.3.l.l.d.} R I } E I I U I I <.l._ I 0.oX@X{.U X.3.U R } T I E E I E } } ,.l.l.=.O.` u M J.K.J.J.I.  U.T.  ",
"  E.W.  !.^.!.E.T.3 O.4.9 { 3.} T I } U I I I I _ l.$.I  X;XXX.X&X&XW <.<.I E } I T } I T } } } f.l.<.O.+., M K.L.Y.Y.I.  I.D   ",
"  Q.R.  E.      C ~ O.{ i.[ >.} R I U I I I I I <.h.U x.*X9. . .#.oX@XT k.) I } R I } U I } } } %.l.g.O.O.& D I.I.I.I.I.  K.L.  ",
"  E.R.  R.  [.  k ( O.1.= 1.4.} E I I I E } I I g.$.W ;Xq. .C. X9.#.&X0.>.:.I E E I T I I } } } } g.l.;.O.^ k I.I.I.I.I.  M K.  ",
"  E.R.  R.      V ~ O.k.l.l.5.} E I I U | } I I h.R {.#X .$X,X,X;Xq.V.oX_ d.I T T I I I I } } } } 3.l.5.O.+.r I.I.I.I.I.  m K.  ",
"  P.H   G H T.Q.r.4 O.g.l.l.;.} R I I R } R I I R I @XZ.V.:Xw.9.$X$X#.-XU 5.I I I I I I R } E E } ,.l.l.O.+.> I.I.I.I.I.  m M   ",
"  G B   k c   T.U.< O.3.l.l.o.} U I I E } T I I I I *Xq.%XXXo. .9.,X7.=X' R I I I I I I R } R T } ,.l.l.*.+.& I.I.I.I.I.  m M   ",
"  A p   p     U.U., +.*.l.k.} Q I R U T } T I I I U -X9.$XV.o.o. .:Xq.$X6.U I I U I I I T } R T } <.l.l.*.+.& I.I.I.I.I.  m D   ",
"  H B   u     L.U., X.O.h.f.} E I Q T I } E I I I I >Xq.%XXXo.o. .:X9.$X6.U I I E R I I I } E R } 5.D.n.*.+.> Y.Y.I.I.I.  m D   ",
"  H G   z     U.L., X.O.h.h.} E I } R I E } I I :.I &XZ. X;X7.o.&.,X&.*X' I I I E E I I I Q } } } v.+XM.+.+.e Y.Y.I.K.D   m S   ",
"  z t   B     D D , +.O.k.l. .E I E E I E } T I g.R oXoX&.=X;XV.C.&X#.-XI I I I E E I I I E } } } M.+Xv.O.~ k I.I.L.D M   n S   ",
"  G Z   A     F D < +.*.k.l.,.} I T } I E } T I d.X.0.:X9.&.y.&.>XC.u.oXI o.R I } R I E I R } } } l.N.<.O.> D I.K.M M D   m S   ",
"  A g   c     U.D 2 O.<.G.A.d.} R I I I E } T I <.d.I $X-XXX X=X=X#.%Xt.U d.) I } U U } I E } } } g.l.*.O.e M M M M M D   S D   ",
"  A u   b L.  L.F 3 O.3.D.H.l.| } T I I T } R I ..l...' &X,X,X&X7.q.*XT ) l.T T E I E E I E } | } d.l.O.^ d M M M M M D   D D   ",
"  S b   S F L.D D 3 O.<.l.l.l. .} } I I I } } I I 5.g.T U 8.8.E 8.>X0.I <.<.I I I I } R I } 2 2 } f.g.O.3 n M M M M M D   L.L.  ",
"  F F   F D D D D 2 O.+.l.l.l.} } } E I I T } E I R k.d.R U T W @Xt.U ..l.) I I I E } U E 4 1.6 } h.f.O.2 n M M M M D D   U.U.  ",
"  F F   D D D D K., +.O.d.l.l.} E } } I I I T } T I ) g.k.;.T U U U R g.<.I I I T } E U } 1 l.1 o.l.d.O.1 v M M M K.K.K.  U.U.  ",
"  D D   D D K.I.I.p ^ O.;.l.l. .E E } I I I I I I I I U X.;.) I I ) g.3.T I I I E } U R | 1 / Y 3.l.5.O.2 n M J.K.I.I.I.  I.I.  ",
"  D D   D K.I.I.I.I.: O.O.h.l.%.} E } T I } T I I I T U I I I I I >.$.U U } T I } R I E } Y Y @.k.l.<.O.& M M I.I.I.I.I.  D L.  ",
"  D D   L.I.I.I.I.I.j ! O.4.l.k. .} } E I E } I I I R } E E T I I I I U } } I I U I I } } |  .g.l.l.*.+.< J.I.I.I.I.I.I.  D D   ",
"  L.L.  U.U.U.I.K.J.M > O.>.[ 9 2.#.} } R U } } T I I T Q } } E E E E } } U I I I I R } } | 4.l.l.d.O.X.y I.Y.Y.I.I.I.I.  M D   ",
"  L.U.  U.U.I.K.M M M , O.+.2.-.8 f. .} } R U E } } T I I U R E } } } R U T E U I U } R E %.l.l.k.+.+.* M Y.Y.I.I.I.K.K.  m S   ",
"  U.U.  L.L.D M M M M r _ O.f.6 8 i.>.} } } T I R } } U I I I I I I I I R } E I U } } I } 3.l.l.;.O._ y Y.Y.L.I.I.K.K.D   m S   ",
"  L.L.  F F D D m m m l 7 O.;.h.-.l.g.} } } E I I U T I I I I I I I U E } R I R } } U R } g.l.5.O.O.: D I.K.L.L.D M M m   n S   ",
"  L.F   F F D S m m m m > +.O.<.l.l.l.} b.F.#.T I I I I I T } } Q } } } T I E } E U U } @.l.l.*.O.* x D D D K.D M m m m   n S   ",
"  F F   F F S n n n m m w ^ O.O.;.l.l.#.#.F.w.} R I I I I I U R E E R I I E } E I U } } d.l.g.O.( y M M D D M m m n n n   n S   ",
"  F F   F S S n n n n m n , _ O.O.;.l.4.} } } } } } } } E U I I I I I I E } } E E }  .4.n.l.;.O.> m M M m m n n n n n n   n m   ",
"  A F   F A n               X ~ O.O.5.l.<.} } } } } E } } } E T U T E } } } } }  .>.h.S.H.d.O.X..                 n n n   v n   ",
"  A G   Z B Z f f f f f f f f # ( O.+.l.l.f.,.} } } U I T Q } } } } } } } }  .3.k.l.l.v.k.+.O.- i f f f f f f f f b x b   b n   ",
"  Z A   u g B                   O O.O.5.l.v.S.h.%.} } E U I T T U U } } } %.h.l.v.l.l.f.+.O.X.X                   j g l   b A   ",
"  G G   e y k h k j z f f f f f t 1 O.O.d.l.S.c.l.%.} } } } } } } } }  .3.l.n.H.OXk.3.O.O.+.: z i q y f f f f f f p i g   Z A   ",
"  Z A   q e y                     e ^ O.O.;.f.l.l.l.3. .} } } } }  .<.k.l.v.OXH.c.3.O.O.o.: k                     t y k   Z A   ",
"  B B   t p B f f f f f f f f f f n , ! O.O.O.+.5.l.l.l.h.5.5.5.d.z.l.l.l.l.n.l.3.O.O.! , z c f f f f f f f f f f i t g   A A   ",
"  B z   q q q f f f f f f q j x b b b w % _ O.O.O.>.k.l.l.l.l./ { 6 h.l.g.d.3.*.O.X.> . Z Z z f f f f f f # # 0 q q t k   Z c   ",
"  z x                                     w : 7 +.O.+.3.k.l.l.2.[ -.3.+.O.O.+.+.^ , V                                     x c   ",
"  x x x b x x x x x x x x x x x x z z g   l l k : ^ +.O.O.;.;.>.;.O.O.O.O.+.X.* w Z A S c z z z l l l l l x x x x x b v v x x   ",
"                                                  . @ ~ +.+.+.+.O.O.+.+.^ % X                                                   ",
"                                                      . o @ & & & % + X .                                                       ",
"K K K K K K K K K K K K K K K K K K K K K K K K K K K K K K K L L L K K K K K K K K K K K K K K K K K K K K K K K K K K K L L L ",
"'.|.}.'._._.].].'.'.'.].)./.).).).).].]._._._.'.'.'._.).(.)._._.).).`.].'.'.'.'.'.|.}.'._._.].].'.'.'.].)./.).).).).].].).`.`.)."
};
