/* XPM */
static char *ac1fdca27eae495ec58f495757c869fciP1xoUkGhiLiB3DM[] = {
/* columns rows colors chars-per-pixel */
"64 64 182 2 ",
"   c #052B2C",
".  c #062F34",
"X  c #053237",
"o  c #043439",
"O  c #083439",
"+  c #0A3B3F",
"@  c #123C3F",
"#  c #183C3E",
"$  c #22363B",
"%  c #25383C",
"&  c #2D3B3E",
"*  c #303C3F",
"=  c #073841",
"-  c #0C3D43",
";  c #133E41",
":  c #1B3E42",
">  c #263C41",
",  c #2E3C41",
"<  c #313E41",
"1  c #0F4145",
"2  c #144245",
"3  c #1B4346",
"4  c #13464A",
"5  c #1C4649",
"6  c #15494D",
"7  c #1C4A4D",
"8  c #1C4D51",
"9  c #1C5255",
"0  c #1E5C5B",
"q  c #204647",
"w  c #21474B",
"e  c #234B4D",
"r  c #2A4E4D",
"t  c #334245",
"y  c #2C514F",
"u  c #254E51",
"i  c #235256",
"p  c #2A5354",
"a  c #2E5856",
"s  c #23565A",
"d  c #2C5659",
"f  c #255A5D",
"g  c #2C5A5C",
"h  c #335555",
"j  c #305759",
"k  c #325B5D",
"l  c #3A5D5D",
"z  c #33625F",
"x  c #265E61",
"c  c #2D5E62",
"v  c #345E61",
"b  c #3A5F61",
"n  c #266163",
"m  c #2D6265",
"M  c #2D6669",
"N  c #346264",
"B  c #3B6365",
"V  c #366867",
"C  c #346669",
"Z  c #3B6669",
"A  c #356B6D",
"S  c #3C6B6D",
"D  c #366D71",
"F  c #3B6E71",
"G  c #377174",
"H  c #3C7275",
"J  c #377479",
"K  c #3D767A",
"L  c #3E7A7D",
"P  c #425D55",
"I  c #406362",
"U  c #4C6862",
"Y  c #426768",
"T  c #426B6C",
"R  c #486E6E",
"E  c #4C716E",
"W  c #436E71",
"Q  c #4A6F73",
"!  c #447274",
"~  c #4A7475",
"^  c #477877",
"/  c #497877",
"(  c #42767A",
")  c #4A7679",
"_  c #437A7D",
"`  c #4B7B7D",
"'  c #517675",
"]  c #51767A",
"[  c #537C7D",
"{  c #597F7F",
"}  c #677777",
"|  c #6A7777",
" . c #677877",
".. c #6B7877",
"X. c #6B7A7A",
"o. c #45807F",
"O. c #4D807F",
"+. c #53817F",
"@. c #5B817F",
"#. c #C99820",
"$. c #3E7C81",
"%. c #447E81",
"&. c #4B7E81",
"*. c #517E80",
"=. c #527E80",
"-. c #517E81",
";. c #527E81",
":. c #5A7E81",
">. c #3F8282",
",. c #468081",
"<. c #448284",
"1. c #4B8183",
"2. c #4A8383",
"3. c #4E8182",
"4. c #4C8283",
"5. c #4F8182",
"6. c #4B8284",
"7. c #4E8185",
"8. c #4D8385",
"9. c #4F8385",
"0. c #4F8485",
"q. c #4B8384",
"w. c #448489",
"e. c #4F8688",
"r. c #4C898A",
"t. c #538183",
"y. c #518181",
"u. c #558183",
"i. c #578183",
"p. c #558383",
"a. c #568583",
"s. c #558582",
"d. c #518384",
"f. c #548285",
"g. c #558386",
"h. c #518586",
"j. c #528486",
"k. c #528585",
"l. c #558587",
"z. c #568584",
"x. c #538484",
"c. c #598683",
"v. c #598487",
"b. c #5A8684",
"n. c #5C8785",
"m. c #5C8786",
"M. c #5E8786",
"N. c #5A8484",
"B. c #558886",
"V. c #588887",
"C. c #5A8A87",
"Z. c #5D8987",
"A. c #5F8987",
"S. c #5C8886",
"D. c #578688",
"F. c #548688",
"G. c #588588",
"H. c #5B8689",
"J. c #55898A",
"K. c #598989",
"L. c #5F8C8B",
"P. c #5E8C88",
"I. c #5B8989",
"U. c #5A8B90",
"Y. c #618685",
"T. c #638987",
"R. c #628589",
"E. c #658A89",
"W. c #6A8B8B",
"Q. c #788787",
"!. c #788887",
"~. c #7F918F",
"^. c #678F91",
"/. c #7F9290",
"(. c #859694",
"). c #899694",
"_. c #869995",
"`. c #889997",
"'. c #879C99",
"]. c #899B99",
"[. c #8AA09D",
"{. c #8EA3A1",
/* pixels */
"#.#.#.#.#.#.#.#.#.#.#.#.#.#.#.#.#.#.#.#.#.#.#.#.#.#.#.#.#.#.#.#.#.#.#.#.#.#.#.#.#.#.#.#.#.#.#.#.#.#.#.#.#.#.#.#.#.#.#.#.#.#.#.#.",
"#.#.#.#.#.#.#.#.#.#.#.#.#.#.#.#.#.#.#.#.#.#.#.#.#.#.#.#.#.#.#.#.#.#.#.#.#.#.#.#.#.#.#.#.#.#.#.#.#.#.#.#.#.#.#.#.#.#.#.#.#.#.#.#.",
"#.#.#.#.#.#.#.#.#.#.#.#.#.#.#.#.#.#.#.#.#.#.#.#.#.#.#.#.#.#.#.#.#.#.#.#.#.#.#.#.#.#.#.#.#.#.#.#.#.#.#.#.#.#.#.#.#.#.#.#.#.#.#.#.",
"c N N N N N N N N z g g f f i 8 4 - 1 ;   - - 6 8 8 8 8 7 2 @ - ; - 6 4 2 1 1 1 - = o o o o X X o + 2 2 ; ; 2 7 9 9 0 n C F F W ",
"` ( ( ^ ` &.p.a.a.+.+.+.y.3.` ( H ( ( A o F F C H ( ( ! ^ ^ / ! ! ( ( H H H H H H H H F F F F ! ^ ` ` ` &.=.=.` _ _ L L K K ( ` ",
"` ( ` ` d.K.L.L.Z.c.b.l.K.D.h.( H ( &.F . ` ( f F &.&.&.&.y.p.` ` ` ` ( ( K K K ( ( _ ( ( ` &.8.h.h.l.D.b.b.G.l.0.1.<._ K H H ` ",
"` _ ` &.d.V.Z.m.Z.m.Z.V.V.h.h.( F K ` F X ^ ` i A ` &.&.y.=.[ [ &.` ` _ _ _ K K ( ( _ ( ` &.&.8.d.d.l.g.p.p.g.h.3.<._ L K H K ` ",
"%.%.%.1.3.y.c.m.Z.Z.m.L.V.h.h.` H K _ F = K ` i F ` ` &.=.=.[ ` ` K _ _ _ _ _ K ( _ _ ` %.1.1.1.0.3.&.y.p.p.=.&._ _ L L K K K ` ",
"%.<.1.1.` ^ p.E.E.T.m.T.K.G.h.` K K _ F 4 ( ( s F ` ` ` y.G.H.g.D.A K _ _ _ L J L %.%.%.1.0.0.0.h.` ^ +.Z.m.b.p.` ( ( _ L L L %.",
"<.w.1.8.` / i.E.E.T.T.m.Z.K.h.` K _ _ F 6 _ ( f F ` ( ` y.H.Z.G.U.C H _ _ L K H L <.1.1.1.0.h.h.h.` ! [ E.m.R.N.` ` _ _ _ L %.<.",
"<.<.1.8.3.[ N.E.T.T.E.m.H.l.d.( H K _ F 4 ( ( s F ` _ ^ ` [ [ =.&.! ( ( _ L K K %.<.%.1.8.h.D.l.l.p.[ { N.i.:.;.` ` ( _ _ L _ w.",
"<.<.1.1.y.i.Y.T.T.T.Y.i.[ ^ ` ! D K _ H 2 ( ( i D %._ ( ^ / / / / ` ( ` %.%._ ` %.%.&.1.8.D.D.b.c.i.i.i.[ { [ ] ) ^ ! ( ( K _ 1.",
"<.8.1.` ^ i.T.Y.T.T.' [ B p A H D K %.H - ( ( 9 A _ _ ( ^ ^ / W ` ( ` ` &.1.1._ %.8.D.8.h.K.Z.Z.' T ] i.:.c.[ ) ~ B g A _ ( %.%.",
"r.8.0.` S ~ E.W.T.Y.N.@.Z p A A m H %.H - ( ( 9 D _ ( ( ^ / ) =.` ` d.h.0.1.%._ %.0.J.&.l.L.^.E.~ I ' N.Y.i.) ) / S C F ( H %.1.",
"_ 8.8.^ k k B b l I Y ] v e V F A ( &.( 8 ( _ i D _ K C g i u g m A H ` 8.0.1.%.&.&.8.d.y.N.E.W.' h h h k j g c N c c F %._ 1.%.",
"8.1.y.^ g w e r p r r e w p ! ! ! ` &.^ g ( ` i A _ A 9 4 4 6 8 7 7 8 f H <.%._ %.` ` &.=.;.Y.T.' y 3 q e 4 4 2 4 4 s F %._ _ 8.",
"8.&.y./ k j I Y R Y B k g N ^ ^ ^ &.&./ C ( ` i A L D m f x m N c c x C ( <._ _ _ _ ( / p.m.Y.Y.' l j N N N m f f f m H %.%._ %.",
"` =.l.b.[ [ @.Y.Y.{ ] ~ ~ ~ &.` ` d.d.` A ^ ` i A _ L K K K ( ( ( ( ( ( _ _ L K K ` &.! c.T.T.Y.{ ) ) ) ^ _ ( K K H K _ _ _ ( ( ",
"&.l.Z.Z.E.E.E.E.T.N.i.[ [ l.l.&.&.l.y.` S ` ` s D %.<.<.<.<.1.&.1.%.%.%._ _ ( K ( _ &.S p.b.b.b.i.p.d.3.3.<.%.%.%.%.%._ ` ^ ! k ",
"d.b.Z.m.T.E.E.T.Y.i.p.@.p.p.g.&.` y.&.` S ` &.f J <.<.<.<.<.<.&.%.%.%._ _ _ ( ( ^ &.=.Z [ l.l.g.h.h.0.0.8.<.%.%.%.$.L _ ( ) E r ",
"h.l.b.Z.T.E.E.T.Y.c.b.@.p.y.y.^ ^ ` &.` F &.&.f J <.<.<.<.<.%._ %.%.%.%._ _ _ ( ` &.=.Z [ l.l.h.h.0.0.8.<.<.%.%.%.$.$._ ^ ! E P ",
"l.l.b.Z.T.T.E.E.T.m.l.c.d.d.d.^ ! ` 3.3.( 8.` f J <.<.<.<.%.` _ %._ _ %.%._ _ ` &.d.=.S y.K.G.h.0.3.<.<.%.L L $.$.$.$._ ( ! E U ",
"l.h.l.m.T.T.E.E.E.Z.l.b.h.d.8._ ( ` h.3.` &.` f J <.%.%.%.%._ _ %._ %.%._ _ _ _ &.h.;.W g.L.G.h.8.1.%._ L L L $.$.$.$.L _ ( ) E ",
"` l.m.m.m.m.T.E.E.V.l.+.h.3.1.o._ &.&.&.` &.&.m J %._ _ _ %.<.1.%.1.<._ _ _ K H ` D.G.W b.K.d.3.&.%._ L L L L L L L $.<.<.` ` ' ",
"` V.E.T.T.T.T.b.c.+.` O.2.0.e.1.%.%.%.&.&.&.&.c H _ _ _ _ %.%.%.1.0.1._ _ _ K H ` l.K.S N.K.K.d.&.%._ L L K L $.%.$.$.>.w.0.h.[ ",
"d.K.Z.Z.T.E.T.Z.V.l.` 0.1.1.<._ %.<.<.<.%._ &.g F _ _ %.%.%.&.&.1.1.1.o._ _ ( H ` p.V.S b.Z.G.h.1.%.%.L L K L %.%.w.w.<.%.<._ _ ",
"p.V.b.b.m.m.Z.V.V.B.0.0.8.1.1.%._ _ %.%.K ( &.f D _ ` %.&.1.1.8.1.1.1.1.<.<._ ( &.G.l.~ b.m.p.3.&.%.%.L L L %.<.<.<.<.<.%.%.%.1.",
"y.Z.b.b.b.b.V.V.l.h.0.0.8.1.1._ K _ %.L F ( ` s A ` ` &.&.8.1.e.0.0.1.1.2.1._ ` 3.K.Z.) p.b.p.y.&.` %.%.<.%.1.<.<.<.<.<.%.L %.8.",
"=.m.b.b.b.b.b.K.l.h.0.8.1.<.%.H D K L J A _ ` s A ` &.&.d.8.8.J.B.0.1.<.<.%.` ` &.K.E.) @.i.p.y.&.` %.%.<.%.%.<.<.<.<.<.$.K %.1.",
"[ ;.[ ) ~ [ l.D.h.0.1.<.%._ _ A M J L J C _ ` i Z W ! &.8.h.h.h.h.8.<._ _ _ ` &.&.b.Z.[ p.c.@.) ! F ( %.<.<.%.<.<.<.<.<.L J L %.",
"[ ~ T T B S y.h.0.1.%._ L L L A M H _ K C _ ` 8 k Z ! =.d.D.h.1.1.&._ _ _ _ %.3.y.p.b.[ c.m.[ ~ B g C _ <.w.<.<.<.<.<.<.L K L %.",
"i.! k B j N ` 8.1.<._ L L L _ D A H _ K C ( ` 5 p T ) g.K.D.h.1.%.%.%._ _ _ &.8.d.b.Z.) m.E.] R b p f K <.<.w.<.w.w.<.<._ K _ %.",
"i.] T k g V ` &.1.%._ L L _ _ H D H _ ( A ` ` u k v B ) g.h.h.1.%.%.%._ L _ _ 3.d.l.E.! c.E.@.E l a V _ %.%.w.w.w.<.<.<._ K _ %.",
"[ [ ~ B Z / &.3.&._ L L L _ _ H D H ( K A &.=.d B j j ~ p.h.h.1._ %.L L L _ ` &.y.p.T.! i.m.m.' I B ^ <.<.<.<.w.w.<.%._ _ K ( &.",
"m.Z u g T ^ &._ _ _ K K L _ _ H D H ( K A &.l.g ] E.N.N.K.l.3._ %._ L L _ _ ` ` y.l.V.[ i.b.[ k y T ` 1.<.>.w.<.<.%._ L K H ( &.",
"[ ) W T ! ` &.` _ _ L L L L K F D K _ _ A 1.=.d ] R.:.[ b.D.8._ _ _ L L K _ _ %.&.&.d.K.V.b.p.T B T ^ _ <.<.<.<.%.L L _ K K ( &.",
") ! v d S ` &.1._ _ _ L L _ %.J H L %._ m &.` d ] R.:.[ =.&.&._ L L L _ _ %.&.&.3.h.h.3.D.l.` N g A _ 1.<.L L _ L L L _ _ ( _ _ ",
"/ ! g g F &.&.%.` _ L L L _ %.K K %.<._ m &.` g ) m.N.;.=.&.&._ K L _ _ %.&.1.&.8.h.y.` D.l.^ V N ! &.1._ L L L L L L _ _ _ _ K ",
"/ ^ F ! ( ` %._ _ L L L _ %.%.%.%.%.<._ C &.` g ~ i.p.=.&.3.&._ L %.%.%.1.1.1.&.8.J.l.! y.y.3.` ` &.&._ _ %.L L L L L _ _ %.%.L ",
"` ^ ^ ` ` _ _ _ _ L L $.%.<.<.%.%.%.%._ D ` ` k ~ ;.=.&.&.3.1.%.%.<.<.<.1.0.8.&.d.J.l.! 3.y.h.8.8.1.%._ L L L L L L _ _ _ 1.1.L ",
"&.` ` ` _ _ _ _ %.%.%.<.<.<.<.%._ _ _ ( H ` ` k ~ =.y.d.8.1.1.%.<.<.<.w.8.0.0.&.h.J.l.H 3.d.0.3.1.%._ L L L L L L %.%.%.<.1.1.L ",
"%._ _ _ _ _ %.<.<.<.<.<.<.<.<.L K ( _ ( F ` ` g ^ y.d.h.h.1.1.<.<.<.w.<.8.0.0.1.h.K.l.! O.h.h.1.%._ L L $.L L $.%.<.<.<.<.<.<.L ",
"%._ _ _ _ %.<.<.<.<.<.<.<.$.L H J K _ ( C ` ` g ! 8.3.1.1.1.<.<.w.<.<.w.8.h.h.3.h.K.D./ 3.h.d.%._ L L L $.L L <.<.<.<.<.%._ <._ ",
"_ _ _ %.%.<.<.<.<.<.$.L L L L J D K _ K N ` ` i H 1.1.1.<.<.<.<.w.<.w.8.0.h.h.l.l.K.h.` ` 8.1._ _ L L L $.$.<.<.<.<.<.<.%._ _ _ ",
"_ %.%.%.1.8.8.<.%.$.L L L L L J D H _ H g ` ` f H 1.1.1.<.<.<.w.<.<.8.0.8.0.l.V.K.K.h.` ` 1.1._ _ $.$.%.%.<.w.w.<.<.<.<.%.L _ _ ",
"&.&.1.1.1.1.<.%.L L L L L L $.J H K ( H i ` ` f H 1.1.<.<.<.<.w.<.<.8.0.8.8.h.l.l.d.d.( &.&.&._ L $.%.<.w.w.w.<.<.<.%.%._ K ( _ ",
"d.8.1.&.&.%._ L L L L L L L L J J L ( F i ^ ` f H <.<.<.<.<.<.<.<.<.<.8.0.h.y.3.y.` ` ~ &.&.&.` _ <.<.<.w.w.&.<.<.%.%._ K J ( &.",
"d.&.&.` ` ` _ _ K K K K K K K J H K K H 9 ` ` f H o._ L L %.%.%.%.<.<.1.1.1.` ` p.[ [ ~ ` &.&._ L L <.<.<.%.%.%._ L L K H H ( &.",
"y.&.` ` ` ` _ ( K K K K K K K J J K K H 8 ` _ g H _ L L L $.%.%.L %.%._ _ ` ^ ) +.[ [ ~ ` &.&.%.L L L _ _ _ %._ L J J K H H ( &.",
"[ ` ` ` ` ` ( H H H K K K K K K K L L H 6 ( _ g H L L L L L L _ L L _ _ ` ^ ^ ! ) ` ` / ` &.1.%.L L L L _ _ L K J H H H H H ! &.",
") ^ ` ` ` ^ ! H H H H K H K K K K _ _ H 4 ( _ x G L L L L L L K L ( ( ` ` ` ~ ! ~ ` ` ^ &.&.&._ _ L L L K K H H H H H H H H ( &.",
"^ ^ ` ` ^ ^ H F H H F H H J K K K _ _ F 4 K _ f D L K K K K J H H ( ^ ^ ` ` ~ ! / ^ ` ` ` ` ` ` ( K K K J H H H H H H H H H H ` ",
"^ ! / ^ W T W S F F S ! F A H J H K ( F 4 K _ f A ( ( H H H H H F ^ ^ ^ / ^ ^ ^ / / ^ ( ` ` ` ( H A H H A H H F H F A F F F ! ` ",
"~ W ! Z g v T S S S W ! N f A H F H H A 1 H ( s A ! H A A A A S S ! / ^ / ^ ^ ~ / ^ ~ ~ ^ ( ^ ! N i v A S F W S S N v C F F ! ` ",
"~ ~ ~ B w p B b B N Z Z g 7 N F F H H A = H ! s C F A N c N N B B Z ! ) ` ^ ^ ! ~ ~ ~ ~ ~ ~ ! F d 3 p v B N Z Z Z k d v T W ! [ ",
"T W ! v 5 w a u e 3 e e e 5 N A A H H M o G H s m A A N g a p e 5 p B ! ) ) T B T ! ~ ~ ! ! H S g 5 p k p e e w u p p B ! W ! ! ",
"Z T T N u j T W ! W ~ S g w N H H H H C o H A i N A S Z Z T Q / / ~ W Y R ~ T z T ~ ~ ~ W W S V d 7 d Z Z B Z Z B d u v ! ! ! T ",
"Z T Z k 5 3 5 2 ; ; 3 3 5 7 z A F F F N o A Z p v Z B d u 5 : # : 5 r j Y ' Y k T ~ Q ) W W Z Z k e w 5 @ O o ; 5 3 u B ! W S S ",
"A V A V C N N N N N N N N N A A S S S N . Z Z p v Z B B B B B B B B T R ) ) T B T ~ ~ ~ T T Z Z B v v v v c c v N N V A A A S C ",
"A A A A F A A A A A A A A A A A A Z Z v o C C u c C V V S S S T S ! ! ~ ~ ~ T B T W ! W S Z Z Z C C C C C A A A A A F D D A A C ",
"> % $ $ $ $ $ $ $ $ $ $ % % % $ $ $ $ $ $ > > $ $ $ $ $ $ $ $ > > % % % % % % % % % % % % $ $ $ $ % % % % % % % % % % % % % % > ",
"t < < < , , & & & & & & , * < < , , , , < t < , , , & & & & < t < , < < , & & & * * * * < < < , & & & * < & & < < * < < < < < t ",
"!.X.X.X.X.X.X.X.X.X.X.X.X...X.X.X.X.X.X.X.X.X.X.X.X.X.X.X.X.X.X.X.X.X.X.X.X.X.X.X.......X.X.X.X.X.....X.X. .} X.X.X.X.X.X.X.X.Q.",
"_._._.].].]._.(./.(._._.(.(.).`.'.].].'.'.{.[.]._._.`.`.].].].`.(.~.(.(.(.(.`.`.(.).).(.(.`.`._._._._._._._._._.`._._._._._.(.(."
};
