/* XPM */
static char *_1d505640ae54e0d94052a2f41872d12Jdk4PUESkJ3qKcLV[] = {
/* columns rows colors chars-per-pixel */
"64 64 164 2 ",
"   c #000000",
".  c #0B0402",
"X  c #030708",
"o  c #050A0A",
"O  c #080F0F",
"+  c #120703",
"@  c #160904",
"#  c #1D0B05",
"$  c #080F10",
"%  c #0A1212",
"&  c #0F1C1D",
"*  c #101F1F",
"=  c #230D06",
"-  c #2C1108",
";  c #321309",
":  c #3B170A",
">  c #3E180B",
",  c #112223",
"<  c #162A2B",
"1  c #182E2F",
"2  c #172E30",
"3  c #182F31",
"4  c #073439",
"5  c #083439",
"6  c #1A3334",
"7  c #1C3738",
"8  c #1D3A3B",
"9  c #451B0D",
"0  c #4F1E0E",
"q  c #511E0E",
"w  c #56210F",
"e  c #5B2410",
"r  c #652712",
"t  c #6C2A13",
"y  c #722C14",
"u  c #782F15",
"i  c #7D3116",
"p  c #143D41",
"a  c #203F40",
"s  c #1B4346",
"d  c #144649",
"f  c #1D4549",
"g  c #1E4C4E",
"h  c #224445",
"j  c #2E4747",
"k  c #234748",
"l  c #244B4C",
"z  c #294D4E",
"x  c #2C514E",
"c  c #264F52",
"v  c #2C4E50",
"b  c #265051",
"n  c #2A5456",
"m  c #2E5856",
"M  c #235659",
"N  c #2B5659",
"B  c #265B5D",
"V  c #2E5A5C",
"C  c #305758",
"Z  c #335B5C",
"A  c #395D5C",
"S  c #36605F",
"D  c #295F61",
"F  c #335E61",
"G  c #395F61",
"H  c #2D6265",
"J  c #2F6769",
"K  c #346264",
"L  c #3A6364",
"P  c #366867",
"I  c #356569",
"U  c #3B666A",
"Y  c #366B6C",
"T  c #3B6B6C",
"R  c #366D70",
"E  c #3B6E72",
"W  c #367073",
"Q  c #3B7275",
"!  c #3D757A",
"~  c #3E7A7D",
"^  c #416361",
"/  c #426B6C",
"(  c #486E6E",
")  c #4C716E",
"_  c #436E71",
"`  c #4B6F73",
"'  c #447374",
"]  c #4A7475",
"[  c #477877",
"{  c #42767A",
"}  c #4A7678",
"|  c #437A7D",
" . c #4B7B7C",
".. c #507574",
"X. c #527C7D",
"o. c #5A7F7F",
"O. c #6B7777",
"+. c #6B7877",
"@. c #6B7A7B",
"#. c #833217",
"$. c #873418",
"%. c #8D3619",
"&. c #8F381A",
"*. c #94391A",
"=. c #9D3D1C",
"-. c #A43F1D",
";. c #AA421E",
":. c #43807E",
">. c #4D807F",
",. c #53817F",
"<. c #5C817F",
"1. c #C99820",
"2. c #3F7C81",
"3. c #437E81",
"4. c #4B7E81",
"5. c #527E81",
"6. c #3F8282",
"7. c #458285",
"8. c #448284",
"9. c #498083",
"0. c #4E8182",
"q. c #4A8384",
"w. c #498184",
"e. c #4D8385",
"r. c #4E8585",
"t. c #4B8384",
"y. c #448489",
"u. c #528182",
"i. c #568283",
"p. c #518385",
"a. c #558386",
"s. c #518586",
"d. c #538484",
"f. c #588281",
"g. c #5C8685",
"h. c #5A8584",
"j. c #578886",
"k. c #588887",
"l. c #5A8A87",
"z. c #5D8987",
"x. c #5B8886",
"c. c #558688",
"v. c #558688",
"b. c #5A8689",
"n. c #56898A",
"m. c #5B8989",
"M. c #618685",
"N. c #608986",
"B. c #628987",
"V. c #638A89",
"C. c #658B89",
"Z. c #7F918F",
"A. c #678F91",
"S. c #7F9290",
"D. c #859694",
"F. c #899694",
"G. c #869996",
"H. c #889997",
"J. c #879C99",
"K. c #899B99",
"L. c #969491",
"P. c #8AA09D",
"I. c #8EA3A1",
"U. c white",
/* pixels */
"U.U.U.U.U.U.U.U.U.U.U.U.U.U.U.U.U.U.U.U.U.U.U.U.U.U.U.U.U.U.U.U.U.U.U.U.U.U.U.U.U.U.U.U.U.U.U.U.U.U.U.U.U.U.U.U.U.U.U.U.U.U.U.U.",
"                                                                                                                                ",
"1.1.1.1.1.1.1.1.1.1.1.1.1.1.1.1.1.1.1.1.1.1.1.1.1.1.1.1.1.1.1.1.1.1.1.1.1.1.1.1.1.1.1.1.1.1.1.1.1.1.1.1.1.1.1.1.1.1.1.1.1.1.1.1.",
"                                                                                                                          . . . ",
"  { { [  .4.i.d.d.,.,.,.u.0. .{ Q { { Y { E E { Q { { ' [ [ } ' ' { { Q Q Q Q Q Q Q Q { E E E ' {  . . .4.5.5. .| | ~ ~ ~ ! {   ",
"  {  .                                     .{                                     { |                                     Q Q   ",
"  |  .  p.k.z.g.z.g.z.k.k.s.s.{ E !  .E   [  .  Y  .4.4.u.5.X.X.4. . .| | | ! !   { |    .4.4.e.e.p.d.a.i.i.a.s.0.9.| ~   Q !   ",
"  3.3.  0.u.h.g.z.z.g.z.k.s.s. .Q ! | E   !  .  E  . .4.5.5.X. . .! | | | | | !   | |   3.9.w.e.r.0.4.u.i.i.5.4.| | | ~   ! !   ",
"  8.w.   .[ i.V.V.N.g.N.m.v.s. .! { | E   { {   E  . . .u.b.b.a.v.Y { | | | ~ !   3.3.  9.r.r.r.s. .{ ,.z.g.h.u. .| | |   ~ ~   ",
"  7.w.   .} f.                    | | E   | {   E  .{                     ~ ~ Q   8.9.  w.r.c.                     .| |   ~ 3.  ",
"  8.w.  0.X.h.D D D D D D D D D D ! | E   { {   E  .| D D D D D D D D D D | ~ !   8.3.  e.s.v.D D D D D D D D D D  .{ |   ~ |   ",
"  8.w.  u.f.M.                    ! | Q   { {   R 3.|                     3.|  .  3.4.  e.v.v.                    { ' {   ! |   ",
"  r.w.  [ f.B.D D D D D D D D D D ! 3.Q   { {   Y | | D D D D D D D D D D w.9.|   e.v.  s.m.z.D D D D D D D D D D K V Y   { 3.  ",
"  r.r.  T ] C.                    Q 3.Q   { {   R | {                     9.3.|   r.n.  d.m.A.                    U I E   Q 3.  ",
"  w.e.  Z Z L D D D D D D D D D D { 4.{   { |   R | ! D D D D D D D D D D r.9.3.  4.e.  u.h.C.D D D D D D D D D D D D Q   | 9.  ",
"  9.u.  V l l                      .4.[   {  .  Y | Y                     9.3.|    . .  5.5.M.                    d M Q   | |   ",
"  4.u.  Z C ^ / ( / L Z V K { [ [ 4.4.}   {  .  Y | R H B D J K V n n n { 9.| |   | {   i.g.M.M...A C F K K H B B B H Q   3.|   ",
"  5.h.  X.X.<.M.M.o.X.] ] ] 4. . .p.p. .  [  .  Y 7 8 k n n l c n n n n N 3.~ !    .4.  h.N.N.M.o.} } } { | { ~ ~ Q ! |   | {   ",
"  d.z.  V.C.C.C.B.h.f.X.X.d.d.4.4.d.u. .  X  .  7 7 7 8 8 8 8 8 8 b n n N | { !   | 4.  i.h.h.h.f.i.u.0.0.9.3.3.3.3.3.|   [ '   ",
"  h.z.  N.C.C.B.M.f.i.,.i.i.a.4. .u.4. .  X X   6 3 1 1 6 7 7 7 7 8 8 n N | { {   4.5.  X.d.d.a.s.s.r.r.r.9.3.3.3.2.~ |    .)   ",
"  d.h.  N.C.C.B.M.h.h.,.i.u.u.[ {  .4. .        X o o O % < 1 6 7 7 8 8 8 ! | {   4.5.  X.d.d.s.s.r.r.r.9.8.3.3.3.2.2.|   ' )   ",
"  d.h.  N.B.C.C.B.g.d.h.p.p.p.[ ' n n n n X             X X O % 1 7 7 7 8 7 |  .  p.5.  u.m.b.s.r.e.9.9.3.~ ~ 2.2.2.2.|   ' )   ",
"  s.d.  N.N.C.C.C.z.d.h.s.p.p.| n N n n 7 o               X X X o % 6 7 7 7 k |   c.5.  a.m.b.s.e.9.3.| ~ ~ ~ 2.2.2.2.~   {  .  ",
"  d.g.  g.g.N.V.C.k.d.,.p.0.9.n | a a l % X                     X X * 7 7 7 7 Q   v.b.  h.m.p.0.4.3.| ~ ~ ~ ~ ~ ~ ~ 2.8.   . .  ",
"  k.V.  N.N.N.h.j.,. .>.t.r.r.9.n 7 7 $ X                         X o < 6 7 7     d.m.  h.m.k.p.4.3.| ~ ~ ! ~ 2.3.2.2.6.  r.s.  ",
"  m.z.  N.V.N.z.k.d. .r.9.9.9.n 7 7 6 o                           X X X X   n n 8 V k.  h.z.b.s.9.3.3.~ ~ ! ~ 3.3.y.y.8.  9.|   ",
"  k.h.  g.      k.v.r.r.r.w.9.n h 7 * X         . + @ @ + .                 n 7 7 8 n n h.      4.3.3.~ ~ ~ 3.8.8.8.8.8.  3.3.  ",
"  z.h.  h.  L.  d.s.r.r.r.w.9.n n l o X       + = ; : : ; # +               l 7 7 7 n n i.  L.  4. .3.3.8.3.w.8.8.8.8.6.  ~ 3.  ",
"  g.h.  h.      d.s.r.r.w.9.3.n n X X       + = 9 e t t e : # .           6 7 7 7 k n n i.      4. .3.3.9.3.3.8.9.9.8.6.  ~ 3.  ",
"  5.X.  ] X.d.v.s.r.9.9.3.| K 7 7 X       . # > r $.*.*.i w - +           & 7 7 7 n n , i.h.i. .' E { 3.8.8.3.8.8.8.8.8.  ! ~   ",
"  ] /   L T   s.r.w.3.| | ~ n 8 7 X       . = 0 i =.;.-.%.r ; +           7 7 7 7 N n   h.g.  ] L V I | 8.y.8.8.8.9.9.8.  ! ~   ",
"  ' Z   C     e.w.9.| ~ ~ ~ N 7 7 X       . = q #.=.;.-.$.e - +       X   7 7 7   n ^   g.    ( G b M ! 8.8.y.8.8.8.9.9.  ! |   ",
"  X./   V     4.9.3.| ~ ~ I n n & X         # 9 y *.=.&.y 9 = .       X 7 7 7 7   j V.  h.    ) A m P | 3.3.y.y.y.8.8.8.  ! |   ",
"  X.]   U     0.4.| ~ ~ ~ | n l             + ; e y u t 0 - @         X 7 7 7 n   i.N.  f.    ..^ L [ 9.8.8.8.y.y.8.3.~   ! {   ",
"  U c   /     | | | ! ! ~ | | X             . # ; 9 9 : - @ .           % l N N   d.k.  f.    Z x /  .9.9.6.y.8.9.3.| ~   Q {   ",
"  } _   '      .| | ~ ~ ~ ~ ! X               . @ # # @ . .           7 7 h N 3   4.p.  k.    / L / [ | 9.9.9.9.3.~ ~ ~   ! {   ",
"  ' F   T     9.| | | ~ ~ | 3.X X                                   7 7 7 8 N h   s.s.  v.    L V Y | w.9.~ ~ | ~ ~ ~ |   { |   ",
"  ' V   E 4.  3. .| ~ ~ ~ | N n 8 X                               7 7 7 7 7 N &   s.u.  v.d.  U L ' 4.9.| ~ ~ ~ ~ ~ ~ |   | |   ",
"  [ E   {  .3.| | ~ ~ ~ | 3.N h 8 7 7                           7 7 7 7 7 7 7 9.  n.d.  u.u.0. . .4.4.| | 3.~ ~ ~ ~ ~ |   3.3.  ",
"  [ [    .| | | | ~ ~ 2.3.8.8.N 7 7 7 7                       l 7 7 7 7 7 7 r.9.  n.d.  0.u.s.e.e.9.3.| ~ ~ ~ ~ ~ | | |   9.9.  ",
"   . .  | | | | 3.3.3.8.8.8.8.3.V 7 7 7 7 X                 b b 7 7 7 7 U r.r.4.  n.d.  0.p.r.0.9.3.| ~ ~ ~ ~ ~ ~ 3.3.3.  9.9.  ",
"  | |   ~ | 3.8.8.9.8.8.8.8.8.~ ! V 7 7 7 h %     X     n n n n b k 8.8.r.r.r.9.  m.d.  >.s.s.9.3.| ~ ~ 2.~ ~ 2.3.8.8.8.  9.9.  ",
"  | |   | 3.8.8.8.9.8.8.8.2.~ Q W ! F 7 7 h n   v % % X n n n n 7.9.8.7.r.s.s.0.  m.v.  0.s.p.3.| ~ ~ ~ 2.~ ~ 8.8.8.8.8.  | 3.  ",
"  | |   3.8.8.8.8.8.2.~ ~ ~ ~ W R ! V n l n N   z 9.w.9.n N 8.8.7.8.8.r.r.s.s.d.  m.s.   .e.9.| | ~ ~ ~ 2.2.8.8.8.8.8.8.  | |   ",
"  3.3.  w.r.r.8.3.2.~ ~ ~ ~ ~ W R Q | V n N K   Q w.w.w.8.8.8.y.9.8.r.r.r.r.d.k.  m.s.   .9.9.| | 2.2.3.3.8.y.y.8.8.9.9.  ~ |   ",
"  4.w.  w.9.9.3.~ ~ ~ ~ ~ ~ 2.! Q ! { Q    . .  Q w.9.9.9.8.8.y.8.8.r.r.r.e.p.d.  p.p.  4.4.4.| ~ 2.3.9.y.y.y.8.8.8.3.3.  ! {   ",
"  e.9.  4.3.| ~ ~ ~ ~ ~ ~ ~ ~ ! ! ~ { E   [  .  Q 9.9.9.9.9.9.9.9.8.9.r.r.s.u.0.   . .  4.4.4. .| 8.8.8.y.y.4.9.8.3.3.|   ! {   ",
"  4.4.   . .| | ! ! ! ! ! ! ! Q Q ! ! Q    . .  Q :.| ~ ~ 3.3.3.8.8.9.9.9.9. . .  X.X.   .4.4.| ~ ~ 8.8.9.3.3.3.| ~ ~ !   Q {   ",
"  4. .   . .| { ! ! ! ! ! ! ! ! ! ! ! Q    .|   Q | ~ ~ ~ 2.3.3.~ 3.3.| |  .[  .  X.X.   .4.4.3.~ ~ ~ | | | 3.| ~ ! ! !   Q {   ",
"   . .   . .{ Q Q Q ! ! ! ! ! ! ! ~ ~ Q   { |   Q ~ ~ ~ ~ ~ ~ | ~ ~ | |  .[ ] '    . .   .4.9.3.~ ~ ~ ~ | | ~ ! ! Q Q Q   Q '   ",
"  [  .   .[ ' Q Q Q Q ! Q ! ! ! ! | | Q   { |   W ~ ~ ~ ~ ~ ~ ! ~ ! { |  . .] '    . .  4.4.4.| | ~ ~ ~ ! ! Q Q Q Q Q Q   Q !   ",
"  {  .  [ { Q                     | | E   ! |   R ~ ~                      .] '   [  .   . . .                    Q Q Q   W Q   ",
"  ' }   _ / _ D D D D D D D D D D ! { E   ! |   Y { { D D D D D D D D D D [ [ {   ] [    . . .D D D D D D D D D D E Y E   E Q   ",
"  _ '   V F /                     Q Q Y   Q {   Y ' Q                     [ [ ]   { ]   [ { [                     K F I   E '   ",
"  ] ]   l b L G L K U D D D D D D Q Q Y   Q '   I E Y K D K K D D D D D D [ { '   ] ]   ] { ' E N s n D D D D D D Z N F   _ '   ",
"  _ '   f l m                     Q Q J   W Q   H Y Y                      ./ L   ' ]   ' ' Q                     b n L   _ '   ",
"  / /   c C / D D D D D D D D D D Q Q I   Q Y   K Y T D D D D D D D D D D ] / S   ] ]   _ _ T D D D D D D D D D D N c F   ' '   ",
"  / U   f s f D D D D D D g K Y E E E K   Y U   F U L D D D D D D f z C / ../ Z   ] `   _ _ U D D D D D D 5 4 p f s c L   _ T   ",
"  U Y                                     U U                                     ] ]                                     Y T   ",
"  Y Y Y E Y Y Y Y Y Y Y Y Y Y Y Y U U F   I I { D I U U T T T / T ' ' ] ] ] / L / _ ' { T U U U I I I I I Y Y Y Y Y E R R Y Y   ",
"                                                                                                                                ",
"                                                                                                                                ",
"@.@.@.@.@.@.@.@.@.@.@.@.@.@.@.@.@.@.@.@.@.@.@.@.@.@.@.@.@.@.@.@.@.+.@.@.@.@.@.@.@.@.@.@.@.@.@.@.@.@.@.@.@.@.@.@.@.@.@.@.@.O.O.O.",
"J.I.P.K.G.G.H.H.K.K.K.H.D.Z.D.D.D.D.H.H.G.G.G.K.K.K.G.D.S.D.G.G.D.D.F.H.J.K.K.J.J.I.P.K.G.G.H.H.K.K.K.H.D.Z.D.D.D.D.H.H.D.F.F.D."
};
