/* XPM */
static char *vertopal_com_wall_1_1748044947[] = {
/* columns rows colors chars-per-pixel */
"64 64 219 2 ",
"   c #010101",
".  c #0A0102",
"X  c #000903",
"o  c #02020A",
"O  c #0A030D",
"+  c #03090A",
"@  c #130001",
"#  c #190305",
"$  c #000310",
"%  c #080113",
"&  c #260001",
"*  c #083838",
"=  c #4B0000",
"-  c #540001",
";  c #590105",
":  c #680001",
">  c #793636",
",  c #72403F",
"<  c #183E43",
"1  c #1D4A48",
"2  c #144346",
"3  c #1E5855",
"4  c #244A4A",
"5  c #284A53",
"6  c #235354",
"7  c #2B5454",
"8  c #235458",
"9  c #275C5C",
"0  c #2A5D5D",
"q  c #285859",
"w  c #335C5B",
"e  c #345758",
"r  c #2A514E",
"t  c #1E6457",
"y  c #25655D",
"u  c #2C615B",
"i  c #33625B",
"p  c #3B635F",
"a  c #33695B",
"s  c #265E61",
"d  c #2B5E61",
"f  c #2F5F69",
"g  c #355F64",
"h  c #2B6263",
"j  c #2C6668",
"k  c #346364",
"l  c #3A6362",
"z  c #366A64",
"x  c #3D6A65",
"c  c #35656A",
"v  c #3C646C",
"b  c #346B6D",
"n  c #3B6B6C",
"m  c #3C736C",
"M  c #35726D",
"N  c #356D71",
"B  c #3C6C72",
"V  c #3A6974",
"C  c #2D7974",
"Z  c #357274",
"A  c #3B7375",
"S  c #3B7972",
"D  c #3C757A",
"F  c #3E7A7C",
"G  c #357778",
"H  c #2E6E70",
"J  c #4A5958",
"K  c #555556",
"L  c #794346",
"P  c #7C5456",
"I  c #785A5C",
"U  c #765558",
"Y  c #475F60",
"T  c #795D61",
"R  c #446B6C",
"E  c #4B6C6D",
"W  c #45676A",
"Q  c #57686A",
"!  c #47736D",
"~  c #436C73",
"^  c #4A6B75",
"/  c #437475",
"(  c #4A7374",
")  c #447A75",
"_  c #4A7A76",
"`  c #43767B",
"'  c #4B757A",
"]  c #437B7D",
"[  c #4B7C7D",
"{  c #527373",
"}  c #527679",
"|  c #527C7C",
" . c #5A7B7C",
".. c #577676",
"X. c #52736A",
"o. c #686466",
"O. c #657173",
"+. c #6C757C",
"@. c #6D7A7D",
"#. c #677878",
"$. c #717A7D",
"%. c #71757E",
"&. c #6B696A",
"*. c #8D0203",
"=. c #9C0001",
"-. c #A20101",
";. c #B91010",
":. c #B71E20",
">. c #893637",
",. c #A92828",
"<. c #B32222",
"1. c #B52C2D",
"2. c #BB2C2D",
"3. c #AB2F30",
"4. c #B22F31",
"5. c #AD3435",
"6. c #AC3A3B",
"7. c #A43A3C",
"8. c #B33334",
"9. c #BA3333",
"0. c #B2393A",
"q. c #CB0001",
"w. c #D80404",
"e. c #DD1516",
"r. c #D51D1D",
"t. c #DC1A1A",
"y. c #D81314",
"u. c #EC0000",
"i. c #E30E0E",
"p. c #EC0B0B",
"a. c #E80404",
"s. c #FF0000",
"d. c #F40707",
"f. c #E30F10",
"g. c #E21313",
"h. c #E91212",
"j. c #E7100F",
"k. c #C82627",
"l. c #C23433",
"z. c #A03F40",
"x. c #864849",
"c. c #964648",
"v. c #824E51",
"b. c #855354",
"n. c #855659",
"m. c #84595A",
"M. c #8D5859",
"N. c #955554",
"B. c #825F61",
"V. c #906363",
"C. c #3F817F",
"Z. c #43827D",
"A. c #4D817E",
"S. c #4A8777",
"D. c #54817D",
"F. c #5B867D",
"G. c #558077",
"H. c #60897E",
"J. c #BB9719",
"K. c #C6951D",
"L. c #CA961E",
"P. c #C6991C",
"I. c #C59521",
"U. c #CB9621",
"Y. c #C69921",
"T. c #CA9B24",
"R. c #CB9E29",
"E. c #D29824",
"W. c #CBA128",
"Q. c #3D7C82",
"!. c #3B7881",
"~. c #426F83",
"^. c #447283",
"/. c #437D81",
"(. c #4B7D82",
"). c #4D7B8C",
"_. c #497582",
"`. c #537D83",
"'. c #5A7D84",
"]. c #507D92",
"[. c #6C7B82",
"{. c #667C82",
"}. c #727A83",
"|. c #717581",
" X c #458284",
".X c #4C8284",
"XX c #4D8984",
"oX c #4A8489",
"OX c #458686",
"+X c #538483",
"@X c #5B8484",
"#X c #548985",
"$X c #5D8A86",
"%X c #558589",
"&X c #5B8489",
"*X c #548A8A",
"=X c #5C8A8A",
"-X c #5F8F93",
";X c #628585",
":X c #628A87",
">X c #638B8A",
",X c #678589",
"<X c #68908F",
"1X c #7D9993",
"2X c #738A8C",
"3X c #7DA099",
"4X c #839594",
"5X c #859A96",
"6X c #899C96",
"7X c #869A99",
"8X c #8A9C9B",
"9X c #869599",
"0X c #939696",
"qX c #87918A",
"wX c #8DA39E",
"eX c #8FAAA3",
"rX c #F7FEFE",
"tX c #FEFEFE",
"yX c #FFF7F8",
/* pixels */
"tXtXtXrXyXtXtXtXrXtXrXtXtXtXrXtXtXtXtXtXyXtXrXtXtXtXtXtXtXtXtXtXtXtXtXtXtXtXtXtXtXrXtXtXtXtXyXtXtXtXtXtXtXtXtXtXrXtXyXtXtXrXtXtX",
"      +   X                                                                           .                                 X o     ",
"P.R.U.K.E.J.L.E.U.U.U.U.U.U.U.L.I.R.Y.I.Y.Y.K.P.U.U.U.U.U.U.L.L.P.L.L.L.Y.L.Y.Y.P.K.T.Y.Y.I.R.R.U.U.Y.U.U.U.U.U.E.L.J.W.K.I.P.P.",
"    .     X               X     .   .                                           X         . .                             o   @ ",
"  ].~ } _._.#X.X@X@X+XD..X[ ' ) M ] / Z ` N V _.A ) ` D / / / / ` D A D A A Z A B _.Z ' b ~ N S [ ] [ _.(..X(.(.F ] Q.` ! F !.o ",
"  / S.X   O             . X               G...o   o X   . o     .   .       o   + ( (   X                           o X   M /   ",
"  _.+X  | ,X@X@X:X=X$X*X*X+X(.] b ] ) m o ) )   m ' [ _ `.| { | [ ] [ ) ) ] ` A   ' D   S.`. XS.+X+XF.@X@X@X@XD.+XOX` /   C ^.  ",
"  ].`   .X%X$X@X;X$X$X=X$X#X.X[ !.` _.b % S ) . N /.A.(.+X.XA.D.] ] F F /.] F D   ] /.o ) ).].D..X.X X+X+X+X(.(.[ C ).Q.. !.~.  ",
"  Z..X  (._ @X;X:X=X>X=X&X%X+X[ ~ ` F A   _.`   ~ `.A.' +X:X+X*X%Xb ) ` [ F D ]   ] .X  .X X.X+X+X[ [ (.%X$X%X+X( .X] ]   D F   ",
"o ]  X  ' j.s.s.s.s.s.&         + ` /.B   /.~   N ] m o o =.s.s.s.s.s.s.; F G Z o (.]   +XXX@X$             : s.s.s.s.s.=. X]   ",
"o  X.XX .X9.s.s.s.s.s.> d d h u y / ` N . _.`   A [ Z.0 y i.s.s.s.s.s.s.,.] ` /   XX/.  .X%X+X3 h u d h d 0 :.s.s.s.s.s.; !. X  ",
"  [ .X  &XN.s.s.s.s.s.-.        o ] F A   ` /   N ] `   # s.s.s.s.s.s.s.q.[ ] /.  '  X  +X*X#XO     o       u.s.s.s.s.s.# F )   ",
"  *X X  ] O.s.s.s.s.s.p.h 0 h h y A ] Z   F F   N ` OXs , s.s.s.s.s.s.s.s.} /./.  XX%X. XX#X:Xy d d s d d K s.s.s.s.s.i.  F /.  ",
"o [ .X  R _ h.s.s.s.s.s.&         B C.`   ` /   N /./ o =.s.s.s.s.s.s.s.s.n.(.!.  (.*X  &X=X<Xo           : s.s.s.s.s.1.  ` '   ",
"  .X*X  0 w <.s.s.s.s.s.> d 0 9 w / ] D   ` (.  A (.Z w y.s.s.s.s.s.s.s.s.0. X/.   X*X  .X@X;Xw 0 d d d 0 <.s.s.s.s.s.x.  F .X  ",
"  D. X  q 1 > s.s.s.s.s.-.      o `.+XD . ` /.. j ] z # s.s.s.s.;.u.s.s.s.e.]  X  ) ) . `.[ >Xo           u.s.s.s.s.s.W   /.`   ",
"  (.+X  p q J s.s.s.s.s.p.k / ) ] [ A.`   ` [   N ` b L s.s.s.s.>.:.s.s.s.s.' ]   ] )   '.$X;X$X{ l 7 w K s.s.s.s.s.y.A   ] )   ",
"  [ @X  | ' ;Xh.s.s.s.s.s.o.`.(.(.`.+X[   ' '   N /.F 5.s.s.s.s.U c.s.s.s.s.P A   A._.  @X$X,X=X .' ) ' c.s.s.s.s.s.1.]   ' `   ",
"X +X:X  :X=X<Xl.s.s.s.s.s.N.#X[ (.%X+X[   (.[   N /. Xg.s.s.s.s./.&.s.s.s.s.5.D   ] (.o '.+X$X@X .+X+X+Xl.s.s.s.s.s.b./.  ' (   ",
"  #X$X  :X$X2XN.s.s.s.s.s.9.%X[ (.(.A.]   [ A.  A /.`.s.s.s.s.k./.] d.s.s.s.e.`   (.(.  | F.&X+X.X+X+X Xp.s.s.s.s.s.E /.  ( (   ",
"  %X@X  :X>X;XH.s.s.s.s.s.p.+X[ ] [ [ [   (.[   A /.m.s.s.s.s.c./.Q.k.s.s.s.s.(   [ `.  `.+X@X+X#X.X.XO.s.s.s.s.s.g.F /.  ( (   ",
"  @XD.  :X>X;X,Xh.s.s.s.s.s.O.` / [ A..X  .X[   A OX0.s.s.s.s.I /./.c.s.s.s.s.P   +X(.  '.$X*X#X.X.X(.N.s.s.s.s.s.8.F /.  / (   ",
"  +X+X  :X=X2X:Xl.s.s.s.s.s.N.` ` (.D..X  .X[   Z /.e.s.s.s.s.] F /.o.s.s.s.s.6.  +X+X  %X*X&XoX.X(.(.1.s.s.s.s.s.v.F /.  ) (   ",
"  +X:X  $X@X:X:XN.s.s.s.s.s.9.] ) (.[  X  [ [   D } s.s.s.s.r..X/./.OXs.s.s.s.e.  =X+X  ,X*X`..X.X] ] p.s.s.s.s.s.E ] /.X [ )   ",
"  *X<X  ,X#X:X;X#.s.s.s.s.s.h.(./././..X  [ (.  ^.P s.s.s.s.z.] oX+X Xk.s.s.s.s.@ D.*X  ,X=X*X@X(./.Q s.s.s.s.s.g./.G  X  OX X  ",
". =X=X  $X:XH.F.=Xh.s.s.s.s.s.{ /././..X  [ [   N 8.s.s.s.s.T (..X(.(.c.s.s.s.s.- +X*XX +X=X$XS././.N.s.s.s.s.s.0.oXC.OX   XZ.  ",
"  &X#X  H.  .   $X9.s.s.s.s.s.v.] /././.  ] (.  z q.s.s.s.s.`.'..X(..XT s.s.s.s.*.#X&X  @X      (./.2.s.s.s.s.s.n.oX XOX  /.) . ",
"X ,X#X. F.o qXX #XM.s.s.s.s.s.1.D Q.` ]   ] [   W s.s.s.s.r.oXOX+X.XOX(.s.s.s.s.q.=X-X  | X 0X  (.[ p.s.s.s.s.s.} /. X X  Q. X  ",
"  @X#X. ;Xo   o +X#.s.s.s.s.s.f.b D ` F   ` [   x.s.s.s.s.7.XX=X*X.X X Xk.s.s.s.s.@X=X. ;X  o . [ Q s.s.s.s.s.g.OXOXC.OX  F F   ",
"  '.XX  ) | $XXX.XoXg.s.s.s.s.s.W Z F D   ` (.  3.s.s.s.s.B. XOX*X.X] /.7.s.s.s.s.V.%X   X$X| ) ) x.s.s.s.s.s.8./.OXC. X  D F o ",
"  E x o p Q + +X.X X8.s.s.s.s.s.> A ] A   / [   y.s.s.s.s.-X&X(..X X/.] I s.s.s.s.0.$X  | ;X+ ( v <.s.s.s.s.s.n.OX/.C.OX  Z F   ",
"X ' e X e   o D..X.Xv.s.s.s.s.s.3.D ] A   ] [ @ s.s.s.s.t.*X'.OX] /./.F ` s.s.s.s.t.,X  :X    E p a.s.s.s.s.s.} oX/.OXOX. D ]   ",
"  } B   e     `.(./.{ s.s.s.s.s.i.D ] ]   [ ' - s.s.s.s.0..X+XoX_. X/.Q.` y.s.s.s.s.2X  %X    { K s.s.s.s.s.g.oXOXOX X.X  ` `   ",
"  `.[   W   X (./.] F f.s.s.s.s.s.E A `   .XD.*.s.s.s.s.M.+X[ .X] ] F F Q.6.s.s.s.s.V.  +X    ( >.s.s.s.s.s.0./. X X] /.  D `   ",
"  n 5   ~     [ ] ] F 4.s.s.s.s.s.x./ D   .XD.q.s.s.s.s.,X*X X] /.F F F ] I s.s.s.s.z.X '.  . w <.s.s.s.s.s.m.OXOX/.] /.  D /   ",
"  ` {   A     ' ` ] ] v.s.s.s.s.s.4.] D   `.| s.s.s.s.e.&X$X+XF /.F ] F F ' s.s.s.s.g.  @X    l i.s.s.s.s.s.'  XQ.Q.D /.  D `   ",
"  / 7   A   + .X] F /.{ s.s.s.s.s.g./.]   [ n.s.s.s.s.0.`.' .X] F F ` F ` _.e.s.s.s.s.. -X  X J s.s.s.s.s.e.G ] F F D /.  ] )   ",
"  ) w . N #.o /.] ] F Q.e.s.s.s.s.s.../.  ] 0.s.s.s.s.b.`.+X'  XD F /./././.0.s.s.s.s.= &X@.X x.s.s.s.s.s.5.D /.F F ` /.o ^.`   ",
". / n   D [ | /.] F F F 4.s.s.s.s.s.b._.  [ t.s.s.s.s.{.(. X(.D F /././.(..Xn.s.s.s.s.*.OXD.'.1.s.s.s.s.s.n.F A F F ` F   /.[   ",
"  [ S   ).] S /.] F Q.^.b.s.s.s.s.s.8.]   } s.s.s.s.g.) `..X[ /././.OX(.oXoX .s.s.s.s.q.oXS.@Xg.s.s.s.s.s.( F F F Q.] F o .X(.  ",
"  ' (.X ` / ] F /././. X} s.s.s.s.s.g.D   P s.s.s.s.8.+X%X XOX/. XoX/./..X*X.Xg.s.s.s.s.D.+X .s.s.s.s.s.e.F F Q.F C.Q./.  .X[   ",
"  ) _.  ] ] OX X/. X XoXoXg.s.s.s.s.s.^   5.s.s.s.s.M.+X+X X.X/. X X X X.X+X+X8.s.s.s.s.I #XM.s.s.s.s.s.5.F F Q./.OX/.(.   X] o ",
"  ) /.  /.) /././. X/.OX/.8.s.s.s.s.s.v.X t.s.s.s.s.'..X.XOX/.oXOXOX XoX+X.X+XM.s.s.s.s.6.D.9.s.s.s.s.s.P F /././.OX/.oX   X]   ",
"  ] /.  /./.).OXOX/././.!.P s.s.s.s.s.8.. s.s.s.s.g..X(././.OX/././.OXoX.X.X.X#.s.s.s.s.r..Xg.s.s.s.s.s.' /./. X/.OX X/.  ] ]   ",
"  [ /.o .X.X X X/./.F F F E s.s.s.s.s.e.= s.s.s.s.9.OX X/./.OX X.X X.XoXXX.X+X*Xw.s.s.s.s.O.s.s.s.s.s.e./. X X XC. XOX(.  F )   ",
"  (.(.  .X.X/./.F F F Q.] F e.s.s.s.s.s.=.s.s.s.s.M..X/.oXOX/. X/.OX.XoX+X+X+X#X-.s.s.s.s.4.s.s.s.s.s.6. X X XoXOX X X/.  D ]   ",
"  (.(.  /.[ /.Q.F D F /.` F 8.s.s.s.s.s.s.s.s.s.s... X X/./. X XOXOX.X.X.X.X+XA.: s.s.s.s.s.s.s.s.s.s.m. XoX/././.Q.] ]   D A   ",
"  D.(.  (.[ ` /.D D D D D F v.s.s.s.s.s.s.s.s.s.i.Z.F F Q././././.(.OX(..X.X[ [ & s.s.s.s.s.s.s.s.s.s.[ OX/./././.F F D   D `   ",
"  | [   `.[ ] ` D D D D D A E s.s.s.s.s.s.s.s.s.1.F F Q.Q.Q. X] Q./.Q./.] ] ( [ o p.s.s.s.s.s.s.s.s.e./.F ] ] ] F G G D   Z /   ",
"  [ Z.  (.` ` W A D A A A F F g.s.s.s.s.s.s.s.s.x.F F ` ~ ) G Z.] A ] ' (.` [ R   k.s.s.s.s.s.s.s.s.5./.] ] ` ` W D H D   A /   ",
"  ( [   | { F G A A D D D D D 3.s.s.s.s.s.s.s.s.Q F F C.Q././.D Z .X` Z.S.) _ !   c.s.s.s.s.s.s.s.s.U F D D D A C A A Z   N F . ",
"  ) [   ` ) n o               - s.s.s.s.s.s.s.a.z F A o o     .     o . o { ] '   o.s.s.s.s.s.s.s.s..           $ B S ~   A /   ",
"  { '   ' E n h d d d d 0 d 0 e s.s.s.s.s.s.s.-.c A F y d 0 h h j c d h j [ ! (   } d.s.s.s.s.s.s.y.d d d h d d y n n b . b A   ",
"  R '   6 a R o                 o ^ Z h . D `   c ] ( X                   { [ /   ( |   ) A |                   o l u v   A (   ",
"  ( (   8 5 l J c h c d h d h s l B N Z   A ]   c n n l w k 9 j j 0 d 0 h ' ( /   ..~   [ ( / W 8 8 8 9 d d h h w w 7 k . n n o ",
"  R /   < 1 e X                 X B F h   A B   j b l o .   o       .   X { x z   E '   B ) R +                 o 4 q k   / (   ",
"  E W o r 7 R d f d d d d d d h u V ~ a X b ~   c z n h 9 d h d d 9 h 9 d / ~ g . m { o R n E s h h h d s 9 h k y 8 r w   / (   ",
"o v z + * 1 2 h 0 0 u 0 q q h k b D _.0 o N ~   f v c k 9 d d 9 q 1 r w R | W e o | E o W ) f h y 9 0 k q * * * 1 < 5 W o ~ l O ",
"  a z o . O . o                   o o X . x W X                 o                 ! X.X   o o                 o   O       x x X ",
"$ ~ B g / z n H B b N B B V b b z V v p o f c E k k k v n n n B ~ / _.' ' ' W n ^ ^ / ' W c c B c c c f c b N c N b N N v N B $ ",
".         X                         .   .   X         o                                 .     .                 .             @ ",
"  X                             +                                                                                     o X       ",
"[.#.|.[.+.#.}.}.+.+.@.%.$.$.+.#.[.}.@.@.@.$.%.}.$.$.$.#.#.$.$.$.$.#.+.$.@.@.@.@.}.@.}.@.@.#.[.@.@.}.@.%.$.}.@.+.[.2X#.[.{.#.@.@.",
"5XeX8X3X0X6X7X1X7X6X6X9X1X4X4X5X9XqX5XwX1X4X6X5X9X8X7X4X4X4X5X5X9X4X7X6X4X5XwX5X5XwXwX5X3X7X0X4X7X6X6X5X4X2X4X9X4XqX6X0X4X0XqX4X"
};
